<svg width="24" height="24" viewBox="0 0 24 24" fill="none" xmlns="http://www.w3.org/2000/svg">
<path d="M12 10.8081L22.2389 6.15405V18.2545L12 22.9085V10.8081Z" stroke="white" stroke-linejoin="round"/>
<path d="M12 10.8081L1.76114 6.15405V18.2545L12 22.9085V10.8081Z" fill="url(#paint0_linear_662_15746)" stroke="white" stroke-linejoin="round"/>
<path fill-rule="evenodd" clip-rule="evenodd" d="M1.76123 6.15403L12.0001 1.5L22.2389 6.15403L12.0001 10.8081L1.76123 6.15403Z" fill="url(#paint1_linear_662_15746)"/>
<path d="M12.0001 1.5L12.207 1.04482C12.0755 0.985061 11.9246 0.985061 11.7932 1.04482L12.0001 1.5ZM1.76123 6.15403L1.55433 5.69884C1.37583 5.77998 1.26123 5.95796 1.26123 6.15403C1.26123 6.3501 1.37583 6.52808 1.55433 6.60921L1.76123 6.15403ZM22.2389 6.15403L22.4458 6.60921C22.6243 6.52808 22.7389 6.3501 22.7389 6.15403C22.7389 5.95796 22.6243 5.77998 22.4458 5.69884L22.2389 6.15403ZM12.0001 10.8081L11.7932 11.2632C11.9246 11.323 12.0755 11.323 12.207 11.2632L12.0001 10.8081ZM11.7932 1.04482L1.55433 5.69884L1.96813 6.60921L12.207 1.95518L11.7932 1.04482ZM22.4458 5.69884L12.207 1.04482L11.7932 1.95518L22.032 6.60921L22.4458 5.69884ZM22.032 5.69884L11.7932 10.3529L12.207 11.2632L22.4458 6.60921L22.032 5.69884ZM12.207 10.3529L1.96813 5.69884L1.55433 6.60921L11.7932 11.2632L12.207 10.3529Z" fill="white"/>
<defs>
<linearGradient id="paint0_linear_662_15746" x1="12" y1="14.5249" x2="1.76114" y2="14.5249" gradientUnits="userSpaceOnUse">
<stop stop-color="#BF08C0"/>
<stop offset="0.833333" stop-color="#6F19F7"/>
</linearGradient>
<linearGradient id="paint1_linear_662_15746" x1="1.76123" y1="6.15049" x2="22.2389" y2="6.15049" gradientUnits="userSpaceOnUse">
<stop stop-color="#BF08C0"/>
<stop offset="0.833333" stop-color="#6F19F7"/>
</linearGradient>
</defs>
</svg>
