<svg width="24" height="24" viewBox="0 0 24 24" fill="none" xmlns="http://www.w3.org/2000/svg">
<line y1="2.85718" x2="24" y2="2.85718" stroke="white" stroke-width="2"/>
<line y1="11.4286" x2="24" y2="11.4286" stroke="white" stroke-width="2"/>
<line y1="20" x2="24" y2="20" stroke="white" stroke-width="2"/>
<path d="M8.42843 3.42857C8.42843 4.76983 7.34112 5.85714 5.99986 5.85714C4.6586 5.85714 3.57129 4.76983 3.57129 3.42857C3.57129 2.08731 4.6586 1 5.99986 1C7.34112 1 8.42843 2.08731 8.42843 3.42857Z" fill="url(#paint0_linear_1571_84345)" stroke="white" stroke-width="2"/>
<path d="M11.8571 20.5714C11.8571 21.9127 10.7698 23 9.42857 23C8.08731 23 7 21.9127 7 20.5714C7 19.2301 8.08731 18.1428 9.42857 18.1428C10.7698 18.1428 11.8571 19.2301 11.8571 20.5714Z" fill="url(#paint1_linear_1571_84345)" stroke="white" stroke-width="2"/>
<circle cx="20.5716" cy="12" r="2.42857" fill="url(#paint2_linear_1571_84345)" stroke="white" stroke-width="2"/>
<defs>
<linearGradient id="paint0_linear_1571_84345" x1="2.57129" y1="3.42597" x2="9.42843" y2="3.42597" gradientUnits="userSpaceOnUse">
<stop stop-color="#BF08C0"/>
<stop offset="0.833333" stop-color="#6F19F7"/>
</linearGradient>
<linearGradient id="paint1_linear_1571_84345" x1="6" y1="20.5688" x2="12.8571" y2="20.5688" gradientUnits="userSpaceOnUse">
<stop stop-color="#BF08C0"/>
<stop offset="0.833333" stop-color="#6F19F7"/>
</linearGradient>
<linearGradient id="paint2_linear_1571_84345" x1="17.1431" y1="11.9974" x2="24.0002" y2="11.9974" gradientUnits="userSpaceOnUse">
<stop stop-color="#BF08C0"/>
<stop offset="0.833333" stop-color="#6F19F7"/>
</linearGradient>
</defs>
</svg>
