<svg width="25" height="26" viewBox="0 0 25 26" fill="none" xmlns="http://www.w3.org/2000/svg">
<path d="M22 1.41421L23.3132 2.72741L17.4947 8.54594L16.1815 8.54594L16.1815 7.23274L22 1.41421Z" fill="url(#paint0_linear_1571_84346)" stroke="white" stroke-width="2"/>
<line x1="20.7686" y1="1.91338" x2="23.1551" y2="4.29986" stroke="white" stroke-width="2"/>
<mask id="path-3-outside-1_1571_84346" maskUnits="userSpaceOnUse" x="0.714355" y="1.85718" width="23" height="24" fill="black">
<rect fill="white" x="0.714355" y="1.85718" width="23" height="24"/>
<path fill-rule="evenodd" clip-rule="evenodd" d="M18.1429 3.85718H2.71436V23.1429H19.4286V8.02628L17.909 9.54598L15.1815 9.54598V6.81856L18.1429 3.85718Z"/>
</mask>
<path d="M2.71436 3.85718V1.85718H0.714355V3.85718H2.71436ZM18.1429 3.85718L19.5571 5.27139L22.9714 1.85718H18.1429V3.85718ZM2.71436 23.1429H0.714355V25.1429H2.71436V23.1429ZM19.4286 23.1429V25.1429H21.4286V23.1429H19.4286ZM19.4286 8.02628H21.4286V3.19786L18.0144 6.61207L19.4286 8.02628ZM17.909 9.54598V11.546H18.7374L19.3232 10.9602L17.909 9.54598ZM15.1815 9.54598H13.1815V11.546L15.1815 11.546V9.54598ZM15.1815 6.81856L13.7673 5.40435L13.1815 5.99014V6.81856H15.1815ZM2.71436 5.85718H18.1429V1.85718H2.71436V5.85718ZM4.71436 23.1429V3.85718H0.714355V23.1429H4.71436ZM19.4286 21.1429H2.71436V25.1429H19.4286V21.1429ZM17.4286 8.02628V23.1429H21.4286V8.02628H17.4286ZM18.0144 6.61207L16.4947 8.13176L19.3232 10.9602L20.8429 9.4405L18.0144 6.61207ZM17.909 7.54598L15.1815 7.54598V11.546L17.909 11.546V7.54598ZM17.1815 9.54598V6.81856H13.1815V9.54598H17.1815ZM16.5958 8.23278L19.5571 5.27139L16.7287 2.44296L13.7673 5.40435L16.5958 8.23278Z" fill="white" mask="url(#path-3-outside-1_1571_84346)"/>
<line x1="5.28564" y1="7.57141" x2="13.4285" y2="7.57141" stroke="white" stroke-width="2"/>
<line x1="5.28564" y1="11.4286" x2="16.8571" y2="11.4286" stroke="white" stroke-width="2"/>
<line x1="5.28564" y1="15.2858" x2="16.8571" y2="15.2858" stroke="white" stroke-width="2"/>
<line x1="5.28564" y1="19.1428" x2="16.8571" y2="19.1428" stroke="white" stroke-width="2"/>
<defs>
<linearGradient id="paint0_linear_1571_84346" x1="17.912" y1="4.08801" x2="20.6394" y2="6.81542" gradientUnits="userSpaceOnUse">
<stop stop-color="#BF08C0"/>
<stop offset="0.833333" stop-color="#6F19F7"/>
</linearGradient>
</defs>
</svg>
