<svg width="96" height="172" viewBox="0 0 96 172" fill="none" xmlns="http://www.w3.org/2000/svg">
<path d="M69 21.4142L73.9497 26.364L59.0398 41.2739L54.0901 41.2739L54.0901 36.3241L69 21.4142Z" fill="url(#paint0_linear_895_17311)" stroke="white" stroke-width="2"/>
<line x1="65.1837" y1="25.4074" x2="70.7521" y2="30.9759" stroke="white" stroke-width="2"/>
<mask id="path-4-outside-1_895_17311" maskUnits="userSpaceOnUse" x="22" y="27" width="43" height="49" fill="black">
<rect fill="white" x="22" y="27" width="43" height="49"/>
<path fill-rule="evenodd" clip-rule="evenodd" d="M60 29H24V74H63V38.7279L59.4541 42.2739H53.0901V35.9099L60 29Z"/>
</mask>
<path d="M24 29V27H22V29H24ZM60 29L61.4142 30.4142L64.8284 27H60V29ZM24 74H22V76H24V74ZM63 74V76H65V74H63ZM63 38.7279H65V33.8995L61.5858 37.3137L63 38.7279ZM59.4541 42.2739V44.2739H60.2825L60.8683 43.6881L59.4541 42.2739ZM53.0901 42.2739H51.0901V44.2739H53.0901V42.2739ZM53.0901 35.9099L51.6759 34.4957L51.0901 35.0815V35.9099H53.0901ZM24 31H60V27H24V31ZM26 74V29H22V74H26ZM63 72H24V76H63V72ZM61 38.7279V74H65V38.7279H61ZM61.5858 37.3137L58.0398 40.8596L60.8683 43.6881L64.4142 40.1421L61.5858 37.3137ZM59.4541 40.2739H53.0901V44.2739H59.4541V40.2739ZM55.0901 42.2739V35.9099H51.0901V42.2739H55.0901ZM54.5043 37.3241L61.4142 30.4142L58.5858 27.5858L51.6759 34.4957L54.5043 37.3241Z" fill="white" mask="url(#path-4-outside-1_895_17311)"/>
<line x1="30" y1="39" x2="49" y2="39" stroke="white" stroke-width="2"/>
<line x1="30" y1="48" x2="57" y2="48" stroke="white" stroke-width="2"/>
<line x1="30" y1="57" x2="57" y2="57" stroke="white" stroke-width="2"/>
<line x1="30" y1="66" x2="57" y2="66" stroke="white" stroke-width="2"/>
<path d="M69 97.4142L73.9497 102.364L59.0398 117.274L54.0901 117.274L54.0901 112.324L69 97.4142Z" fill="url(#paint1_linear_895_17311)" stroke="#020216" stroke-width="2"/>
<line x1="65.1837" y1="101.407" x2="70.7521" y2="106.976" stroke="#020216" stroke-width="2"/>
<mask id="path-12-outside-2_895_17311" maskUnits="userSpaceOnUse" x="22" y="103" width="43" height="49" fill="black">
<rect fill="white" x="22" y="103" width="43" height="49"/>
<path fill-rule="evenodd" clip-rule="evenodd" d="M60 105H24V150H63V114.728L59.4541 118.274H53.0901V111.91L60 105Z"/>
</mask>
<path d="M24 105V103H22V105H24ZM60 105L61.4142 106.414L64.8284 103H60V105ZM24 150H22V152H24V150ZM63 150V152H65V150H63ZM63 114.728H65V109.899L61.5858 113.314L63 114.728ZM59.4541 118.274V120.274H60.2825L60.8683 119.688L59.4541 118.274ZM53.0901 118.274H51.0901V120.274H53.0901V118.274ZM53.0901 111.91L51.6759 110.496L51.0901 111.081V111.91H53.0901ZM24 107H60V103H24V107ZM26 150V105H22V150H26ZM63 148H24V152H63V148ZM61 114.728V150H65V114.728H61ZM61.5858 113.314L58.0398 116.86L60.8683 119.688L64.4142 116.142L61.5858 113.314ZM59.4541 116.274H53.0901V120.274H59.4541V116.274ZM55.0901 118.274V111.91H51.0901V118.274H55.0901ZM54.5043 113.324L61.4142 106.414L58.5858 103.586L51.6759 110.496L54.5043 113.324Z" fill="#020216" mask="url(#path-12-outside-2_895_17311)"/>
<line x1="30" y1="115" x2="49" y2="115" stroke="#020216" stroke-width="2"/>
<line x1="30" y1="124" x2="57" y2="124" stroke="#020216" stroke-width="2"/>
<line x1="30" y1="133" x2="57" y2="133" stroke="#020216" stroke-width="2"/>
<line x1="30" y1="142" x2="57" y2="142" stroke="#020216" stroke-width="2"/>
<rect x="0.5" y="0.5" width="95" height="171" rx="4.5" stroke="#9747FF" stroke-dasharray="10 5"/>
<defs>
<linearGradient id="paint0_linear_895_17311" x1="59.4613" y1="29.5387" x2="65.8253" y2="35.9027" gradientUnits="userSpaceOnUse">
<stop stop-color="#BF08C0"/>
<stop offset="0.833333" stop-color="#6F19F7"/>
</linearGradient>
<linearGradient id="paint1_linear_895_17311" x1="59.4613" y1="105.539" x2="65.8253" y2="111.903" gradientUnits="userSpaceOnUse">
<stop stop-color="#BF08C0"/>
<stop offset="0.833333" stop-color="#6F19F7"/>
</linearGradient>
</defs>
</svg>
