<svg width="96" height="172" viewBox="0 0 96 172" fill="none" xmlns="http://www.w3.org/2000/svg">
<line x1="40" y1="28" x2="76" y2="28" stroke="white" stroke-width="2"/>
<line x1="40" y1="48" x2="76" y2="48" stroke="white" stroke-width="2"/>
<line x1="40" y1="68" x2="76" y2="68" stroke="white" stroke-width="2"/>
<circle cx="28" cy="28" r="7" fill="url(#paint0_linear_894_17259)" stroke="white" stroke-width="2"/>
<circle cx="28" cy="68" r="7" fill="url(#paint1_linear_894_17259)" stroke="white" stroke-width="2"/>
<circle cx="28" cy="48" r="7" fill="url(#paint2_linear_894_17259)" stroke="white" stroke-width="2"/>
<line x1="40" y1="104" x2="76" y2="104" stroke="#020216" stroke-width="2"/>
<line x1="40" y1="124" x2="76" y2="124" stroke="#020216" stroke-width="2"/>
<line x1="40" y1="144" x2="76" y2="144" stroke="#020216" stroke-width="2"/>
<circle cx="28" cy="104" r="7" fill="url(#paint3_linear_894_17259)" stroke="#020216" stroke-width="2"/>
<circle cx="28" cy="144" r="7" fill="url(#paint4_linear_894_17259)" stroke="#020216" stroke-width="2"/>
<circle cx="28" cy="124" r="7" fill="url(#paint5_linear_894_17259)" stroke="#020216" stroke-width="2"/>
<rect x="0.5" y="0.5" width="95" height="171" rx="4.5" stroke="#9747FF" stroke-dasharray="10 5"/>
<defs>
<linearGradient id="paint0_linear_894_17259" x1="20" y1="27.9939" x2="36" y2="27.9939" gradientUnits="userSpaceOnUse">
<stop stop-color="#BF08C0"/>
<stop offset="0.833333" stop-color="#6F19F7"/>
</linearGradient>
<linearGradient id="paint1_linear_894_17259" x1="20" y1="67.9939" x2="36" y2="67.9939" gradientUnits="userSpaceOnUse">
<stop stop-color="#BF08C0"/>
<stop offset="0.833333" stop-color="#6F19F7"/>
</linearGradient>
<linearGradient id="paint2_linear_894_17259" x1="20" y1="47.9939" x2="36" y2="47.9939" gradientUnits="userSpaceOnUse">
<stop stop-color="#BF08C0"/>
<stop offset="0.833333" stop-color="#6F19F7"/>
</linearGradient>
<linearGradient id="paint3_linear_894_17259" x1="28" y1="96" x2="28" y2="112" gradientUnits="userSpaceOnUse">
<stop stop-color="#BF08C0" stop-opacity="0.25"/>
<stop offset="1" stop-color="#B301FC" stop-opacity="0.75"/>
</linearGradient>
<linearGradient id="paint4_linear_894_17259" x1="28" y1="136" x2="28" y2="152" gradientUnits="userSpaceOnUse">
<stop stop-color="#BF08C0" stop-opacity="0.25"/>
<stop offset="1" stop-color="#B301FC" stop-opacity="0.75"/>
</linearGradient>
<linearGradient id="paint5_linear_894_17259" x1="28" y1="116" x2="28" y2="132" gradientUnits="userSpaceOnUse">
<stop stop-color="#BF08C0" stop-opacity="0.25"/>
<stop offset="1" stop-color="#B301FC" stop-opacity="0.75"/>
</linearGradient>
</defs>
</svg>
