<svg width="24" height="24" viewBox="0 0 24 24" fill="none" xmlns="http://www.w3.org/2000/svg">
<path d="M17.5059 2.22998L6.02549 5.73849L5.99953 21.9999" stroke="#020216" stroke-width="2"/>
<mask id="path-2-inside-1_662_16806" fill="white">
<path fill-rule="evenodd" clip-rule="evenodd" d="M10.2417 18.4173L6.18537 5.00042L18.8625 10.9802L15.6296 13.7692L18.4183 17.0017L16.2631 18.861L13.4744 15.6285L10.2417 18.4173Z"/>
</mask>
<path fill-rule="evenodd" clip-rule="evenodd" d="M10.2417 18.4173L6.18537 5.00042L18.8625 10.9802L15.6296 13.7692L18.4183 17.0017L16.2631 18.861L13.4744 15.6285L10.2417 18.4173Z" fill="url(#paint0_linear_662_16806)"/>
<path d="M6.18537 5.00042L7.03861 3.19156L2.96867 1.27176L4.27095 5.57921L6.18537 5.00042ZM10.2417 18.4173L8.32731 18.9961L9.21793 21.9419L11.5482 19.9316L10.2417 18.4173ZM18.8625 10.9802L20.1689 12.4946L22.4991 10.4843L19.7157 9.17135L18.8625 10.9802ZM15.6296 13.7692L14.3232 12.2548L12.8088 13.5613L14.1153 15.0756L15.6296 13.7692ZM18.4183 17.0017L19.7247 18.5161L21.2391 17.2097L19.9327 15.6953L18.4183 17.0017ZM16.2631 18.861L14.7488 20.1674L16.0552 21.6818L17.5695 20.3754L16.2631 18.861ZM13.4744 15.6285L14.9888 14.322L13.6823 12.8077L12.168 14.1141L13.4744 15.6285ZM4.27095 5.57921L8.32731 18.9961L12.1561 17.8385L8.09979 4.42163L4.27095 5.57921ZM19.7157 9.17135L7.03861 3.19156L5.33213 6.80928L18.0092 12.7891L19.7157 9.17135ZM16.936 15.2835L20.1689 12.4946L17.556 9.46586L14.3232 12.2548L16.936 15.2835ZM14.1153 15.0756L16.904 18.3082L19.9327 15.6953L17.144 12.4628L14.1153 15.0756ZM17.1119 15.4874L14.9567 17.3467L17.5695 20.3754L19.7247 18.5161L17.1119 15.4874ZM17.7775 17.5546L14.9888 14.322L11.9601 16.9349L14.7488 20.1674L17.7775 17.5546ZM11.5482 19.9316L14.7808 17.1428L12.168 14.1141L8.9353 16.903L11.5482 19.9316Z" fill="#020216" mask="url(#path-2-inside-1_662_16806)"/>
<defs>
<linearGradient id="paint0_linear_662_16806" x1="6.18537" y1="5.00042" x2="17.3408" y2="17.9313" gradientUnits="userSpaceOnUse">
<stop stop-color="#BF08C0" stop-opacity="0.25"/>
<stop offset="1" stop-color="#B301FC" stop-opacity="0.75"/>
</linearGradient>
</defs>
</svg>
