<svg width="24" height="24" viewBox="0 0 24 24" fill="none" xmlns="http://www.w3.org/2000/svg">
<circle cx="19.2856" cy="19.2857" r="3.71429" stroke="#020216" stroke-width="2"/>
<circle cx="8.57122" cy="8.57146" r="3.71429" fill="url(#paint0_linear_1571_84176)" stroke="#020216" stroke-width="2"/>
<path fill-rule="evenodd" clip-rule="evenodd" d="M11.7917 12.0146C11.2948 12.4795 10.6973 12.8381 10.0353 13.0541C10.5423 13.5473 10.8573 14.2369 10.8573 15C10.8573 16.4991 9.64205 17.7143 8.143 17.7143C6.64394 17.7143 5.42871 16.4991 5.42871 15C5.42871 14.1069 5.86005 13.3146 6.52578 12.8199C5.90307 12.5195 5.3565 12.0862 4.92286 11.5569C4.00336 12.4172 3.42871 13.6415 3.42871 15C3.42871 17.6037 5.53937 19.7143 8.143 19.7143C10.7466 19.7143 12.8573 17.6037 12.8573 15C12.8573 13.8671 12.4577 12.8276 11.7917 12.0146Z" fill="#020216"/>
<path fill-rule="evenodd" clip-rule="evenodd" d="M18.5713 6.42852C18.5713 7.92758 17.3561 9.14281 15.857 9.14281C14.3579 9.14281 13.1427 7.92758 13.1427 6.42852C13.1427 4.92946 14.3579 3.71423 15.857 3.71423C17.3561 3.71423 18.5713 4.92946 18.5713 6.42852ZM20.5713 6.42852C20.5713 9.03215 18.4606 11.1428 15.857 11.1428C14.7845 11.1428 13.7956 10.7847 13.0035 10.1814C13.186 9.67904 13.2856 9.13683 13.2856 8.57138C13.2856 7.04027 12.5557 5.67964 11.4248 4.81847C12.0828 3.00766 13.8188 1.71423 15.857 1.71423C18.4606 1.71423 20.5713 3.82489 20.5713 6.42852Z" fill="#020216"/>
<path fill-rule="evenodd" clip-rule="evenodd" d="M7.33894 4.01989C7.03215 2.85724 5.97333 2 4.71429 2C3.21523 2 2 3.21523 2 4.71429C2 5.97333 2.85724 7.03215 4.01989 7.33894C3.91376 7.73181 3.85714 8.145 3.85714 8.57143C3.85714 8.841 3.87977 9.10528 3.92322 9.36249C1.69622 8.98623 0 7.04834 0 4.71429C0 2.11066 2.11066 0 4.71429 0C7.04834 0 8.98623 1.69622 9.36249 3.92322C9.10528 3.87977 8.841 3.85714 8.57143 3.85714C8.145 3.85714 7.73181 3.91376 7.33894 4.01989Z" fill="#020216"/>
<defs>
<linearGradient id="paint0_linear_1571_84176" x1="8.57122" y1="3.85718" x2="8.57122" y2="13.2857" gradientUnits="userSpaceOnUse">
<stop stop-color="#BF08C0" stop-opacity="0.25"/>
<stop offset="1" stop-color="#B301FC" stop-opacity="0.75"/>
</linearGradient>
</defs>
</svg>
