<svg width="24" height="24" viewBox="0 0 24 24" fill="none" xmlns="http://www.w3.org/2000/svg">
<mask id="path-1-inside-1_1571_84207" fill="white">
<path fill-rule="evenodd" clip-rule="evenodd" d="M0 24C0.5 21 1.5 17 2.5 15C2.51763 14.9647 2.53616 14.9276 2.55558 14.8887C3.63811 12.7205 7.49264 5 12 5C16.5074 5 20.3619 12.7205 21.4444 14.8887C21.4638 14.9276 21.4824 14.9647 21.5 15C22.5 17 23.5 21 24 24H12H0Z"/>
</mask>
<path fill-rule="evenodd" clip-rule="evenodd" d="M0 24C0.5 21 1.5 17 2.5 15C2.51763 14.9647 2.53616 14.9276 2.55558 14.8887C3.63811 12.7205 7.49264 5 12 5C16.5074 5 20.3619 12.7205 21.4444 14.8887C21.4638 14.9276 21.4824 14.9647 21.5 15C22.5 17 23.5 21 24 24H12H0Z" fill="url(#paint0_linear_1571_84207)"/>
<path d="M0 24L-1.97279 23.6712L-2.36092 26H0V24ZM2.55558 14.8887L4.34496 15.7821L4.34496 15.7821L2.55558 14.8887ZM21.4444 14.8887L19.655 15.7821L19.655 15.7821L21.4444 14.8887ZM21.5 15L23.2889 14.1056L23.2888 14.1055L21.5 15ZM24 24V26H26.3609L25.9728 23.6712L24 24ZM0.711146 14.1056C-0.429386 16.3866 -1.46668 20.6346 -1.97279 23.6712L1.97279 24.3288C2.46668 21.3654 3.42939 17.6134 4.28885 15.8944L0.711146 14.1056ZM0.766202 13.9953C0.746714 14.0344 0.728459 14.0709 0.711146 14.1056L4.28885 15.8944C4.30679 15.8585 4.3256 15.8209 4.34496 15.7821L0.766202 13.9953ZM12 3C10.2903 3 8.79041 3.73034 7.57644 4.63912C6.3581 5.55117 5.29037 6.74366 4.39749 7.92593C2.612 10.2901 1.3064 12.9133 0.766199 13.9954L4.34496 15.7821C4.88729 14.6958 6.05022 12.3747 7.58947 10.3366C8.35895 9.31771 9.16765 8.44458 9.97356 7.84128C10.7838 7.23471 11.456 7 12 7V3ZM12 7C12.544 7 13.2162 7.23471 14.0264 7.84128C14.8324 8.44458 15.641 9.31771 16.4105 10.3366C17.9498 12.3747 19.1127 14.6958 19.655 15.7821L23.2338 13.9954C22.6936 12.9133 21.388 10.2901 19.6025 7.92593C18.7096 6.74366 17.6419 5.55116 16.4236 4.63912C15.2096 3.73034 13.7097 3 12 3V7ZM19.655 15.7821C19.6744 15.8209 19.6932 15.8586 19.7112 15.8945L23.2888 14.1055C23.2715 14.0709 23.2533 14.0344 23.2338 13.9953L19.655 15.7821ZM19.7111 15.8944C20.5706 17.6134 21.5333 21.3654 22.0272 24.3288L25.9728 23.6712C25.4667 20.6346 24.4294 16.3866 23.2889 14.1056L19.7111 15.8944ZM24 22H12V26H24V22ZM0 26H12V22H0V26Z" fill="#020216" mask="url(#path-1-inside-1_1571_84207)"/>
<path fill-rule="evenodd" clip-rule="evenodd" d="M20 7.77553L19.9768 7.79019L19.1312 8.32404C19.4417 8.81592 19.7321 9.30159 20 9.76759V7.77553ZM4 9.76741C4.26787 9.30146 4.55819 8.81586 4.86869 8.32404L4.02311 7.79019L4 7.7756V9.76741ZM18.8055 6.0535L19.6156 5.46718C19.1947 4.88568 18.7488 4.31403 18.2812 3.77238L17.5243 4.42587L16.7674 5.07935C17.1917 5.57092 17.6023 6.09664 17.9954 6.63982L18.8055 6.0535ZM16.1105 2.96759L16.7805 2.22516C16.2266 1.72538 15.6509 1.2856 15.0574 0.931837L14.5454 1.79081L14.0333 2.64978C14.492 2.92316 14.9628 3.2789 15.4406 3.71001L16.1105 2.96759ZM12.8571 1.09474L13.0701 0.117702C12.7173 0.0407776 12.3604 0 11.9999 0C11.6395 0 11.2826 0.0407778 10.9298 0.117703L11.1428 1.09474L11.3559 2.07179C11.5773 2.0235 11.7914 2 11.9999 2C12.2085 2 12.4226 2.0235 12.644 2.07179L12.8571 1.09474ZM9.45454 1.79081L8.94252 0.931839C8.34904 1.2856 7.77329 1.72538 7.21943 2.22516L7.88936 2.96759L8.55929 3.71001C9.03705 3.2789 9.50794 2.92316 9.96656 2.64978L9.45454 1.79081ZM6.47561 4.42587L5.71867 3.77239C5.25105 4.31403 4.80519 4.88568 4.38431 5.46718L5.19439 6.0535L6.00447 6.63982C6.39761 6.09665 6.80816 5.57092 7.23254 5.07936L6.47561 4.42587Z" fill="#020216"/>
<defs>
<linearGradient id="paint0_linear_1571_84207" x1="12" y1="5" x2="12" y2="24" gradientUnits="userSpaceOnUse">
<stop stop-color="#BF08C0" stop-opacity="0.25"/>
<stop offset="1" stop-color="#B301FC" stop-opacity="0.75"/>
</linearGradient>
</defs>
</svg>
