<svg width="24" height="24" viewBox="0 0 24 24" fill="none" xmlns="http://www.w3.org/2000/svg">
<mask id="path-1-inside-1_662_15794" fill="white">
<path fill-rule="evenodd" clip-rule="evenodd" d="M2 16C3.4134 13.6291 3.64067 10.936 3.85092 8.44448C4.23571 3.88479 4.56354 0 12 0C19.4365 0 19.7643 3.88479 20.1491 8.44448C20.3593 10.936 20.5866 13.6291 22 16C23.1046 16 24 16.8954 24 18C24 19.1046 23.1046 20 22 20H2C0.89543 20 0 19.1046 0 18C0 16.8954 0.895431 16 2 16Z"/>
</mask>
<path d="M3.85092 8.44448L1.85801 8.2763L3.85092 8.44448ZM2 16V18H3.13612L3.71789 17.0241L2 16ZM20.1491 8.44448L18.1562 8.61266V8.61266L20.1491 8.44448ZM22 16L20.2821 17.0241L20.8639 18H22V16ZM1.85801 8.2763C1.64171 10.8395 1.42235 13.0632 0.282106 14.9759L3.71789 17.0241C5.40446 14.1951 5.63963 11.0326 5.84384 8.61266L1.85801 8.2763ZM12 -2C7.95901 -2 5.22242 -0.932445 3.63303 1.37925C2.21205 3.446 2.03658 6.16017 1.85801 8.2763L5.84384 8.61266C6.05005 6.1691 6.23089 4.66103 6.92913 3.64546C7.45897 2.87484 8.60453 2 12 2V-2ZM22.142 8.2763C21.9634 6.16017 21.788 3.446 20.367 1.37925C18.7776 -0.932445 16.041 -2 12 -2V2C15.3955 2 16.541 2.87484 17.0709 3.64546C17.7691 4.66103 17.95 6.1691 18.1562 8.61266L22.142 8.2763ZM23.7179 14.9759C22.5777 13.0632 22.3583 10.8395 22.142 8.2763L18.1562 8.61266C18.3604 11.0326 18.5955 14.1951 20.2821 17.0241L23.7179 14.9759ZM22 18H26C26 15.7909 24.2091 14 22 14V18ZM22 18V22C24.2091 22 26 20.2091 26 18H22ZM22 18H2V22H22V18ZM2 18H2H-2C-2 20.2091 -0.20914 22 2 22V18ZM2 18V14C-0.209138 14 -2 15.7909 -2 18H2Z" fill="white" mask="url(#path-1-inside-1_662_15794)"/>
<mask id="path-3-inside-2_662_15794" fill="white">
<path fill-rule="evenodd" clip-rule="evenodd" d="M6 18C6.33367 20.8125 8.89267 23 12 23C15.1073 23 17.6663 20.8125 18 18H6Z"/>
</mask>
<path fill-rule="evenodd" clip-rule="evenodd" d="M6 18C6.33367 20.8125 8.89267 23 12 23C15.1073 23 17.6663 20.8125 18 18H6Z" fill="url(#paint0_linear_662_15794)"/>
<path d="M6 18V16H3.7487L4.01393 18.2356L6 18ZM18 18L19.9861 18.2356L20.2513 16H18V18ZM12 21C9.80527 21 8.18883 19.4734 7.98607 17.7644L4.01393 18.2356C4.4785 22.1515 7.98007 25 12 25V21ZM16.0139 17.7644C15.8112 19.4734 14.1947 21 12 21V25C16.0199 25 19.5215 22.1515 19.9861 18.2356L16.0139 17.7644ZM18 16H6V20H18V16Z" fill="white" mask="url(#path-3-inside-2_662_15794)"/>
<defs>
<linearGradient id="paint0_linear_662_15794" x1="6" y1="20.4981" x2="18" y2="20.4981" gradientUnits="userSpaceOnUse">
<stop stop-color="#BF08C0"/>
<stop offset="0.833333" stop-color="#6F19F7"/>
</linearGradient>
</defs>
</svg>
