<svg width="32" height="32" viewBox="0 0 32 32" fill="none" xmlns="http://www.w3.org/2000/svg">
<path d="M30.5 11.0005L16 0.500488L19 12.0005H26L25.5 14.0005L20.5 17.5005L21.5 20.0005L22.5 25.0005L16 21.0005L7 28.5005L11 32.0005H21H24.5H27.5H32V21.0005V12.0005L30.5 11.0005Z" fill="url(#paint0_linear_659_15806)"/>
<path d="M16 3.23607L18.6412 11.3647L18.8657 12.0557H19.5922H28.1392L21.2246 17.0795L20.6368 17.5066L20.8613 18.1976L23.5024 26.3262L16.5878 21.3024L16 20.8754L15.4122 21.3024L8.49755 26.3262L11.1387 18.1976L11.3632 17.5066L10.7754 17.0795L3.86078 12.0557H12.4078H13.1343L13.3588 11.3647L16 3.23607Z" stroke="#F9F9F9" stroke-width="2"/>
<defs>
<linearGradient id="paint0_linear_659_15806" x1="7" y1="16.2385" x2="32" y2="16.2385" gradientUnits="userSpaceOnUse">
<stop stop-color="#BF08C0"/>
<stop offset="0.833333" stop-color="#6F19F7"/>
</linearGradient>
</defs>
</svg>
