<svg width="32" height="32" viewBox="0 0 32 32" fill="none" xmlns="http://www.w3.org/2000/svg">
<path d="M7 22.4545L13 19.7272V26.8181L7 29.5454V22.4545Z" stroke="#020216" stroke-width="2" stroke-linejoin="round"/>
<path d="M7 22.4545L1 19.7272V26.8181L7 29.5454V22.4545Z" stroke="#F9F9F9" stroke-width="2" stroke-linejoin="round"/>
<path d="M7 16.9999L7.4138 16.0896C7.15088 15.9701 6.84912 15.9701 6.5862 16.0896L7 16.9999ZM1 19.7272L0.586197 18.8169C0.229203 18.9791 0 19.3351 0 19.7272C0 20.1194 0.229203 20.4753 0.586197 20.6376L1 19.7272ZM13 19.7272L13.4138 20.6376C13.7708 20.4753 14 20.1194 14 19.7272C14 19.3351 13.7708 18.9791 13.4138 18.8169L13 19.7272ZM7 22.4545L6.5862 23.3649C6.84912 23.4844 7.15088 23.4844 7.4138 23.3649L7 22.4545ZM6.5862 16.0896L0.586197 18.8169L1.4138 20.6376L7.4138 17.9103L6.5862 16.0896ZM13.4138 18.8169L7.4138 16.0896L6.5862 17.9103L12.5862 20.6376L13.4138 18.8169ZM12.5862 18.8169L6.5862 21.5441L7.4138 23.3649L13.4138 20.6376L12.5862 18.8169ZM7.4138 21.5441L1.4138 18.8169L0.586197 20.6376L6.5862 23.3649L7.4138 21.5441Z" fill="#F9F9F9"/>
<path d="M7 22.4544L1 19.7272V26.8181L7 29.5454V22.4544Z" fill="url(#paint0_linear_662_16797)" stroke="#020216" stroke-width="2" stroke-linejoin="round"/>
<path fill-rule="evenodd" clip-rule="evenodd" d="M1 19.7272L7 16.9999L13 19.7272L7 22.4545L1 19.7272Z" fill="url(#paint1_linear_662_16797)"/>
<path d="M7 16.9999L7.4138 16.0896C7.15088 15.9701 6.84912 15.9701 6.5862 16.0896L7 16.9999ZM1 19.7272L0.586197 18.8169C0.229203 18.9791 0 19.3351 0 19.7272C0 20.1194 0.229203 20.4753 0.586197 20.6376L1 19.7272ZM13 19.7272L13.4138 20.6376C13.7708 20.4753 14 20.1194 14 19.7272C14 19.3351 13.7708 18.9791 13.4138 18.8169L13 19.7272ZM7 22.4545L6.5862 23.3649C6.84912 23.4844 7.15088 23.4844 7.4138 23.3649L7 22.4545ZM6.5862 16.0896L0.586197 18.8169L1.4138 20.6376L7.4138 17.9103L6.5862 16.0896ZM13.4138 18.8169L7.4138 16.0896L6.5862 17.9103L12.5862 20.6376L13.4138 18.8169ZM12.5862 18.8169L6.5862 21.5441L7.4138 23.3649L13.4138 20.6376L12.5862 18.8169ZM7.4138 21.5441L1.4138 18.8169L0.586197 20.6376L6.5862 23.3649L7.4138 21.5441Z" fill="#020216"/>
<path d="M25 22.4545L31 19.7272V26.8181L25 29.5454V22.4545Z" stroke="#020216" stroke-width="2" stroke-linejoin="round"/>
<path d="M25 22.4545L19 19.7272V26.8181L25 29.5454V22.4545Z" fill="url(#paint2_linear_662_16797)" stroke="#020216" stroke-width="2" stroke-linejoin="round"/>
<path fill-rule="evenodd" clip-rule="evenodd" d="M19 19.7272L25 16.9999L31 19.7272L25 22.4545L19 19.7272Z" fill="url(#paint3_linear_662_16797)"/>
<path d="M25 16.9999L25.4138 16.0896C25.1509 15.9701 24.8491 15.9701 24.5862 16.0896L25 16.9999ZM19 19.7272L18.5862 18.8169C18.2292 18.9791 18 19.3351 18 19.7272C18 20.1194 18.2292 20.4753 18.5862 20.6376L19 19.7272ZM31 19.7272L31.4138 20.6376C31.7708 20.4753 32 20.1194 32 19.7272C32 19.3351 31.7708 18.9791 31.4138 18.8169L31 19.7272ZM25 22.4545L24.5862 23.3649C24.8491 23.4844 25.1509 23.4844 25.4138 23.3649L25 22.4545ZM24.5862 16.0896L18.5862 18.8169L19.4138 20.6376L25.4138 17.9103L24.5862 16.0896ZM31.4138 18.8169L25.4138 16.0896L24.5862 17.9103L30.5862 20.6376L31.4138 18.8169ZM30.5862 18.8169L24.5862 21.5441L25.4138 23.3649L31.4138 20.6376L30.5862 18.8169ZM25.4138 21.5441L19.4138 18.8169L18.5862 20.6376L24.5862 23.3649L25.4138 21.5441Z" fill="#020216"/>
<path d="M16 7.45449L22 4.72722V11.8181L16 14.5454V7.45449Z" stroke="#020216" stroke-width="2" stroke-linejoin="round"/>
<path d="M16 7.45449L10 4.72722V11.8181L16 14.5454V7.45449Z" fill="url(#paint4_linear_662_16797)" stroke="#020216" stroke-width="2" stroke-linejoin="round"/>
<path fill-rule="evenodd" clip-rule="evenodd" d="M10 4.72722L16 1.99994L22 4.72722L16 7.45449L10 4.72722Z" fill="url(#paint5_linear_662_16797)"/>
<path d="M16 1.99994L16.4138 1.08958C16.1509 0.970067 15.8491 0.970067 15.5862 1.08958L16 1.99994ZM10 4.72722L9.5862 3.81685C9.2292 3.97912 9 4.33507 9 4.72722C9 5.11936 9.2292 5.47531 9.5862 5.63758L10 4.72722ZM22 4.72722L22.4138 5.63758C22.7708 5.47531 23 5.11936 23 4.72722C23 4.33507 22.7708 3.97912 22.4138 3.81685L22 4.72722ZM16 7.45449L15.5862 8.36486C15.8491 8.48437 16.1509 8.48437 16.4138 8.36486L16 7.45449ZM15.5862 1.08958L9.5862 3.81685L10.4138 5.63758L16.4138 2.91031L15.5862 1.08958ZM22.4138 3.81685L16.4138 1.08958L15.5862 2.91031L21.5862 5.63758L22.4138 3.81685ZM21.5862 3.81685L15.5862 6.54412L16.4138 8.36486L22.4138 5.63758L21.5862 3.81685ZM16.4138 6.54412L10.4138 3.81685L9.5862 5.63758L15.5862 8.36486L16.4138 6.54412Z" fill="#020216"/>
<defs>
<linearGradient id="paint0_linear_662_16797" x1="4" y1="19.7272" x2="4" y2="29.5454" gradientUnits="userSpaceOnUse">
<stop stop-color="#BF08C0" stop-opacity="0.25"/>
<stop offset="1" stop-color="#B301FC" stop-opacity="0.75"/>
</linearGradient>
<linearGradient id="paint1_linear_662_16797" x1="7" y1="17" x2="7" y2="22.4545" gradientUnits="userSpaceOnUse">
<stop stop-color="#BF08C0" stop-opacity="0.25"/>
<stop offset="1" stop-color="#B301FC" stop-opacity="0.75"/>
</linearGradient>
<linearGradient id="paint2_linear_662_16797" x1="22" y1="19.7272" x2="22" y2="29.5454" gradientUnits="userSpaceOnUse">
<stop stop-color="#BF08C0" stop-opacity="0.25"/>
<stop offset="1" stop-color="#B301FC" stop-opacity="0.75"/>
</linearGradient>
<linearGradient id="paint3_linear_662_16797" x1="25" y1="17" x2="25" y2="22.4545" gradientUnits="userSpaceOnUse">
<stop stop-color="#BF08C0" stop-opacity="0.25"/>
<stop offset="1" stop-color="#B301FC" stop-opacity="0.75"/>
</linearGradient>
<linearGradient id="paint4_linear_662_16797" x1="13" y1="4.72722" x2="13" y2="14.5454" gradientUnits="userSpaceOnUse">
<stop stop-color="#BF08C0" stop-opacity="0.25"/>
<stop offset="1" stop-color="#B301FC" stop-opacity="0.75"/>
</linearGradient>
<linearGradient id="paint5_linear_662_16797" x1="16" y1="2" x2="16" y2="7.45455" gradientUnits="userSpaceOnUse">
<stop stop-color="#BF08C0" stop-opacity="0.25"/>
<stop offset="1" stop-color="#B301FC" stop-opacity="0.75"/>
</linearGradient>
</defs>
</svg>
