<svg width="32" height="32" viewBox="0 0 32 32" fill="none" xmlns="http://www.w3.org/2000/svg">
<path d="M7 22.4545L13 19.7272V26.8181L7 29.5454V22.4545Z" stroke="#F9F9F9" stroke-width="2" stroke-linejoin="round"/>
<path d="M7 22.4545L1 19.7272V26.8181L7 29.5454V22.4545Z" stroke="#F9F9F9" stroke-width="2" stroke-linejoin="round"/>
<path d="M7 17L7.4138 16.0896C7.15088 15.9701 6.84912 15.9701 6.5862 16.0896L7 17ZM1 19.7273L0.586197 18.8169C0.229203 18.9792 0 19.3351 0 19.7273C0 20.1194 0.229203 20.4754 0.586197 20.6376L1 19.7273ZM13 19.7273L13.4138 20.6376C13.7708 20.4754 14 20.1194 14 19.7273C14 19.3351 13.7708 18.9792 13.4138 18.8169L13 19.7273ZM7 22.4545L6.5862 23.3649C6.84912 23.4844 7.15088 23.4844 7.4138 23.3649L7 22.4545ZM6.5862 16.0896L0.586197 18.8169L1.4138 20.6376L7.4138 17.9104L6.5862 16.0896ZM13.4138 18.8169L7.4138 16.0896L6.5862 17.9104L12.5862 20.6376L13.4138 18.8169ZM12.5862 18.8169L6.5862 21.5442L7.4138 23.3649L13.4138 20.6376L12.5862 18.8169ZM7.4138 21.5442L1.4138 18.8169L0.586197 20.6376L6.5862 23.3649L7.4138 21.5442Z" fill="#F9F9F9"/>
<path d="M7 22.4544L1 19.7272V26.8181L7 29.5454V22.4544Z" fill="url(#paint0_linear_659_15815)" stroke="#F9F9F9" stroke-width="2" stroke-linejoin="round"/>
<path fill-rule="evenodd" clip-rule="evenodd" d="M1 19.7273L7 17L13 19.7273L7 22.4545L1 19.7273Z" fill="url(#paint1_linear_659_15815)"/>
<path d="M7 17L7.4138 16.0896C7.15088 15.9701 6.84912 15.9701 6.5862 16.0896L7 17ZM1 19.7273L0.586197 18.8169C0.229203 18.9792 0 19.3351 0 19.7273C0 20.1194 0.229203 20.4754 0.586197 20.6376L1 19.7273ZM13 19.7273L13.4138 20.6376C13.7708 20.4754 14 20.1194 14 19.7273C14 19.3351 13.7708 18.9792 13.4138 18.8169L13 19.7273ZM7 22.4545L6.5862 23.3649C6.84912 23.4844 7.15088 23.4844 7.4138 23.3649L7 22.4545ZM6.5862 16.0896L0.586197 18.8169L1.4138 20.6376L7.4138 17.9104L6.5862 16.0896ZM13.4138 18.8169L7.4138 16.0896L6.5862 17.9104L12.5862 20.6376L13.4138 18.8169ZM12.5862 18.8169L6.5862 21.5442L7.4138 23.3649L13.4138 20.6376L12.5862 18.8169ZM7.4138 21.5442L1.4138 18.8169L0.586197 20.6376L6.5862 23.3649L7.4138 21.5442Z" fill="#F9F9F9"/>
<path d="M25 22.4545L31 19.7272V26.8181L25 29.5454V22.4545Z" stroke="#F9F9F9" stroke-width="2" stroke-linejoin="round"/>
<path d="M25 22.4545L19 19.7272V26.8181L25 29.5454V22.4545Z" fill="url(#paint2_linear_659_15815)" stroke="#F9F9F9" stroke-width="2" stroke-linejoin="round"/>
<path fill-rule="evenodd" clip-rule="evenodd" d="M19 19.7273L25 17L31 19.7273L25 22.4545L19 19.7273Z" fill="url(#paint3_linear_659_15815)"/>
<path d="M25 17L25.4138 16.0896C25.1509 15.9701 24.8491 15.9701 24.5862 16.0896L25 17ZM19 19.7273L18.5862 18.8169C18.2292 18.9792 18 19.3351 18 19.7273C18 20.1194 18.2292 20.4754 18.5862 20.6376L19 19.7273ZM31 19.7273L31.4138 20.6376C31.7708 20.4754 32 20.1194 32 19.7273C32 19.3351 31.7708 18.9792 31.4138 18.8169L31 19.7273ZM25 22.4545L24.5862 23.3649C24.8491 23.4844 25.1509 23.4844 25.4138 23.3649L25 22.4545ZM24.5862 16.0896L18.5862 18.8169L19.4138 20.6376L25.4138 17.9104L24.5862 16.0896ZM31.4138 18.8169L25.4138 16.0896L24.5862 17.9104L30.5862 20.6376L31.4138 18.8169ZM30.5862 18.8169L24.5862 21.5442L25.4138 23.3649L31.4138 20.6376L30.5862 18.8169ZM25.4138 21.5442L19.4138 18.8169L18.5862 20.6376L24.5862 23.3649L25.4138 21.5442Z" fill="#F9F9F9"/>
<path d="M16 7.45449L22 4.72722V11.8181L16 14.5454V7.45449Z" stroke="#F9F9F9" stroke-width="2" stroke-linejoin="round"/>
<path d="M16 7.45449L10 4.72722V11.8181L16 14.5454V7.45449Z" fill="url(#paint4_linear_659_15815)" stroke="#F9F9F9" stroke-width="2" stroke-linejoin="round"/>
<path fill-rule="evenodd" clip-rule="evenodd" d="M10 4.72727L16 2L22 4.72727L16 7.45455L10 4.72727Z" fill="url(#paint5_linear_659_15815)"/>
<path d="M16 2L16.4138 1.08963C16.1509 0.970122 15.8491 0.970122 15.5862 1.08963L16 2ZM10 4.72727L9.5862 3.81691C9.2292 3.97918 9 4.33513 9 4.72727C9 5.11942 9.2292 5.47537 9.5862 5.63764L10 4.72727ZM22 4.72727L22.4138 5.63764C22.7708 5.47537 23 5.11942 23 4.72727C23 4.33513 22.7708 3.97918 22.4138 3.81691L22 4.72727ZM16 7.45455L15.5862 8.36491C15.8491 8.48442 16.1509 8.48442 16.4138 8.36491L16 7.45455ZM15.5862 1.08963L9.5862 3.81691L10.4138 5.63764L16.4138 2.91037L15.5862 1.08963ZM22.4138 3.81691L16.4138 1.08963L15.5862 2.91037L21.5862 5.63764L22.4138 3.81691ZM21.5862 3.81691L15.5862 6.54418L16.4138 8.36491L22.4138 5.63764L21.5862 3.81691ZM16.4138 6.54418L10.4138 3.81691L9.5862 5.63764L15.5862 8.36491L16.4138 6.54418Z" fill="#F9F9F9"/>
<defs>
<linearGradient id="paint0_linear_659_15815" x1="7" y1="24.6325" x2="1" y2="24.6325" gradientUnits="userSpaceOnUse">
<stop stop-color="#BF08C0"/>
<stop offset="0.833333" stop-color="#6F19F7"/>
</linearGradient>
<linearGradient id="paint1_linear_659_15815" x1="1" y1="19.7252" x2="13" y2="19.7252" gradientUnits="userSpaceOnUse">
<stop stop-color="#BF08C0"/>
<stop offset="0.833333" stop-color="#6F19F7"/>
</linearGradient>
<linearGradient id="paint2_linear_659_15815" x1="25" y1="24.6326" x2="19" y2="24.6326" gradientUnits="userSpaceOnUse">
<stop stop-color="#BF08C0"/>
<stop offset="0.833333" stop-color="#6F19F7"/>
</linearGradient>
<linearGradient id="paint3_linear_659_15815" x1="19" y1="19.7252" x2="31" y2="19.7252" gradientUnits="userSpaceOnUse">
<stop stop-color="#BF08C0"/>
<stop offset="0.833333" stop-color="#6F19F7"/>
</linearGradient>
<linearGradient id="paint4_linear_659_15815" x1="16" y1="9.63258" x2="10" y2="9.63258" gradientUnits="userSpaceOnUse">
<stop stop-color="#BF08C0"/>
<stop offset="0.833333" stop-color="#6F19F7"/>
</linearGradient>
<linearGradient id="paint5_linear_659_15815" x1="10" y1="4.7252" x2="22" y2="4.7252" gradientUnits="userSpaceOnUse">
<stop stop-color="#BF08C0"/>
<stop offset="0.833333" stop-color="#6F19F7"/>
</linearGradient>
</defs>
</svg>
