<svg width="24" height="24" viewBox="0 0 24 24" fill="none" xmlns="http://www.w3.org/2000/svg">
<path fill-rule="evenodd" clip-rule="evenodd" d="M14.5404 4.1206C17.407 6.96057 17.407 11.5651 14.5404 14.405C11.6737 17.245 7.02597 17.245 4.15932 14.405C1.29267 11.5651 1.29267 6.96057 4.15932 4.1206C7.02597 1.28063 11.6737 1.28063 14.5404 4.1206ZM16.5292 15.1977C19.6015 11.5585 19.4122 6.13192 15.9612 2.71302C12.3098 -0.904339 6.38985 -0.904339 2.73851 2.71302C-0.912835 6.33037 -0.912835 12.1953 2.73851 15.8126C6.10995 19.1527 11.4156 19.4087 15.0835 16.5807L22.5725 24L23.9933 22.5924L16.5292 15.1977Z" fill="white"/>
</svg>
