<svg width="64" height="108" viewBox="0 0 64 108" fill="none" xmlns="http://www.w3.org/2000/svg">
<path d="M32 30.8081L42.2389 26.1541V38.2545L32 42.9085V30.8081Z" stroke="white" stroke-linejoin="round"/>
<path d="M32 30.8081L21.7611 26.1541V38.2545L32 42.9085V30.8081Z" fill="url(#paint0_linear_948_20764)" stroke="white" stroke-linejoin="round"/>
<path fill-rule="evenodd" clip-rule="evenodd" d="M21.7613 26.1541L32.0001 21.5001L42.239 26.1541L32.0001 30.8082L21.7613 26.1541Z" fill="url(#paint1_linear_948_20764)"/>
<path d="M32.0001 21.5001L32.207 21.0449C32.0756 20.9852 31.9247 20.9852 31.7932 21.0449L32.0001 21.5001ZM21.7613 26.1541L21.5544 25.6989C21.3759 25.7801 21.2613 25.9581 21.2613 26.1541C21.2613 26.3502 21.3759 26.5282 21.5544 26.6093L21.7613 26.1541ZM42.239 26.1541L42.4459 26.6093C42.6244 26.5282 42.739 26.3502 42.739 26.1541C42.739 25.9581 42.6244 25.7801 42.4459 25.6989L42.239 26.1541ZM32.0001 30.8082L31.7932 31.2633C31.9247 31.3231 32.0756 31.3231 32.207 31.2633L32.0001 30.8082ZM31.7932 21.0449L21.5544 25.6989L21.9682 26.6093L32.207 21.9553L31.7932 21.0449ZM42.4459 25.6989L32.207 21.0449L31.7932 21.9553L42.0321 26.6093L42.4459 25.6989ZM42.0321 25.6989L31.7932 30.353L32.207 31.2633L42.4459 26.6093L42.0321 25.6989ZM32.207 30.353L21.9682 25.6989L21.5544 26.6093L31.7932 31.2633L32.207 30.353Z" fill="white"/>
<path d="M32 74.8081L42.2389 70.1541V82.2545L32 86.9085V74.8081Z" stroke="#020216" stroke-linejoin="round"/>
<path d="M32 74.8081L21.7611 70.1541V82.2545L32 86.9085V74.8081Z" fill="url(#paint2_linear_948_20764)" stroke="#020216" stroke-linejoin="round"/>
<path fill-rule="evenodd" clip-rule="evenodd" d="M21.7613 70.1541L32.0001 65.5001L42.239 70.1541L32.0001 74.8082L21.7613 70.1541Z" fill="url(#paint3_linear_948_20764)"/>
<path d="M32.0001 65.5001L32.207 65.0449C32.0756 64.9852 31.9247 64.9852 31.7932 65.0449L32.0001 65.5001ZM21.7613 70.1541L21.5544 69.6989C21.3759 69.7801 21.2613 69.9581 21.2613 70.1541C21.2613 70.3502 21.3759 70.5282 21.5544 70.6093L21.7613 70.1541ZM42.239 70.1541L42.4459 70.6093C42.6244 70.5282 42.739 70.3502 42.739 70.1541C42.739 69.9581 42.6244 69.7801 42.4459 69.6989L42.239 70.1541ZM32.0001 74.8082L31.7932 75.2633C31.9247 75.3231 32.0756 75.3231 32.207 75.2633L32.0001 74.8082ZM31.7932 65.0449L21.5544 69.6989L21.9682 70.6093L32.207 65.9553L31.7932 65.0449ZM42.4459 69.6989L32.207 65.0449L31.7932 65.9553L42.0321 70.6093L42.4459 69.6989ZM42.0321 69.6989L31.7932 74.353L32.207 75.2633L42.4459 70.6093L42.0321 69.6989ZM32.207 74.353L21.9682 69.6989L21.5544 70.6093L31.7932 75.2633L32.207 74.353Z" fill="#020216"/>
<rect x="0.5" y="0.5" width="63" height="107" rx="4.5" stroke="#9747FF" stroke-dasharray="10 5"/>
<defs>
<linearGradient id="paint0_linear_948_20764" x1="32" y1="34.5249" x2="21.7611" y2="34.5249" gradientUnits="userSpaceOnUse">
<stop stop-color="#BF08C0"/>
<stop offset="0.833333" stop-color="#6F19F7"/>
</linearGradient>
<linearGradient id="paint1_linear_948_20764" x1="21.7612" y1="26.1505" x2="42.2389" y2="26.1505" gradientUnits="userSpaceOnUse">
<stop stop-color="#BF08C0"/>
<stop offset="0.833333" stop-color="#6F19F7"/>
</linearGradient>
<linearGradient id="paint2_linear_948_20764" x1="26.8806" y1="70.1541" x2="26.8806" y2="86.9085" gradientUnits="userSpaceOnUse">
<stop stop-color="#BF08C0" stop-opacity="0.25"/>
<stop offset="1" stop-color="#B301FC" stop-opacity="0.75"/>
</linearGradient>
<linearGradient id="paint3_linear_948_20764" x1="32.0001" y1="65.5" x2="32.0001" y2="74.8081" gradientUnits="userSpaceOnUse">
<stop stop-color="#BF08C0" stop-opacity="0.25"/>
<stop offset="1" stop-color="#B301FC" stop-opacity="0.75"/>
</linearGradient>
</defs>
</svg>
