<svg width="24" height="24" viewBox="0 0 24 24" fill="none" xmlns="http://www.w3.org/2000/svg">
<path d="M12 10.8081L22.2389 6.15405V18.2545L12 22.9085V10.8081Z" stroke="#020216" stroke-width="2" stroke-linejoin="round"/>
<path d="M12 10.8081L1.76114 6.15405V18.2545L12 22.9085V10.8081Z" fill="url(#paint0_linear_662_16803)" stroke="#020216" stroke-width="2" stroke-linejoin="round"/>
<path fill-rule="evenodd" clip-rule="evenodd" d="M1.76126 6.15412L12.0001 1.5001L22.239 6.15412L12.0001 10.8082L1.76126 6.15412Z" fill="url(#paint1_linear_662_16803)"/>
<path d="M12.0001 1.5001L12.4139 0.589729C12.151 0.470217 11.8492 0.470217 11.5863 0.589729L12.0001 1.5001ZM1.76126 6.15412L1.34746 5.24376C0.990465 5.40603 0.761262 5.76198 0.761262 6.15412C0.761262 6.54627 0.990465 6.90222 1.34746 7.06449L1.76126 6.15412ZM22.239 6.15412L22.6528 7.06449C23.0098 6.90222 23.239 6.54627 23.239 6.15412C23.239 5.76198 23.0098 5.40603 22.6528 5.24376L22.239 6.15412ZM12.0001 10.8082L11.5863 11.7185C11.8492 11.838 12.151 11.838 12.4139 11.7185L12.0001 10.8082ZM11.5863 0.589729L1.34746 5.24376L2.17506 7.06449L12.4139 2.41046L11.5863 0.589729ZM22.6528 5.24376L12.4139 0.589729L11.5863 2.41046L21.8252 7.06449L22.6528 5.24376ZM21.8252 5.24376L11.5863 9.89779L12.4139 11.7185L22.6528 7.06449L21.8252 5.24376ZM12.4139 9.89779L2.17506 5.24376L1.34746 7.06449L11.5863 11.7185L12.4139 9.89779Z" fill="#020216"/>
<defs>
<linearGradient id="paint0_linear_662_16803" x1="6.88057" y1="6.15405" x2="6.88057" y2="22.9085" gradientUnits="userSpaceOnUse">
<stop stop-color="#BF08C0" stop-opacity="0.25"/>
<stop offset="1" stop-color="#B301FC" stop-opacity="0.75"/>
</linearGradient>
<linearGradient id="paint1_linear_662_16803" x1="12.0001" y1="1.5" x2="12.0001" y2="10.8081" gradientUnits="userSpaceOnUse">
<stop stop-color="#BF08C0" stop-opacity="0.25"/>
<stop offset="1" stop-color="#B301FC" stop-opacity="0.75"/>
</linearGradient>
</defs>
</svg>
