<svg width="32" height="32" viewBox="0 0 32 32" fill="none" xmlns="http://www.w3.org/2000/svg">
<circle cx="16" cy="16" r="15" stroke="url(#paint0_linear_662_16372)" stroke-width="2"/>
<mask id="path-2-inside-1_662_16372" fill="white">
<path fill-rule="evenodd" clip-rule="evenodd" d="M3.6084 26.1224C6.54252 22.3854 11.0038 20 16 20C20.9962 20 25.4575 22.3854 28.3916 26.1224C25.4575 29.71 20.9962 32 16 32C11.0038 32 6.54252 29.71 3.6084 26.1224Z"/>
</mask>
<path d="M3.6084 26.1224L2.03532 24.8874L1.04557 26.148L2.06024 27.3886L3.6084 26.1224ZM28.3916 26.1224L29.9398 27.3886L30.9544 26.148L29.9647 24.8874L28.3916 26.1224ZM5.18147 27.3575C7.76417 24.0681 11.6613 22 16 22V18C10.3463 18 5.32088 20.7027 2.03532 24.8874L5.18147 27.3575ZM16 22C20.3386 22 24.2358 24.0681 26.8185 27.3575L29.9647 24.8874C26.6791 20.7027 21.6537 18 16 18V22ZM26.8434 24.8563C24.2728 27.9994 20.3709 30 16 30V34C21.6214 34 26.6421 31.4207 29.9398 27.3886L26.8434 24.8563ZM16 30C11.6291 30 7.72714 27.9994 5.15656 24.8563L2.06024 27.3886C5.35791 31.4207 10.3785 34 16 34V30Z" fill="url(#paint1_linear_662_16372)" mask="url(#path-2-inside-1_662_16372)"/>
<circle cx="16.0008" cy="11.9986" r="4.33333" stroke="url(#paint2_linear_662_16372)" stroke-width="2"/>
<defs>
<linearGradient id="paint0_linear_662_16372" x1="5.98409e-10" y1="15.9878" x2="32" y2="15.9878" gradientUnits="userSpaceOnUse">
<stop stop-color="#BF08C0"/>
<stop offset="0.833333" stop-color="#6F19F7"/>
</linearGradient>
<linearGradient id="paint1_linear_662_16372" x1="3.6084" y1="25.9954" x2="28.3916" y2="25.9954" gradientUnits="userSpaceOnUse">
<stop stop-color="#BF08C0"/>
<stop offset="0.833333" stop-color="#6F19F7"/>
</linearGradient>
<linearGradient id="paint2_linear_662_16372" x1="10.6675" y1="11.9945" x2="21.3342" y2="11.9945" gradientUnits="userSpaceOnUse">
<stop stop-color="#BF08C0"/>
<stop offset="0.833333" stop-color="#6F19F7"/>
</linearGradient>
</defs>
</svg>
