<svg width="24" height="24" viewBox="0 0 24 24" fill="none" xmlns="http://www.w3.org/2000/svg">
<path d="M8.42843 3.42857C8.42843 4.76983 7.34112 5.85714 5.99986 5.85714C4.6586 5.85714 3.57129 4.76983 3.57129 3.42857C3.57129 2.08731 4.6586 1 5.99986 1C7.34112 1 8.42843 2.08731 8.42843 3.42857Z" fill="url(#paint0_linear_1571_84167)" stroke="#020216" stroke-width="2"/>
<path fill-rule="evenodd" clip-rule="evenodd" d="M9.40205 3.85718C9.41955 3.71678 9.42857 3.57375 9.42857 3.42861C9.42857 2.86223 9.29124 2.32792 9.04805 1.85718H24V3.85718H9.40205ZM2.59795 3.85718H0V1.85718H2.95195C2.70876 2.32792 2.57143 2.86223 2.57143 3.42861C2.57143 3.57375 2.58045 3.71678 2.59795 3.85718Z" fill="#020216"/>
<path d="M11.8571 20.5714C11.8571 21.9127 10.7698 23 9.42857 23C8.08731 23 7 21.9127 7 20.5714C7 19.2301 8.08731 18.1428 9.42857 18.1428C10.7698 18.1428 11.8571 19.2301 11.8571 20.5714Z" fill="url(#paint1_linear_1571_84167)" stroke="#020216" stroke-width="2"/>
<path fill-rule="evenodd" clip-rule="evenodd" d="M12.8306 21C12.8481 20.8596 12.8571 20.7166 12.8571 20.5714C12.8571 20.005 12.7198 19.4707 12.4766 19H24V21H12.8306ZM6.02653 21H0V19H6.38052C6.13733 19.4707 6 20.005 6 20.5714C6 20.7166 6.00902 20.8596 6.02653 21Z" fill="#020216"/>
<circle cx="20.5716" cy="12" r="2.42857" fill="url(#paint2_linear_1571_84167)" stroke="#020216" stroke-width="2"/>
<path fill-rule="evenodd" clip-rule="evenodd" d="M23.9735 12.4286C23.991 12.2882 24 12.1452 24 12V12.4286H23.9735ZM17.1694 12.4286H0V10.4286H17.5234C17.2802 10.8993 17.1429 11.4336 17.1429 12C17.1429 12.1452 17.1519 12.2882 17.1694 12.4286ZM23.6195 10.4286H24V12C24 11.4336 23.8627 10.8993 23.6195 10.4286Z" fill="#020216"/>
<defs>
<linearGradient id="paint0_linear_1571_84167" x1="5.99986" y1="0" x2="5.99986" y2="6.85714" gradientUnits="userSpaceOnUse">
<stop stop-color="#BF08C0" stop-opacity="0.25"/>
<stop offset="1" stop-color="#B301FC" stop-opacity="0.75"/>
</linearGradient>
<linearGradient id="paint1_linear_1571_84167" x1="9.42857" y1="17.1428" x2="9.42857" y2="24" gradientUnits="userSpaceOnUse">
<stop stop-color="#BF08C0" stop-opacity="0.25"/>
<stop offset="1" stop-color="#B301FC" stop-opacity="0.75"/>
</linearGradient>
<linearGradient id="paint2_linear_1571_84167" x1="20.5716" y1="8.57141" x2="20.5716" y2="15.4286" gradientUnits="userSpaceOnUse">
<stop stop-color="#BF08C0" stop-opacity="0.25"/>
<stop offset="1" stop-color="#B301FC" stop-opacity="0.75"/>
</linearGradient>
</defs>
</svg>
