<svg width="96" height="172" viewBox="0 0 96 172" fill="none" xmlns="http://www.w3.org/2000/svg">
<line x1="20" y1="28" x2="76" y2="28" stroke="white" stroke-width="2"/>
<line x1="20" y1="48" x2="76" y2="48" stroke="white" stroke-width="2"/>
<line x1="20" y1="68" x2="76" y2="68" stroke="white" stroke-width="2"/>
<circle cx="34" cy="28" r="7" fill="url(#paint0_linear_888_16691)" stroke="white" stroke-width="2"/>
<circle cx="42" cy="68" r="7" fill="url(#paint1_linear_888_16691)" stroke="white" stroke-width="2"/>
<circle cx="68" cy="48" r="7" fill="url(#paint2_linear_888_16691)" stroke="white" stroke-width="2"/>
<circle cx="34" cy="104" r="7" fill="url(#paint3_linear_888_16691)" stroke="#020216" stroke-width="2"/>
<path fill-rule="evenodd" clip-rule="evenodd" d="M41.9381 105C41.979 104.672 42 104.339 42 104C42 103.661 41.979 103.328 41.9381 103H76V105H41.9381ZM26.0619 105H20V103H26.0619C26.021 103.328 26 103.661 26 104C26 104.339 26.021 104.672 26.0619 105Z" fill="#020216"/>
<circle cx="42" cy="144" r="7" fill="url(#paint4_linear_888_16691)" stroke="#020216" stroke-width="2"/>
<path fill-rule="evenodd" clip-rule="evenodd" d="M49.9381 145C49.979 144.672 50 144.339 50 144C50 143.661 49.979 143.328 49.9381 143H76V145H49.9381ZM34.0619 145H20V143H34.0619C34.021 143.328 34 143.661 34 144C34 144.339 34.021 144.672 34.0619 145Z" fill="#020216"/>
<circle cx="68" cy="124" r="7" fill="url(#paint5_linear_888_16691)" stroke="#020216" stroke-width="2"/>
<path fill-rule="evenodd" clip-rule="evenodd" d="M75.9381 125C75.979 124.672 76 124.339 76 124V125H75.9381ZM60.0619 125H20V123H60.0619C60.021 123.328 60 123.661 60 124C60 124.339 60.021 124.672 60.0619 125ZM75.9381 123H76V124C76 123.661 75.979 123.328 75.9381 123Z" fill="#020216"/>
<rect x="0.5" y="0.5" width="95" height="171" rx="4.5" stroke="#9747FF" stroke-dasharray="10 5"/>
<defs>
<linearGradient id="paint0_linear_888_16691" x1="26" y1="27.9939" x2="42" y2="27.9939" gradientUnits="userSpaceOnUse">
<stop stop-color="#BF08C0"/>
<stop offset="0.833333" stop-color="#6F19F7"/>
</linearGradient>
<linearGradient id="paint1_linear_888_16691" x1="34" y1="67.9939" x2="50" y2="67.9939" gradientUnits="userSpaceOnUse">
<stop stop-color="#BF08C0"/>
<stop offset="0.833333" stop-color="#6F19F7"/>
</linearGradient>
<linearGradient id="paint2_linear_888_16691" x1="60" y1="47.9939" x2="76" y2="47.9939" gradientUnits="userSpaceOnUse">
<stop stop-color="#BF08C0"/>
<stop offset="0.833333" stop-color="#6F19F7"/>
</linearGradient>
<linearGradient id="paint3_linear_888_16691" x1="34" y1="96" x2="34" y2="112" gradientUnits="userSpaceOnUse">
<stop stop-color="#BF08C0" stop-opacity="0.25"/>
<stop offset="1" stop-color="#B301FC" stop-opacity="0.75"/>
</linearGradient>
<linearGradient id="paint4_linear_888_16691" x1="42" y1="136" x2="42" y2="152" gradientUnits="userSpaceOnUse">
<stop stop-color="#BF08C0" stop-opacity="0.25"/>
<stop offset="1" stop-color="#B301FC" stop-opacity="0.75"/>
</linearGradient>
<linearGradient id="paint5_linear_888_16691" x1="68" y1="116" x2="68" y2="132" gradientUnits="userSpaceOnUse">
<stop stop-color="#BF08C0" stop-opacity="0.25"/>
<stop offset="1" stop-color="#B301FC" stop-opacity="0.75"/>
</linearGradient>
</defs>
</svg>
