<svg width="32" height="32" viewBox="0 0 32 32" fill="none" xmlns="http://www.w3.org/2000/svg">
<circle cx="24" cy="4" r="4" fill="url(#paint0_linear_662_16795)"/>
<circle cx="8" cy="4" r="3" fill="url(#paint1_linear_662_16795)" stroke="#020216" stroke-width="2"/>
<circle cx="16" cy="16" r="4" fill="url(#paint2_linear_662_16795)"/>
<circle cx="24" cy="4" r="3" stroke="#020216" stroke-width="2"/>
<circle cx="8" cy="4" r="3" stroke="#020216" stroke-width="2"/>
<circle cx="16" cy="16" r="3" stroke="#020216" stroke-width="2"/>
<mask id="path-7-inside-1_662_16795" fill="white">
<path fill-rule="evenodd" clip-rule="evenodd" d="M8.00019 32H24.0002C23.1712 26.5034 19.9042 22.4 16.0002 22.4C12.0962 22.4 8.82914 26.5034 8.00019 32Z"/>
</mask>
<path d="M8.00019 32L6.02256 31.7018L5.67596 34H8.00019V32ZM24.0002 32V34H26.3244L25.9778 31.7018L24.0002 32ZM8.00019 34H24.0002V30H8.00019V34ZM16.0002 24.4C17.2004 24.4 18.4703 25.0247 19.6085 26.409C20.7487 27.7958 21.652 29.8415 22.0226 32.2983L25.9778 31.7018C25.5194 28.6619 24.3747 25.9076 22.6982 23.8686C21.0196 21.827 18.7039 20.4 16.0002 20.4V24.4ZM9.97783 32.2983C10.3483 29.8415 11.2516 27.7958 12.3919 26.409C13.5301 25.0247 14.7999 24.4 16.0002 24.4V20.4C13.2964 20.4 10.9808 21.827 9.30219 23.8686C7.62569 25.9076 6.481 28.6619 6.02256 31.7018L9.97783 32.2983Z" fill="#020216" mask="url(#path-7-inside-1_662_16795)"/>
<path fill-rule="evenodd" clip-rule="evenodd" d="M31.5761 18C31.7536 18.6411 31.8962 19.3096 32.0003 20H29.9748H18.0259H16.0029C17.4823 19.999 18.7738 19.1949 19.465 18H29.4895C29.0274 16.5579 28.371 15.3362 27.6086 14.409C26.4705 13.0247 25.2006 12.4 24.0003 12.4C22.8001 12.4 21.5302 13.0247 20.392 14.409C20.2202 14.6179 20.0538 14.8418 19.8938 15.0798C19.7202 14.3426 19.3427 13.6841 18.824 13.167C20.2359 11.4371 22.0376 10.4 24.0003 10.4C27.414 10.4 30.3406 13.5372 31.5761 18Z" fill="#020216"/>
<path fill-rule="evenodd" clip-rule="evenodd" d="M13.1763 13.1668C11.7645 11.4371 9.96284 10.4 8.00019 10.4C4.58657 10.4 1.65995 13.5372 0.424406 18C0.246913 18.6411 0.10432 19.3096 0.00019461 20H2.02576H13.9746H15.9972C14.5178 19.999 13.2263 19.1949 12.5351 18H2.51102C2.97313 16.5579 3.62956 15.3362 4.39191 14.409C5.53006 13.0247 6.79994 12.4 8.00019 12.4C9.20044 12.4 10.4703 13.0247 11.6085 14.409C11.7802 14.6178 11.9465 14.8416 12.1065 15.0794C12.2801 14.3423 12.6576 13.6838 13.1763 13.1668Z" fill="#020216"/>
<defs>
<linearGradient id="paint0_linear_662_16795" x1="24" y1="0" x2="24" y2="8" gradientUnits="userSpaceOnUse">
<stop stop-color="#BF08C0" stop-opacity="0.25"/>
<stop offset="1" stop-color="#B301FC" stop-opacity="0.75"/>
</linearGradient>
<linearGradient id="paint1_linear_662_16795" x1="8" y1="0" x2="8" y2="8" gradientUnits="userSpaceOnUse">
<stop stop-color="#BF08C0" stop-opacity="0.25"/>
<stop offset="1" stop-color="#B301FC" stop-opacity="0.75"/>
</linearGradient>
<linearGradient id="paint2_linear_662_16795" x1="16" y1="12" x2="16" y2="20" gradientUnits="userSpaceOnUse">
<stop stop-color="#BF08C0" stop-opacity="0.25"/>
<stop offset="1" stop-color="#B301FC" stop-opacity="0.75"/>
</linearGradient>
</defs>
</svg>
