<svg width="32" height="32" viewBox="0 0 32 32" fill="none" xmlns="http://www.w3.org/2000/svg">
<circle cx="24" cy="4" r="4" fill="url(#paint0_linear_659_15813)"/>
<circle cx="8" cy="4" r="4" fill="url(#paint1_linear_659_15813)"/>
<circle cx="16" cy="16" r="4" fill="url(#paint2_linear_659_15813)"/>
<circle cx="24" cy="4" r="3" stroke="#F9F9F9" stroke-width="2"/>
<circle cx="8" cy="4" r="3" stroke="#F9F9F9" stroke-width="2"/>
<circle cx="16" cy="16" r="3" stroke="#F9F9F9" stroke-width="2"/>
<mask id="path-7-inside-1_659_15813" fill="white">
<path fill-rule="evenodd" clip-rule="evenodd" d="M8 32H24C23.1711 26.5034 19.904 22.4 16 22.4C12.096 22.4 8.82895 26.5034 8 32Z"/>
</mask>
<path d="M8 32L6.02236 31.7018L5.67577 34H8V32ZM24 32V34H26.3242L25.9776 31.7018L24 32ZM8 34H24V30H8V34ZM16 24.4C17.2002 24.4 18.4701 25.0247 19.6083 26.409C20.7486 27.7958 21.6519 29.8415 22.0224 32.2983L25.9776 31.7018C25.5192 28.6619 24.3745 25.9076 22.698 23.8686C21.0194 21.827 18.7038 20.4 16 20.4V24.4ZM9.97764 32.2983C10.3481 29.8415 11.2514 27.7958 12.3917 26.409C13.5299 25.0247 14.7997 24.4 16 24.4V20.4C13.2962 20.4 10.9806 21.827 9.30199 23.8686C7.6255 25.9076 6.4808 28.6619 6.02236 31.7018L9.97764 32.2983Z" fill="#F9F9F9" mask="url(#path-7-inside-1_659_15813)"/>
<path fill-rule="evenodd" clip-rule="evenodd" d="M31.576 18C31.7535 18.6411 31.8961 19.3096 32.0002 20H29.9746H18.0257H16.0029C17.4823 19.999 18.7738 19.1949 19.465 18H29.4894C29.0273 16.5579 28.3708 15.3362 27.6085 14.409C26.4703 13.0247 25.2004 12.4 24.0002 12.4C22.7999 12.4 21.53 13.0247 20.3919 14.409C20.2201 14.6179 20.0537 14.8417 19.8938 15.0797C19.7202 14.3425 19.3426 13.684 18.8239 13.167C20.2358 11.4371 22.0375 10.4 24.0002 10.4C27.4138 10.4 30.3404 13.5372 31.576 18Z" fill="#F9F9F9"/>
<path fill-rule="evenodd" clip-rule="evenodd" d="M8 10.4C9.96268 10.4 11.7644 11.4371 13.1762 13.1669C12.6575 13.6839 12.28 14.3424 12.1064 15.0796C11.9464 14.8417 11.78 14.6179 11.6083 14.409C10.4701 13.0247 9.20025 12.4 8 12.4C6.79975 12.4 5.52986 13.0247 4.39171 14.409C3.62936 15.3362 2.97293 16.5579 2.51083 18H12.5351C13.2263 19.1949 14.5178 19.999 15.9972 20H13.9744H2.02556H0C0.104125 19.3096 0.246719 18.6411 0.424212 18C1.65975 13.5372 4.58638 10.4 8 10.4Z" fill="#F9F9F9"/>
<defs>
<linearGradient id="paint0_linear_659_15813" x1="20" y1="3.99696" x2="28" y2="3.99696" gradientUnits="userSpaceOnUse">
<stop stop-color="#BF08C0"/>
<stop offset="0.833333" stop-color="#6F19F7"/>
</linearGradient>
<linearGradient id="paint1_linear_659_15813" x1="4" y1="3.99696" x2="12" y2="3.99696" gradientUnits="userSpaceOnUse">
<stop stop-color="#BF08C0"/>
<stop offset="0.833333" stop-color="#6F19F7"/>
</linearGradient>
<linearGradient id="paint2_linear_659_15813" x1="12" y1="15.997" x2="20" y2="15.997" gradientUnits="userSpaceOnUse">
<stop stop-color="#BF08C0"/>
<stop offset="0.833333" stop-color="#6F19F7"/>
</linearGradient>
</defs>
</svg>
