<svg width="96" height="172" viewBox="0 0 96 172" fill="none" xmlns="http://www.w3.org/2000/svg">
<path d="M56.2857 67V40.7553L47 34V50.3298L65 67H56.2857Z" stroke="white" stroke-width="2"/>
<path d="M31.7143 67V40.7553L41 34V50.3298L23 67H31.7143Z" stroke="white" stroke-width="2"/>
<path fill-rule="evenodd" clip-rule="evenodd" d="M41 27L44 22L47 27V59.5L45.875 62H44H42.125L41 59.5V27Z" fill="url(#paint0_linear_862_16124)"/>
<path d="M44 22L44.8575 21.4855L44 20.0563L43.1425 21.4855L44 22ZM41 27L40.1425 26.4855L40 26.723V27H41ZM47 27H48V26.723L47.8575 26.4855L47 27ZM47 59.5L47.9119 59.9104L48 59.7146V59.5H47ZM45.875 62V63H46.5216L46.7869 62.4104L45.875 62ZM42.125 62L41.2131 62.4104L41.4784 63H42.125V62ZM41 59.5H40V59.7146L40.0881 59.9104L41 59.5ZM43.1425 21.4855L40.1425 26.4855L41.8575 27.5145L44.8575 22.5145L43.1425 21.4855ZM43.1425 22.5145L46.1425 27.5145L47.8575 26.4855L44.8575 21.4855L43.1425 22.5145ZM46 27V59.5H48V27H46ZM46.0881 59.0896L44.9631 61.5896L46.7869 62.4104L47.9119 59.9104L46.0881 59.0896ZM45.875 61H44V63H45.875V61ZM42.125 63H44V61H42.125V63ZM40.0881 59.9104L41.2131 62.4104L43.0369 61.5896L41.9119 59.0896L40.0881 59.9104ZM40 27V59.5H42V27H40Z" fill="white"/>
<path d="M56.2857 135V108.755L47 102V118.33L65 135H56.2857Z" stroke="#020216" stroke-width="2"/>
<path d="M31.7143 135V108.755L41 102V118.33L23 135H31.7143Z" stroke="#020216" stroke-width="2"/>
<path fill-rule="evenodd" clip-rule="evenodd" d="M41 95L44 90L47 95V127.5L45.875 130H44H42.125L41 127.5V95Z" fill="url(#paint1_linear_862_16124)"/>
<path d="M44 90L44.8575 89.4855L44 88.0563L43.1425 89.4855L44 90ZM41 95L40.1425 94.4855L40 94.723V95H41ZM47 95H48V94.723L47.8575 94.4855L47 95ZM47 127.5L47.9119 127.91L48 127.715V127.5H47ZM45.875 130V131H46.5216L46.7869 130.41L45.875 130ZM42.125 130L41.2131 130.41L41.4784 131H42.125V130ZM41 127.5H40V127.715L40.0881 127.91L41 127.5ZM43.1425 89.4855L40.1425 94.4855L41.8575 95.5145L44.8575 90.5145L43.1425 89.4855ZM43.1425 90.5145L46.1425 95.5145L47.8575 94.4855L44.8575 89.4855L43.1425 90.5145ZM46 95V127.5H48V95H46ZM46.0881 127.09L44.9631 129.59L46.7869 130.41L47.9119 127.91L46.0881 127.09ZM45.875 129H44V131H45.875V129ZM42.125 131H44V129H42.125V131ZM40.0881 127.91L41.2131 130.41L43.0369 129.59L41.9119 127.09L40.0881 127.91ZM40 95V127.5H42V95H40Z" fill="#020216"/>
<rect x="0.5" y="0.5" width="95" height="171" rx="4.5" stroke="#9747FF" stroke-dasharray="10 5"/>
<defs>
<linearGradient id="paint0_linear_862_16124" x1="41" y1="41.9848" x2="47" y2="41.9848" gradientUnits="userSpaceOnUse">
<stop stop-color="#BF08C0"/>
<stop offset="0.833333" stop-color="#6F19F7"/>
</linearGradient>
<linearGradient id="paint1_linear_862_16124" x1="44" y1="90" x2="44" y2="130" gradientUnits="userSpaceOnUse">
<stop stop-color="#BF08C0" stop-opacity="0.25"/>
<stop offset="1" stop-color="#B301FC" stop-opacity="0.75"/>
</linearGradient>
</defs>
</svg>
