<svg width="28" height="26" viewBox="0 0 28 26" fill="none" xmlns="http://www.w3.org/2000/svg">
<path d="M20.1429 24.5V11.3776L15.5 8V16.1649L24.5 24.5H20.1429Z" stroke="#020216" stroke-width="2"/>
<path d="M7.85714 24.5V11.3776L12.5 8V16.1649L3.5 24.5H7.85714Z" stroke="#020216" stroke-width="2"/>
<path fill-rule="evenodd" clip-rule="evenodd" d="M12.5 4.5L14 2L15.5 4.5V20.75L14.9375 22H14H13.0625L12.5 20.75V4.5Z" fill="url(#paint0_linear_862_16141)"/>
<path d="M14 2L14.8575 1.4855L14 0.0563494L13.1425 1.4855L14 2ZM12.5 4.5L11.6425 3.9855L11.5 4.22302V4.5H12.5ZM15.5 4.5H16.5V4.22302L16.3575 3.9855L15.5 4.5ZM15.5 20.75L16.4119 21.1604L16.5 20.9646V20.75H15.5ZM14.9375 22V23H15.5841L15.8494 22.4104L14.9375 22ZM13.0625 22L12.1506 22.4104L12.4159 23H13.0625V22ZM12.5 20.75H11.5V20.9646L11.5881 21.1604L12.5 20.75ZM13.1425 1.4855L11.6425 3.9855L13.3575 5.0145L14.8575 2.5145L13.1425 1.4855ZM13.1425 2.5145L14.6425 5.0145L16.3575 3.9855L14.8575 1.4855L13.1425 2.5145ZM14.5 4.5V20.75H16.5V4.5H14.5ZM14.5881 20.3396L14.0256 21.5896L15.8494 22.4104L16.4119 21.1604L14.5881 20.3396ZM14.9375 21H14V23H14.9375V21ZM13.0625 23H14V21H13.0625V23ZM11.5881 21.1604L12.1506 22.4104L13.9744 21.5896L13.4119 20.3396L11.5881 21.1604ZM11.5 4.5V20.75H13.5V4.5H11.5Z" fill="#020216"/>
<defs>
<linearGradient id="paint0_linear_862_16141" x1="12.5" y1="11.9924" x2="15.5" y2="11.9924" gradientUnits="userSpaceOnUse">
<stop stop-color="#BF08C0"/>
<stop offset="0.833333" stop-color="#6F19F7"/>
</linearGradient>
</defs>
</svg>
