<svg width="96" height="172" viewBox="0 0 96 172" fill="none" xmlns="http://www.w3.org/2000/svg">
<path d="M37.4826 36.3127L58.1163 35L63 39.7297L59.5116 55.6081L38.9302 60L33 57.973L37.4826 36.3127Z" fill="url(#paint0_linear_862_16166)" stroke="white" stroke-width="2"/>
<path d="M48 20V76" stroke="white" stroke-width="2" stroke-dasharray="4 4"/>
<path d="M20 48H76" stroke="white" stroke-width="2" stroke-dasharray="4 4"/>
<path d="M21 27V21H27" stroke="white" stroke-width="2"/>
<path d="M75 69L75 75L69 75" stroke="white" stroke-width="2"/>
<path d="M69 21L75 21L75 27" stroke="white" stroke-width="2"/>
<path d="M27 75L21 75L21 69" stroke="white" stroke-width="2"/>
<path d="M37.4826 112.313L58.1163 111L63 115.73L59.5116 131.608L38.9302 136L33 133.973L37.4826 112.313Z" fill="url(#paint1_linear_862_16166)" stroke="#020216" stroke-width="2"/>
<path d="M48 96V152" stroke="#020216" stroke-width="2" stroke-dasharray="4 4"/>
<path d="M20 124H76" stroke="#020216" stroke-width="2" stroke-dasharray="4 4"/>
<path d="M21 103V97H27" stroke="#020216" stroke-width="2"/>
<path d="M75 145L75 151L69 151" stroke="#020216" stroke-width="2"/>
<path d="M69 97L75 97L75 103" stroke="#020216" stroke-width="2"/>
<path d="M27 151L21 151L21 145" stroke="#020216" stroke-width="2"/>
<rect x="0.5" y="0.5" width="95" height="171" rx="4.5" stroke="#9747FF" stroke-dasharray="10 5"/>
<defs>
<linearGradient id="paint0_linear_862_16166" x1="33" y1="47.4905" x2="63" y2="47.4905" gradientUnits="userSpaceOnUse">
<stop stop-color="#BF08C0"/>
<stop offset="0.833333" stop-color="#6F19F7"/>
</linearGradient>
<linearGradient id="paint1_linear_862_16166" x1="48" y1="111" x2="48" y2="136" gradientUnits="userSpaceOnUse">
<stop stop-color="#BF08C0" stop-opacity="0.25"/>
<stop offset="1" stop-color="#B301FC" stop-opacity="0.75"/>
</linearGradient>
</defs>
</svg>
