<svg width="64" height="108" viewBox="0 0 64 108" fill="none" xmlns="http://www.w3.org/2000/svg">
<path d="M37.5059 22.2299L26.0255 25.7384L25.9995 41.9998" stroke="white"/>
<mask id="path-3-inside-1_948_20794" fill="white">
<path fill-rule="evenodd" clip-rule="evenodd" d="M30.2417 39.4173L26.1854 26.0004L38.8625 31.9802L35.6296 34.7692L38.4183 38.0018L36.2631 39.861L33.4744 36.6285L30.2417 39.4173Z"/>
</mask>
<path fill-rule="evenodd" clip-rule="evenodd" d="M30.2417 39.4173L26.1854 26.0004L38.8625 31.9802L35.6296 34.7692L38.4183 38.0018L36.2631 39.861L33.4744 36.6285L30.2417 39.4173Z" fill="url(#paint0_linear_948_20794)"/>
<path d="M26.1854 26.0004L26.612 25.096L24.577 24.1361L25.2282 26.2898L26.1854 26.0004ZM30.2417 39.4173L29.2845 39.7067L29.7298 41.1796L30.8949 40.1745L30.2417 39.4173ZM38.8625 31.9802L39.5157 32.7374L40.6808 31.7323L39.2891 31.0758L38.8625 31.9802ZM35.6296 34.7692L34.9764 34.0121L34.2192 34.6653L34.8724 35.4224L35.6296 34.7692ZM38.4183 38.0018L39.0715 38.7589L39.8287 38.1057L39.1755 37.3486L38.4183 38.0018ZM36.2631 39.861L35.5059 40.5143L36.1592 41.2714L36.9163 40.6182L36.2631 39.861ZM33.4744 36.6285L34.2316 35.9753L33.5784 35.2181L32.8212 35.8713L33.4744 36.6285ZM25.2282 26.2898L29.2845 39.7067L31.1989 39.1279L27.1426 25.7111L25.2282 26.2898ZM39.2891 31.0758L26.612 25.096L25.7588 26.9049L38.4359 32.8847L39.2891 31.0758ZM36.2828 35.5264L39.5157 32.7374L38.2093 31.2231L34.9764 34.0121L36.2828 35.5264ZM34.8724 35.4224L37.6611 38.655L39.1755 37.3486L36.3868 34.116L34.8724 35.4224ZM37.7651 37.2446L35.6099 39.1039L36.9163 40.6182L39.0715 38.7589L37.7651 37.2446ZM37.0203 39.2078L34.2316 35.9753L32.7172 37.2817L35.5059 40.5143L37.0203 39.2078ZM30.8949 40.1745L34.1276 37.3857L32.8212 35.8713L29.5885 38.6602L30.8949 40.1745Z" fill="white" mask="url(#path-3-inside-1_948_20794)"/>
<path d="M37.5059 66.2299L26.0255 69.7384L25.9995 85.9998" stroke="#020216"/>
<mask id="path-6-inside-2_948_20794" fill="white">
<path fill-rule="evenodd" clip-rule="evenodd" d="M30.2417 83.4173L26.1854 70.0004L38.8625 75.9802L35.6296 78.7692L38.4183 82.0018L36.2631 83.861L33.4744 80.6285L30.2417 83.4173Z"/>
</mask>
<path fill-rule="evenodd" clip-rule="evenodd" d="M30.2417 83.4173L26.1854 70.0004L38.8625 75.9802L35.6296 78.7692L38.4183 82.0018L36.2631 83.861L33.4744 80.6285L30.2417 83.4173Z" fill="url(#paint1_linear_948_20794)"/>
<path d="M26.1854 70.0004L26.612 69.096L24.577 68.1361L25.2282 70.2898L26.1854 70.0004ZM30.2417 83.4173L29.2845 83.7067L29.7298 85.1796L30.8949 84.1745L30.2417 83.4173ZM38.8625 75.9802L39.5157 76.7374L40.6808 75.7323L39.2891 75.0758L38.8625 75.9802ZM35.6296 78.7692L34.9764 78.0121L34.2192 78.6653L34.8724 79.4224L35.6296 78.7692ZM38.4183 82.0018L39.0715 82.7589L39.8287 82.1057L39.1755 81.3486L38.4183 82.0018ZM36.2631 83.861L35.5059 84.5143L36.1592 85.2714L36.9163 84.6182L36.2631 83.861ZM33.4744 80.6285L34.2316 79.9753L33.5784 79.2181L32.8212 79.8713L33.4744 80.6285ZM25.2282 70.2898L29.2845 83.7067L31.1989 83.1279L27.1426 69.7111L25.2282 70.2898ZM39.2891 75.0758L26.612 69.096L25.7588 70.9049L38.4359 76.8847L39.2891 75.0758ZM36.2828 79.5264L39.5157 76.7374L38.2093 75.2231L34.9764 78.0121L36.2828 79.5264ZM34.8724 79.4224L37.6611 82.655L39.1755 81.3486L36.3868 78.116L34.8724 79.4224ZM37.7651 81.2446L35.6099 83.1039L36.9163 84.6182L39.0715 82.7589L37.7651 81.2446ZM37.0203 83.2078L34.2316 79.9753L32.7172 81.2817L35.5059 84.5143L37.0203 83.2078ZM30.8949 84.1745L34.1276 81.3857L32.8212 79.8713L29.5885 82.6602L30.8949 84.1745Z" fill="#020216" mask="url(#path-6-inside-2_948_20794)"/>
<rect x="0.5" y="0.5" width="63" height="107" rx="4.5" stroke="#9747FF" stroke-dasharray="10 5"/>
<defs>
<linearGradient id="paint0_linear_948_20794" x1="27.4485" y1="36.1795" x2="36.0692" y2="28.7424" gradientUnits="userSpaceOnUse">
<stop stop-color="#BF08C0"/>
<stop offset="0.833333" stop-color="#6F19F7"/>
</linearGradient>
<linearGradient id="paint1_linear_948_20794" x1="26.1854" y1="70.0004" x2="37.3408" y2="82.9313" gradientUnits="userSpaceOnUse">
<stop stop-color="#BF08C0" stop-opacity="0.25"/>
<stop offset="1" stop-color="#B301FC" stop-opacity="0.75"/>
</linearGradient>
</defs>
</svg>
