<svg width="24" height="24" viewBox="0 0 24 24" fill="none" xmlns="http://www.w3.org/2000/svg">
<path d="M17.5059 2.22998L6.02549 5.73849L5.99953 21.9999" stroke="white"/>
<mask id="path-2-inside-1_662_15767" fill="white">
<path fill-rule="evenodd" clip-rule="evenodd" d="M10.2417 19.4173L6.18537 6.00045L18.8625 11.9802L15.6296 14.7692L18.4183 18.0018L16.2631 19.861L13.4744 16.6285L10.2417 19.4173Z"/>
</mask>
<path fill-rule="evenodd" clip-rule="evenodd" d="M10.2417 19.4173L6.18537 6.00045L18.8625 11.9802L15.6296 14.7692L18.4183 18.0018L16.2631 19.861L13.4744 16.6285L10.2417 19.4173Z" fill="url(#paint0_linear_662_15767)"/>
<path d="M6.18537 6.00045L6.61199 5.09602L4.57702 4.13612L5.22816 6.28984L6.18537 6.00045ZM10.2417 19.4173L9.28452 19.7067L9.72983 21.1796L10.8949 20.1745L10.2417 19.4173ZM18.8625 11.9802L19.5157 12.7374L20.6808 11.7323L19.2891 11.0758L18.8625 11.9802ZM15.6296 14.7692L14.9764 14.0121L14.2192 14.6653L14.8724 15.4224L15.6296 14.7692ZM18.4183 18.0018L19.0715 18.7589L19.8287 18.1057L19.1755 17.3486L18.4183 18.0018ZM16.2631 19.861L15.5059 20.5143L16.1592 21.2714L16.9163 20.6182L16.2631 19.861ZM13.4744 16.6285L14.2316 15.9753L13.5784 15.2181L12.8212 15.8713L13.4744 16.6285ZM5.22816 6.28984L9.28452 19.7067L11.1989 19.1279L7.14258 5.71105L5.22816 6.28984ZM19.2891 11.0758L6.61199 5.09602L5.75875 6.90488L18.4359 12.8847L19.2891 11.0758ZM16.2828 15.5264L19.5157 12.7374L18.2093 11.2231L14.9764 14.0121L16.2828 15.5264ZM14.8724 15.4224L17.6611 18.655L19.1755 17.3486L16.3868 14.116L14.8724 15.4224ZM17.7651 17.2446L15.6099 19.1039L16.9163 20.6182L19.0715 18.7589L17.7651 17.2446ZM17.0203 19.2078L14.2316 15.9753L12.7172 17.2817L15.5059 20.5143L17.0203 19.2078ZM10.8949 20.1745L14.1276 17.3857L12.8212 15.8713L9.58852 18.6602L10.8949 20.1745Z" fill="white" mask="url(#path-2-inside-1_662_15767)"/>
<defs>
<linearGradient id="paint0_linear_662_15767" x1="7.44848" y1="16.1795" x2="16.0692" y2="8.74243" gradientUnits="userSpaceOnUse">
<stop stop-color="#BF08C0"/>
<stop offset="0.833333" stop-color="#6F19F7"/>
</linearGradient>
</defs>
</svg>
