<svg width="64" height="108" viewBox="0 0 64 108" fill="none" xmlns="http://www.w3.org/2000/svg">
<path d="M23.0868 34.5119C21.1408 39.2407 27.3682 35.9669 35.9303 42.1508C37.8764 43.5563 43.1272 40.5879 42.1575 35.6031C41.3791 31.6018 44.4214 29.9367 40.2116 24.6905C36.7089 20.3254 32.4277 21.053 24.2544 23.2355C16.0812 25.418 25.0328 29.7831 23.0868 34.5119Z" stroke="white" stroke-dasharray="4 4"/>
<circle cx="28.25" cy="28.25" r="2.5" fill="url(#paint0_linear_948_20757)" stroke="white"/>
<circle cx="35.5" cy="34.75" r="2.5" fill="url(#paint1_linear_948_20757)" stroke="white"/>
<path d="M23.0868 78.5119C21.1408 83.2407 27.3682 79.9669 35.9303 86.1508C37.8764 87.5563 43.1272 84.5879 42.1575 79.6031C41.3791 75.6018 44.4214 73.9367 40.2116 68.6905C36.7089 64.3254 32.4277 65.053 24.2544 67.2355C16.0812 69.418 25.0328 73.7831 23.0868 78.5119Z" stroke="#020216" stroke-dasharray="4 4"/>
<circle cx="28.25" cy="72.25" r="2.5" fill="url(#paint2_linear_948_20757)" stroke="#020216"/>
<circle cx="35.5" cy="78.75" r="2.5" fill="url(#paint3_linear_948_20757)" stroke="#020216"/>
<rect x="0.5" y="0.5" width="63" height="107" rx="4.5" stroke="#9747FF" stroke-dasharray="10 5"/>
<defs>
<linearGradient id="paint0_linear_948_20757" x1="25.25" y1="28.2477" x2="31.25" y2="28.2477" gradientUnits="userSpaceOnUse">
<stop stop-color="#BF08C0"/>
<stop offset="0.833333" stop-color="#6F19F7"/>
</linearGradient>
<linearGradient id="paint1_linear_948_20757" x1="32.5" y1="34.7477" x2="38.5" y2="34.7477" gradientUnits="userSpaceOnUse">
<stop stop-color="#BF08C0"/>
<stop offset="0.833333" stop-color="#6F19F7"/>
</linearGradient>
<linearGradient id="paint2_linear_948_20757" x1="28.25" y1="69.25" x2="28.25" y2="75.25" gradientUnits="userSpaceOnUse">
<stop stop-color="#BF08C0" stop-opacity="0.25"/>
<stop offset="1" stop-color="#B301FC" stop-opacity="0.75"/>
</linearGradient>
<linearGradient id="paint3_linear_948_20757" x1="35.5" y1="75.75" x2="35.5" y2="81.75" gradientUnits="userSpaceOnUse">
<stop stop-color="#BF08C0" stop-opacity="0.25"/>
<stop offset="1" stop-color="#B301FC" stop-opacity="0.75"/>
</linearGradient>
</defs>
</svg>
