<svg width="64" height="108" viewBox="0 0 64 108" fill="none" xmlns="http://www.w3.org/2000/svg">
<mask id="path-2-inside-1_2098_174079" fill="white">
<path fill-rule="evenodd" clip-rule="evenodd" d="M32 20C28.2308 20 25 22.6471 25 26.8824C25 29.1453 25.6767 30.4529 26.3873 31.826C27.1729 33.3441 28 34.9423 28 38H31.9999H32H35.9999C35.9999 34.9423 36.827 33.3441 37.6126 31.826C38.3232 30.4529 38.9999 29.1453 38.9999 26.8824C38.9999 22.6471 35.7692 20 32 20Z"/>
</mask>
<path d="M26.3873 31.826L25.4992 32.2856H25.4992L26.3873 31.826ZM28 38H27V39H28V38ZM35.9999 38V39H36.9999V38H35.9999ZM37.6126 31.826L36.7245 31.3664L37.6126 31.826ZM26 26.8824C26 23.265 28.715 21 32 21V19C27.7466 19 24 22.0291 24 26.8824H26ZM27.2754 31.3664C26.5795 30.0217 26 28.8936 26 26.8824H24C24 29.397 24.7739 30.8841 25.4992 32.2856L27.2754 31.3664ZM29 38C29 34.7047 28.0878 32.9362 27.2754 31.3664L25.4992 32.2856C26.258 33.752 27 35.1798 27 38H29ZM31.9999 37H28V39H31.9999V37ZM31.9999 39H32V37H31.9999V39ZM32 39H35.9999V37H32V39ZM36.9999 38C36.9999 35.1798 37.7419 33.752 38.5008 32.2856L36.7245 31.3664C35.9121 32.9362 34.9999 34.7047 34.9999 38H36.9999ZM38.5008 32.2856C39.2261 30.8841 39.9999 29.397 39.9999 26.8824H37.9999C37.9999 28.8936 37.4204 30.0217 36.7245 31.3664L38.5008 32.2856ZM39.9999 26.8824C39.9999 22.0291 36.2534 19 32 19V21C35.285 21 37.9999 23.265 37.9999 26.8824H39.9999Z" fill="white" mask="url(#path-2-inside-1_2098_174079)"/>
<rect x="28.5" y="39.5" width="7" height="2" rx="1" fill="url(#paint0_linear_2098_174079)" stroke="white"/>
<mask id="path-5-inside-2_2098_174079" fill="white">
<path fill-rule="evenodd" clip-rule="evenodd" d="M29 41C29 41 29 41.0001 29 41.0001C29 42.657 30.3431 44.0001 32 44.0001C33.6569 44.0001 35 42.657 35 41.0001C35 41.0001 35 41 35 41H29Z"/>
</mask>
<path d="M29 41V40H28V41H29ZM35 41H36V40H35V41ZM30 41.0001C30 41.0001 30 41.0001 30 41.0001C30 41.0001 30 41 30 41H28C28 41 28 41 28 41C28 41 28 41.0001 28 41.0001H30ZM32 43.0001C30.8954 43.0001 30 42.1047 30 41.0001H28C28 43.2093 29.7909 45.0001 32 45.0001V43.0001ZM34 41.0001C34 42.1047 33.1046 43.0001 32 43.0001V45.0001C34.2091 45.0001 36 43.2093 36 41.0001H34ZM34 41C34 41 34 41 34 41C34 41 34 41 34 41C34 41 34 41 34 41C34 41 34 41 34 41C34 41 34 41 34 41C34 41 34 41 34 41C34 41 34 41 34 41C34 41 34 41 34 41C34 41 34 41 34 41C34 41 34 41 34 41C34 41 34 41 34 41C34 41 34 41 34 41C34 41 34 41 34 41C34 41 34 41 34 41C34 41 34 41 34 41C34 41 34 41 34 41C34 41 34 41 34 41C34 41 34 41 34 41C34 41 34 41 34 41C34 41 34 41 34 41C34 41 34 41 34 41C34 41 34 41 34 41C34 41 34 41 34 41C34 41 34 41 34 41C34 41 34 41 34 41C34 41 34 41 34 41C34 41 34 41 34 41C34 41 34 41 34 41C34 41 34 41 34 41C34 41 34 41 34 41C34 41 34 41 34 41C34 41 34 41 34 41C34 41 34 41 34 41C34 41 34 41 34 41C34 41 34 41 34 41C34 41 34 41 34 41C34 41 34 41 34 41C34 41 34 41 34 41C34 41 34 41 34 41C34 41 34 41 34 41C34 41 34 41 34 41C34 41 34 41 34 41C34 41 34 41 34 41C34 41 34 41 34 41C34 41 34 41 34 41C34 41 34 41 34 41C34 41 34 41 34 41C34 41 34 41 34 41C34 41 34 41 34 41C34 41 34 41 34 41C34 41 34 41 34 41C34 41 34 41 34 41C34 41 34 41 34 41C34 41 34 41 34 41C34 41 34 41 34 41C34 41 34 41 34 41C34 41 34 41 34 41C34 41 34 41 34 41C34 41 34 41 34 41C34 41 34 41 34 41C34 41 34 41 34 41C34 41 34 41 34 41C34 41 34 41 34 41C34 41 34 41 34 41C34 41 34 41 34 41C34 41 34 41 34 41C34 41 34 41 34 41C34 41 34 41 34 41C34 41 34 41 34 41C34 41 34 41 34 41C34 41 34 41 34 41C34 41 34 41 34 41C34 41 34 41 34 41C34 41 34 41 34 41C34 41 34 41 34 41C34 41 34 41 34 41C34 41 34 41 34 41C34 41 34 41 34 41C34 41 34 41 34 41C34 41 34 41 34 41C34 41 34 41 34 41C34 41 34 41 34 41C34 41 34 41 34 41C34 41 34 41 34 41C34 41 34 41 34 41C34 41 34 41 34 41C34 41 34 41 34 41C34 41 34 41 34 41C34 41 34 41 34 41C34 41 34 41 34 41C34 41 34 41 34 41C34 41 34 41 34 41C34 41 34 41 34 41C34 41 34 41 34 41C34 41 34 41 34 41C34 41 34 41 34 41C34 41 34 41 34 41C34 41 34 41 34 41C34 41 34 41 34 41C34 41 34 41 34 41C34 41 34 41 34 41C34 41 34 41 34 41C34 41 34 41 34 41C34 41 34 41 34 41C34 41 34 41 34 41C34 41 34 41 34 41C34 41 34 41 34 41C34 41 34 41 34 41C34 41 34 41 34 41C34 41 34 41 34 41C34 41 34 41 34 41C34 41 34 41 34 41C34 41 34 41 34 41C34 41 34 41 34 41C34 41 34 41 34 41C34 41 34 41 34 41C34 41 34 41 34 41C34 41 34 41 34 41C34 41 34 41 34 41C34 41 34 41 34 41C34 41 34 41 34 41C34 41 34 41 34 41C34 41 34 41 34 41C34 41 34 41 34 41C34 41 34 41 34 41C34 41 34 41 34 41C34 41 34 41 34 41C34 41 34 41 34 41C34 41 34 41 34 41C34 41 34 41 34 41C34 41 34 41 34 41C34 41 34 41 34 41C34 41 34 41 34 41C34 41 34 41 34 41C34 41 34 41 34 41C34 41 34 41 34 41C34 41 34 41 34 41C34 41 34 41 34 41C34 41 34 41 34 41C34 41 34 41 34 41C34 41 34 41 34 41C34 41 34 41 34 41C34 41 34 41 34 41C34 41 34 41 34 41C34 41 34 41 34 41C34 41 34 41 34 41C34 41 34 41 34 41C34 41 34 41 34 41C34 41 34 41 34 41C34 41 34 41 34 41C34 41 34 41 34 41C34 41 34 41 34 41C34 41 34 41 34 41C34 41 34 41 34 41C34 41 34 41 34 41C34 41 34 41 34 41C34 41 34 41 34 41C34 41 34 41 34 41C34 41 34 41 34 41C34 41 34 41 34 41C34 41 34 41 34 41C34 41 34 41 34 41C34 41 34 41 34 41C34 41 34 41 34 41C34 41 34 41 34 41C34 41 34 41 34 41C34 41 34 41 34 41C34 41 34 41 34 41C34 41 34 41 34 41C34 41 34 41 34 41C34 41 34 41 34 41C34 41 34 41 34 41C34 41 34 41 34 41C34 41 34 41 34 41C34 41 34 41 34 41C34 41 34 41 34 41C34 41 34 41 34 41C34 41 34 41 34 41C34 41 34 41 34 41C34 41 34 41 34 41C34 41 34 41 34 41C34 41 34 41 34 41C34 41 34 41 34 41C34 41 34 41 34 41C34 41 34 41 34 41C34 41 34 41 34 41C34 41 34 41 34 41C34 41 34 41 34 41C34 41 34 41 34 41C34 41 34 41 34 41C34 41 34 41 34 41C34 41 34 41 34 41C34 41 34 41 34 41C34 41 34 41 34 41C34 41 34 41 34 41C34 41 34 41 34 41C34 41 34 41 34 41C34 41 34 41 34 41C34 41 34 41 34 41C34 41 34 41 34 41C34 41 34 41 34 41C34 41 34 41 34 41C34 41 34 41 34 41C34 41 34 41 34 41C34 41 34 41 34 41C34 41 34 41 34 41C34 41 34 41 34 41C34 41 34 41 34 41C34 41 34 41 34 41C34 41 34 41 34 41.0001C34 41.0001 34 41.0001 34 41.0001C34 41.0001 34 41.0001 34 41.0001C34 41.0001 34 41.0001 34 41.0001C34 41.0001 34 41.0001 34 41.0001C34 41.0001 34 41.0001 34 41.0001C34 41.0001 34 41.0001 34 41.0001C34 41.0001 34 41.0001 34 41.0001C34 41.0001 34 41.0001 34 41.0001C34 41.0001 34 41.0001 34 41.0001C34 41.0001 34 41.0001 34 41.0001C34 41.0001 34 41.0001 34 41.0001C34 41.0001 34 41.0001 34 41.0001C34 41.0001 34 41.0001 34 41.0001C34 41.0001 34 41.0001 34 41.0001C34 41.0001 34 41.0001 34 41.0001C34 41.0001 34 41.0001 34 41.0001C34 41.0001 34 41.0001 34 41.0001C34 41.0001 34 41.0001 34 41.0001C34 41.0001 34 41.0001 34 41.0001C34 41.0001 34 41.0001 34 41.0001C34 41.0001 34 41.0001 34 41.0001C34 41.0001 34 41.0001 34 41.0001C34 41.0001 34 41.0001 34 41.0001C34 41.0001 34 41.0001 34 41.0001C34 41.0001 34 41.0001 34 41.0001C34 41.0001 34 41.0001 34 41.0001C34 41.0001 34 41.0001 34 41.0001C34 41.0001 34 41.0001 34 41.0001C34 41.0001 34 41.0001 34 41.0001C34 41.0001 34 41.0001 34 41.0001C34 41.0001 34 41.0001 34 41.0001C34 41.0001 34 41.0001 34 41.0001C34 41.0001 34 41.0001 34 41.0001C34 41.0001 34 41.0001 34 41.0001C34 41.0001 34 41.0001 34 41.0001C34 41.0001 34 41.0001 34 41.0001C34 41.0001 34 41.0001 34 41.0001C34 41.0001 34 41.0001 34 41.0001C34 41.0001 34 41.0001 34 41.0001C34 41.0001 34 41.0001 34 41.0001C34 41.0001 34 41.0001 34 41.0001C34 41.0001 34 41.0001 34 41.0001C34 41.0001 34 41.0001 34 41.0001C34 41.0001 34 41.0001 34 41.0001C34 41.0001 34 41.0001 34 41.0001C34 41.0001 34 41.0001 34 41.0001C34 41.0001 34 41.0001 34 41.0001C34 41.0001 34 41.0001 34 41.0001C34 41.0001 34 41.0001 34 41.0001C34 41.0001 34 41.0001 34 41.0001C34 41.0001 34 41.0001 34 41.0001C34 41.0001 34 41.0001 34 41.0001C34 41.0001 34 41.0001 34 41.0001C34 41.0001 34 41.0001 34 41.0001C34 41.0001 34 41.0001 34 41.0001C34 41.0001 34 41.0001 34 41.0001C34 41.0001 34 41.0001 34 41.0001C34 41.0001 34 41.0001 34 41.0001C34 41.0001 34 41.0001 34 41.0001C34 41.0001 34 41.0001 34 41.0001C34 41.0001 34 41.0001 34 41.0001C34 41.0001 34 41.0001 34 41.0001C34 41.0001 34 41.0001 34 41.0001C34 41.0001 34 41.0001 34 41.0001C34 41.0001 34 41.0001 34 41.0001C34 41.0001 34 41.0001 34 41.0001C34 41.0001 34 41.0001 34 41.0001C34 41.0001 34 41.0001 34 41.0001C34 41.0001 34 41.0001 34 41.0001C34 41.0001 34 41.0001 34 41.0001C34 41.0001 34 41.0001 34 41.0001C34 41.0001 34 41.0001 34 41.0001C34 41.0001 34 41.0001 34 41.0001C34 41.0001 34 41.0001 34 41.0001C34 41.0001 34 41.0001 34 41.0001C34 41.0001 34 41.0001 34 41.0001C34 41.0001 34 41.0001 34 41.0001C34 41.0001 34 41.0001 34 41.0001C34 41.0001 34 41.0001 34 41.0001C34 41.0001 34 41.0001 34 41.0001C34 41.0001 34 41.0001 34 41.0001C34 41.0001 34 41.0001 34 41.0001C34 41.0001 34 41.0001 34 41.0001C34 41.0001 34 41.0001 34 41.0001C34 41.0001 34 41.0001 34 41.0001C34 41.0001 34 41.0001 34 41.0001C34 41.0001 34 41.0001 34 41.0001C34 41.0001 34 41.0001 34 41.0001C34 41.0001 34 41.0001 34 41.0001C34 41.0001 34 41.0001 34 41.0001C34 41.0001 34 41.0001 34 41.0001C34 41.0001 34 41.0001 34 41.0001C34 41.0001 34 41.0001 34 41.0001C34 41.0001 34 41.0001 34 41.0001C34 41.0001 34 41.0001 34 41.0001C34 41.0001 34 41.0001 34 41.0001C34 41.0001 34 41.0001 34 41.0001C34 41.0001 34 41.0001 34 41.0001C34 41.0001 34 41.0001 34 41.0001C34 41.0001 34 41.0001 34 41.0001C34 41.0001 34 41.0001 34 41.0001C34 41.0001 34 41.0001 34 41.0001C34 41.0001 34 41.0001 34 41.0001C34 41.0001 34 41.0001 34 41.0001C34 41.0001 34 41.0001 34 41.0001C34 41.0001 34 41.0001 34 41.0001C34 41.0001 34 41.0001 34 41.0001C34 41.0001 34 41.0001 34 41.0001C34 41.0001 34 41.0001 34 41.0001C34 41.0001 34 41.0001 34 41.0001C34 41.0001 34 41.0001 34 41.0001C34 41.0001 34 41.0001 34 41.0001C34 41.0001 34 41.0001 34 41.0001C34 41.0001 34 41.0001 34 41.0001C34 41.0001 34 41.0001 34 41.0001C34 41.0001 34 41.0001 34 41.0001C34 41.0001 34 41.0001 34 41.0001C34 41.0001 34 41.0001 34 41.0001C34 41.0001 34 41.0001 34 41.0001C34 41.0001 34 41.0001 34 41.0001C34 41.0001 34 41.0001 34 41.0001C34 41.0001 34 41.0001 34 41.0001C34 41.0001 34 41.0001 34 41.0001C34 41.0001 34 41.0001 34 41.0001C34 41.0001 34 41.0001 34 41.0001C34 41.0001 34 41.0001 34 41.0001C34 41.0001 34 41.0001 34 41.0001C34 41.0001 34 41.0001 34 41.0001C34 41.0001 34 41.0001 34 41.0001C34 41.0001 34 41.0001 34 41.0001C34 41.0001 34 41.0001 34 41.0001C34 41.0001 34 41.0001 34 41.0001C34 41.0001 34 41.0001 34 41.0001C34 41.0001 34 41.0001 34 41.0001C34 41.0001 34 41.0001 34 41.0001C34 41.0001 34 41.0001 34 41.0001C34 41.0001 34 41.0001 34 41.0001C34 41.0001 34 41.0001 34 41.0001C34 41.0001 34 41.0001 34 41.0001C34 41.0001 34 41.0001 34 41.0001C34 41.0001 34 41.0001 34 41.0001C34 41.0001 34 41.0001 34 41.0001C34 41.0001 34 41.0001 34 41.0001C34 41.0001 34 41.0001 34 41.0001C34 41.0001 34 41.0001 34 41.0001C34 41.0001 34 41.0001 34 41.0001C34 41.0001 34 41.0001 34 41.0001C34 41.0001 34 41.0001 34 41.0001C34 41.0001 34 41.0001 34 41.0001C34 41.0001 34 41.0001 34 41.0001C34 41.0001 34 41.0001 34 41.0001C34 41.0001 34 41.0001 34 41.0001C34 41.0001 34 41.0001 34 41.0001C34 41.0001 34 41.0001 34 41.0001C34 41.0001 34 41.0001 34 41.0001C34 41.0001 34 41.0001 34 41.0001C34 41.0001 34 41.0001 34 41.0001C34 41.0001 34 41.0001 34 41.0001C34 41.0001 34 41.0001 34 41.0001C34 41.0001 34 41.0001 34 41.0001C34 41.0001 34 41.0001 34 41.0001C34 41.0001 34 41.0001 34 41.0001C34 41.0001 34 41.0001 34 41.0001C34 41.0001 34 41.0001 34 41.0001C34 41.0001 34 41.0001 34 41.0001C34 41.0001 34 41.0001 34 41.0001C34 41.0001 34 41.0001 34 41.0001C34 41.0001 34 41.0001 34 41.0001C34 41.0001 34 41.0001 34 41.0001C34 41.0001 34 41.0001 34 41.0001C34 41.0001 34 41.0001 34 41.0001C34 41.0001 34 41.0001 34 41.0001C34 41.0001 34 41.0001 34 41.0001C34 41.0001 34 41.0001 34 41.0001C34 41.0001 34 41.0001 34 41.0001C34 41.0001 34 41.0001 34 41.0001C34 41.0001 34 41.0001 34 41.0001C34 41.0001 34 41.0001 34 41.0001C34 41.0001 34 41.0001 34 41.0001C34 41.0001 34 41.0001 34 41.0001C34 41.0001 34 41.0001 34 41.0001C34 41.0001 34 41.0001 34 41.0001C34 41.0001 34 41.0001 34 41.0001C34 41.0001 34 41.0001 34 41.0001C34 41.0001 34 41.0001 34 41.0001C34 41.0001 34 41.0001 34 41.0001C34 41.0001 34 41.0001 34 41.0001C34 41.0001 34 41.0001 34 41.0001C34 41.0001 34 41.0001 34 41.0001C34 41.0001 34 41.0001 34 41.0001C34 41.0001 34 41.0001 34 41.0001C34 41.0001 34 41.0001 34 41.0001C34 41.0001 34 41.0001 34 41.0001C34 41.0001 34 41.0001 34 41.0001C34 41.0001 34 41.0001 34 41.0001C34 41.0001 34 41.0001 34 41.0001C34 41.0001 34 41.0001 34 41.0001C34 41.0001 34 41.0001 34 41.0001C34 41.0001 34 41.0001 34 41.0001C34 41.0001 34 41.0001 34 41.0001C34 41.0001 34 41.0001 34 41.0001C34 41.0001 34 41.0001 34 41.0001C34 41.0001 34 41.0001 34 41.0001C34 41.0001 34 41.0001 34 41.0001C34 41.0001 34 41.0001 34 41.0001C34 41.0001 34 41.0001 34 41.0001C34 41.0001 34 41.0001 34 41.0001C34 41.0001 34 41.0001 34 41.0001C34 41.0001 34 41.0001 34 41.0001C34 41.0001 34 41.0001 34 41.0001C34 41.0001 34 41.0001 34 41.0001C34 41.0001 34 41.0001 34 41.0001C34 41.0001 34 41.0001 34 41.0001C34 41.0001 34 41.0001 34 41.0001C34 41.0001 34 41.0001 34 41.0001C34 41.0001 34 41.0001 34 41.0001C34 41.0001 34 41.0001 34 41.0001C34 41.0001 34 41.0001 34 41.0001C34 41.0001 34 41.0001 34 41.0001C34 41.0001 34 41.0001 34 41.0001C34 41.0001 34 41.0001 34 41.0001C34 41.0001 34 41.0001 34 41.0001C34 41.0001 34 41.0001 34 41.0001C34 41.0001 34 41.0001 34 41.0001C34 41.0001 34 41.0001 34 41.0001C34 41.0001 34 41.0001 34 41.0001C34 41.0001 34 41.0001 34 41.0001C34 41.0001 34 41.0001 34 41.0001C34 41.0001 34 41.0001 34 41.0001C34 41.0001 34 41.0001 34 41.0001C34 41.0001 34 41.0001 34 41.0001C34 41.0001 34 41.0001 34 41.0001C34 41.0001 34 41.0001 34 41.0001C34 41.0001 34 41.0001 34 41.0001C34 41.0001 34 41.0001 34 41.0001C34 41.0001 34 41.0001 34 41.0001C34 41.0001 34 41.0001 34 41.0001C34 41.0001 34 41.0001 34 41.0001C34 41.0001 34 41.0001 34 41.0001C34 41.0001 34 41.0001 34 41.0001C34 41.0001 34 41.0001 34 41.0001C34 41.0001 34 41.0001 34 41.0001C34 41.0001 34 41.0001 34 41.0001C34 41.0001 34 41.0001 34 41.0001C34 41.0001 34 41.0001 34 41.0001C34 41.0001 34 41.0001 34 41.0001C34 41.0001 34 41.0001 34 41.0001C34 41.0001 34 41.0001 34 41.0001C34 41.0001 34 41.0001 34 41.0001C34 41.0001 34 41.0001 34 41.0001C34 41.0001 34 41.0001 34 41.0001C34 41.0001 34 41.0001 34 41.0001C34 41.0001 34 41.0001 34 41.0001C34 41.0001 34 41.0001 34 41.0001C34 41.0001 34 41.0001 34 41.0001C34 41.0001 34 41.0001 34 41.0001C34 41.0001 34 41.0001 34 41.0001C34 41.0001 34 41.0001 34 41.0001C34 41.0001 34 41.0001 34 41.0001C34 41.0001 34 41.0001 34 41.0001C34 41.0001 34 41.0001 34 41.0001C34 41.0001 34 41.0001 34 41.0001C34 41.0001 34 41.0001 34 41.0001C34 41.0001 34 41.0001 34 41.0001C34 41.0001 34 41.0001 34 41.0001C34 41.0001 34 41.0001 34 41.0001C34 41.0001 34 41.0001 34 41.0001C34 41.0001 34 41.0001 34 41.0001C34 41.0001 34 41.0001 34 41.0001C34 41.0001 34 41.0001 34 41.0001C34 41.0001 34 41.0001 34 41.0001C34 41.0001 34 41.0001 34 41.0001C34 41.0001 34 41.0001 34 41.0001C34 41.0001 34 41.0001 34 41.0001C34 41.0001 34 41.0001 34 41.0001C34 41.0001 34 41.0001 34 41.0001C34 41.0001 34 41.0001 34 41.0001C34 41.0001 34 41.0001 34 41.0001C34 41.0001 34 41.0001 34 41.0001C34 41.0001 34 41.0001 34 41.0001C34 41.0001 34 41.0001 34 41.0001C34 41.0001 34 41.0001 34 41.0001C34 41.0001 34 41.0001 34 41.0001C34 41.0001 34 41.0001 34 41.0001C34 41.0001 34 41.0001 34 41.0001C34 41.0001 34 41.0001 34 41.0001C34 41.0001 34 41.0001 34 41.0001C34 41.0001 34 41.0001 34 41.0001C34 41.0001 34 41.0001 34 41.0001C34 41.0001 34 41.0001 34 41.0001C34 41.0001 34 41.0001 34 41.0001C34 41.0001 34 41.0001 34 41.0001C34 41.0001 34 41.0001 34 41.0001C34 41.0001 34 41.0001 34 41.0001C34 41.0001 34 41.0001 34 41.0001C34 41.0001 34 41.0001 34 41.0001C34 41.0001 34 41.0001 34 41.0001C34 41.0001 34 41.0001 34 41.0001C34 41.0001 34 41.0001 34 41.0001C34 41.0001 34 41.0001 34 41.0001C34 41.0001 34 41.0001 34 41.0001C34 41.0001 34 41.0001 34 41.0001H36C36 41.0001 36 41.0001 36 41.0001C36 41.0001 36 41.0001 36 41.0001C36 41.0001 36 41.0001 36 41.0001C36 41.0001 36 41.0001 36 41.0001C36 41.0001 36 41.0001 36 41.0001C36 41.0001 36 41.0001 36 41.0001C36 41.0001 36 41.0001 36 41.0001C36 41.0001 36 41.0001 36 41.0001C36 41.0001 36 41.0001 36 41.0001C36 41.0001 36 41.0001 36 41.0001C36 41.0001 36 41.0001 36 41.0001C36 41.0001 36 41.0001 36 41.0001C36 41.0001 36 41.0001 36 41.0001C36 41.0001 36 41.0001 36 41.0001C36 41.0001 36 41.0001 36 41.0001C36 41.0001 36 41.0001 36 41.0001C36 41.0001 36 41.0001 36 41.0001C36 41.0001 36 41.0001 36 41.0001C36 41.0001 36 41.0001 36 41.0001C36 41.0001 36 41.0001 36 41.0001C36 41.0001 36 41.0001 36 41.0001C36 41.0001 36 41.0001 36 41.0001C36 41.0001 36 41.0001 36 41.0001C36 41.0001 36 41.0001 36 41.0001C36 41.0001 36 41.0001 36 41.0001C36 41.0001 36 41.0001 36 41.0001C36 41.0001 36 41.0001 36 41.0001C36 41.0001 36 41.0001 36 41.0001C36 41.0001 36 41.0001 36 41.0001C36 41.0001 36 41.0001 36 41.0001C36 41.0001 36 41.0001 36 41.0001C36 41.0001 36 41.0001 36 41.0001C36 41.0001 36 41.0001 36 41.0001C36 41.0001 36 41.0001 36 41.0001C36 41.0001 36 41.0001 36 41.0001C36 41.0001 36 41.0001 36 41.0001C36 41.0001 36 41.0001 36 41.0001C36 41.0001 36 41.0001 36 41.0001C36 41.0001 36 41.0001 36 41.0001C36 41.0001 36 41.0001 36 41.0001C36 41.0001 36 41.0001 36 41.0001C36 41.0001 36 41.0001 36 41.0001C36 41.0001 36 41.0001 36 41.0001C36 41.0001 36 41.0001 36 41.0001C36 41.0001 36 41.0001 36 41.0001C36 41.0001 36 41.0001 36 41.0001C36 41.0001 36 41.0001 36 41.0001C36 41.0001 36 41.0001 36 41.0001C36 41.0001 36 41.0001 36 41.0001C36 41.0001 36 41.0001 36 41.0001C36 41.0001 36 41.0001 36 41.0001C36 41.0001 36 41.0001 36 41.0001C36 41.0001 36 41.0001 36 41.0001C36 41.0001 36 41.0001 36 41.0001C36 41.0001 36 41.0001 36 41.0001C36 41.0001 36 41.0001 36 41.0001C36 41.0001 36 41.0001 36 41.0001C36 41.0001 36 41.0001 36 41.0001C36 41.0001 36 41.0001 36 41.0001C36 41.0001 36 41.0001 36 41.0001C36 41.0001 36 41.0001 36 41.0001C36 41.0001 36 41.0001 36 41.0001C36 41.0001 36 41.0001 36 41.0001C36 41.0001 36 41.0001 36 41.0001C36 41.0001 36 41.0001 36 41.0001C36 41.0001 36 41.0001 36 41.0001C36 41.0001 36 41.0001 36 41.0001C36 41.0001 36 41.0001 36 41.0001C36 41.0001 36 41.0001 36 41.0001C36 41.0001 36 41.0001 36 41.0001C36 41.0001 36 41.0001 36 41.0001C36 41.0001 36 41.0001 36 41.0001C36 41.0001 36 41.0001 36 41.0001C36 41.0001 36 41.0001 36 41.0001C36 41.0001 36 41.0001 36 41.0001C36 41.0001 36 41.0001 36 41.0001C36 41.0001 36 41.0001 36 41.0001C36 41.0001 36 41.0001 36 41.0001C36 41.0001 36 41.0001 36 41.0001C36 41.0001 36 41.0001 36 41.0001C36 41.0001 36 41.0001 36 41.0001C36 41.0001 36 41.0001 36 41.0001C36 41.0001 36 41.0001 36 41.0001C36 41.0001 36 41.0001 36 41.0001C36 41.0001 36 41.0001 36 41.0001C36 41.0001 36 41.0001 36 41.0001C36 41.0001 36 41.0001 36 41.0001C36 41.0001 36 41.0001 36 41.0001C36 41.0001 36 41.0001 36 41.0001C36 41.0001 36 41.0001 36 41.0001C36 41.0001 36 41.0001 36 41.0001C36 41.0001 36 41.0001 36 41.0001C36 41.0001 36 41.0001 36 41.0001C36 41.0001 36 41.0001 36 41.0001C36 41.0001 36 41.0001 36 41.0001C36 41.0001 36 41.0001 36 41.0001C36 41.0001 36 41.0001 36 41.0001C36 41.0001 36 41.0001 36 41.0001C36 41.0001 36 41.0001 36 41.0001C36 41.0001 36 41.0001 36 41.0001C36 41.0001 36 41.0001 36 41.0001C36 41.0001 36 41.0001 36 41.0001C36 41.0001 36 41.0001 36 41.0001C36 41.0001 36 41.0001 36 41.0001C36 41.0001 36 41.0001 36 41.0001C36 41.0001 36 41.0001 36 41.0001C36 41.0001 36 41.0001 36 41.0001C36 41.0001 36 41.0001 36 41.0001C36 41.0001 36 41.0001 36 41.0001C36 41.0001 36 41.0001 36 41.0001C36 41.0001 36 41.0001 36 41.0001C36 41.0001 36 41.0001 36 41.0001C36 41.0001 36 41.0001 36 41.0001C36 41.0001 36 41.0001 36 41.0001C36 41.0001 36 41.0001 36 41.0001C36 41.0001 36 41.0001 36 41.0001C36 41.0001 36 41.0001 36 41.0001C36 41.0001 36 41.0001 36 41.0001C36 41.0001 36 41.0001 36 41.0001C36 41.0001 36 41.0001 36 41.0001C36 41.0001 36 41.0001 36 41.0001C36 41.0001 36 41.0001 36 41.0001C36 41.0001 36 41.0001 36 41.0001C36 41.0001 36 41.0001 36 41.0001C36 41.0001 36 41.0001 36 41.0001C36 41.0001 36 41.0001 36 41.0001C36 41.0001 36 41.0001 36 41.0001C36 41.0001 36 41.0001 36 41.0001C36 41.0001 36 41.0001 36 41.0001C36 41.0001 36 41.0001 36 41.0001C36 41.0001 36 41.0001 36 41.0001C36 41.0001 36 41.0001 36 41.0001C36 41.0001 36 41.0001 36 41.0001C36 41.0001 36 41.0001 36 41.0001C36 41.0001 36 41.0001 36 41.0001C36 41.0001 36 41.0001 36 41.0001C36 41.0001 36 41.0001 36 41.0001C36 41.0001 36 41.0001 36 41.0001C36 41.0001 36 41.0001 36 41.0001C36 41.0001 36 41.0001 36 41.0001C36 41.0001 36 41.0001 36 41.0001C36 41.0001 36 41.0001 36 41.0001C36 41.0001 36 41.0001 36 41.0001C36 41.0001 36 41.0001 36 41.0001C36 41.0001 36 41.0001 36 41.0001C36 41.0001 36 41.0001 36 41.0001C36 41.0001 36 41.0001 36 41.0001C36 41.0001 36 41.0001 36 41.0001C36 41.0001 36 41.0001 36 41.0001C36 41.0001 36 41.0001 36 41.0001C36 41.0001 36 41.0001 36 41.0001C36 41.0001 36 41.0001 36 41.0001C36 41.0001 36 41.0001 36 41.0001C36 41.0001 36 41.0001 36 41.0001C36 41.0001 36 41.0001 36 41.0001C36 41.0001 36 41.0001 36 41.0001C36 41.0001 36 41.0001 36 41.0001C36 41.0001 36 41.0001 36 41.0001C36 41.0001 36 41.0001 36 41.0001C36 41.0001 36 41.0001 36 41.0001C36 41.0001 36 41.0001 36 41.0001C36 41.0001 36 41.0001 36 41.0001C36 41.0001 36 41.0001 36 41.0001C36 41.0001 36 41.0001 36 41.0001C36 41.0001 36 41.0001 36 41.0001C36 41.0001 36 41.0001 36 41.0001C36 41.0001 36 41.0001 36 41.0001C36 41.0001 36 41.0001 36 41.0001C36 41.0001 36 41.0001 36 41.0001C36 41.0001 36 41.0001 36 41.0001C36 41.0001 36 41.0001 36 41.0001C36 41.0001 36 41.0001 36 41.0001C36 41.0001 36 41.0001 36 41.0001C36 41.0001 36 41.0001 36 41.0001C36 41.0001 36 41.0001 36 41.0001C36 41.0001 36 41.0001 36 41.0001C36 41.0001 36 41.0001 36 41.0001C36 41.0001 36 41.0001 36 41.0001C36 41.0001 36 41.0001 36 41.0001C36 41.0001 36 41.0001 36 41.0001C36 41.0001 36 41.0001 36 41.0001C36 41.0001 36 41.0001 36 41.0001C36 41.0001 36 41.0001 36 41.0001C36 41.0001 36 41.0001 36 41.0001C36 41.0001 36 41.0001 36 41.0001C36 41.0001 36 41.0001 36 41.0001C36 41.0001 36 41.0001 36 41.0001C36 41.0001 36 41.0001 36 41.0001C36 41.0001 36 41.0001 36 41.0001C36 41.0001 36 41.0001 36 41.0001C36 41.0001 36 41.0001 36 41.0001C36 41.0001 36 41.0001 36 41.0001C36 41.0001 36 41.0001 36 41.0001C36 41.0001 36 41.0001 36 41.0001C36 41.0001 36 41.0001 36 41.0001C36 41.0001 36 41.0001 36 41.0001C36 41.0001 36 41.0001 36 41.0001C36 41.0001 36 41.0001 36 41.0001C36 41.0001 36 41.0001 36 41.0001C36 41.0001 36 41.0001 36 41.0001C36 41.0001 36 41.0001 36 41.0001C36 41.0001 36 41.0001 36 41.0001C36 41.0001 36 41.0001 36 41.0001C36 41.0001 36 41.0001 36 41.0001C36 41.0001 36 41.0001 36 41.0001C36 41.0001 36 41.0001 36 41.0001C36 41.0001 36 41.0001 36 41.0001C36 41.0001 36 41.0001 36 41.0001C36 41.0001 36 41.0001 36 41.0001C36 41.0001 36 41.0001 36 41.0001C36 41.0001 36 41.0001 36 41.0001C36 41.0001 36 41.0001 36 41.0001C36 41.0001 36 41.0001 36 41.0001C36 41.0001 36 41.0001 36 41.0001C36 41.0001 36 41.0001 36 41.0001C36 41.0001 36 41.0001 36 41.0001C36 41.0001 36 41.0001 36 41.0001C36 41.0001 36 41.0001 36 41.0001C36 41.0001 36 41.0001 36 41.0001C36 41.0001 36 41.0001 36 41.0001C36 41.0001 36 41.0001 36 41.0001C36 41.0001 36 41.0001 36 41.0001C36 41.0001 36 41.0001 36 41.0001C36 41.0001 36 41.0001 36 41.0001C36 41.0001 36 41.0001 36 41.0001C36 41.0001 36 41.0001 36 41.0001C36 41.0001 36 41.0001 36 41.0001C36 41.0001 36 41.0001 36 41.0001C36 41.0001 36 41.0001 36 41.0001C36 41.0001 36 41.0001 36 41.0001C36 41.0001 36 41.0001 36 41.0001C36 41.0001 36 41.0001 36 41.0001C36 41.0001 36 41.0001 36 41.0001C36 41.0001 36 41.0001 36 41.0001C36 41.0001 36 41.0001 36 41.0001C36 41.0001 36 41.0001 36 41.0001C36 41.0001 36 41.0001 36 41.0001C36 41.0001 36 41.0001 36 41.0001C36 41.0001 36 41.0001 36 41.0001C36 41.0001 36 41.0001 36 41.0001C36 41.0001 36 41.0001 36 41.0001C36 41.0001 36 41.0001 36 41.0001C36 41.0001 36 41.0001 36 41.0001C36 41.0001 36 41.0001 36 41.0001C36 41.0001 36 41.0001 36 41.0001C36 41.0001 36 41.0001 36 41.0001C36 41.0001 36 41.0001 36 41.0001C36 41.0001 36 41.0001 36 41.0001C36 41.0001 36 41.0001 36 41.0001C36 41.0001 36 41.0001 36 41.0001C36 41.0001 36 41.0001 36 41.0001C36 41.0001 36 41.0001 36 41.0001C36 41.0001 36 41.0001 36 41.0001C36 41.0001 36 41.0001 36 41.0001C36 41.0001 36 41.0001 36 41.0001C36 41.0001 36 41.0001 36 41.0001C36 41.0001 36 41.0001 36 41.0001C36 41.0001 36 41.0001 36 41.0001C36 41.0001 36 41.0001 36 41.0001C36 41.0001 36 41.0001 36 41.0001C36 41.0001 36 41.0001 36 41.0001C36 41.0001 36 41.0001 36 41.0001C36 41.0001 36 41.0001 36 41.0001C36 41.0001 36 41.0001 36 41.0001C36 41.0001 36 41.0001 36 41.0001C36 41.0001 36 41.0001 36 41.0001C36 41.0001 36 41.0001 36 41.0001C36 41.0001 36 41.0001 36 41.0001C36 41.0001 36 41.0001 36 41.0001C36 41.0001 36 41.0001 36 41.0001C36 41.0001 36 41.0001 36 41.0001C36 41.0001 36 41.0001 36 41.0001C36 41.0001 36 41.0001 36 41.0001C36 41.0001 36 41.0001 36 41.0001C36 41.0001 36 41.0001 36 41.0001C36 41.0001 36 41.0001 36 41.0001C36 41.0001 36 41.0001 36 41.0001C36 41.0001 36 41.0001 36 41.0001C36 41.0001 36 41.0001 36 41.0001C36 41.0001 36 41.0001 36 41.0001C36 41.0001 36 41.0001 36 41.0001C36 41.0001 36 41.0001 36 41.0001C36 41.0001 36 41.0001 36 41.0001C36 41.0001 36 41.0001 36 41.0001C36 41.0001 36 41.0001 36 41.0001C36 41.0001 36 41.0001 36 41.0001C36 41.0001 36 41.0001 36 41.0001C36 41.0001 36 41.0001 36 41.0001C36 41.0001 36 41.0001 36 41.0001C36 41.0001 36 41.0001 36 41.0001C36 41.0001 36 41.0001 36 41.0001C36 41.0001 36 41.0001 36 41.0001C36 41.0001 36 41.0001 36 41.0001C36 41.0001 36 41.0001 36 41.0001C36 41.0001 36 41.0001 36 41.0001C36 41.0001 36 41.0001 36 41.0001C36 41.0001 36 41.0001 36 41.0001C36 41.0001 36 41.0001 36 41.0001C36 41.0001 36 41.0001 36 41.0001C36 41.0001 36 41.0001 36 41.0001C36 41.0001 36 41.0001 36 41.0001C36 41.0001 36 41.0001 36 41.0001C36 41 36 41 36 41C36 41 36 41 36 41C36 41 36 41 36 41C36 41 36 41 36 41C36 41 36 41 36 41C36 41 36 41 36 41C36 41 36 41 36 41C36 41 36 41 36 41C36 41 36 41 36 41C36 41 36 41 36 41C36 41 36 41 36 41C36 41 36 41 36 41C36 41 36 41 36 41C36 41 36 41 36 41C36 41 36 41 36 41C36 41 36 41 36 41C36 41 36 41 36 41C36 41 36 41 36 41C36 41 36 41 36 41C36 41 36 41 36 41C36 41 36 41 36 41C36 41 36 41 36 41C36 41 36 41 36 41C36 41 36 41 36 41C36 41 36 41 36 41C36 41 36 41 36 41C36 41 36 41 36 41C36 41 36 41 36 41C36 41 36 41 36 41C36 41 36 41 36 41C36 41 36 41 36 41C36 41 36 41 36 41C36 41 36 41 36 41C36 41 36 41 36 41C36 41 36 41 36 41C36 41 36 41 36 41C36 41 36 41 36 41C36 41 36 41 36 41C36 41 36 41 36 41C36 41 36 41 36 41C36 41 36 41 36 41C36 41 36 41 36 41C36 41 36 41 36 41C36 41 36 41 36 41C36 41 36 41 36 41C36 41 36 41 36 41C36 41 36 41 36 41C36 41 36 41 36 41C36 41 36 41 36 41C36 41 36 41 36 41C36 41 36 41 36 41C36 41 36 41 36 41C36 41 36 41 36 41C36 41 36 41 36 41C36 41 36 41 36 41C36 41 36 41 36 41C36 41 36 41 36 41C36 41 36 41 36 41C36 41 36 41 36 41C36 41 36 41 36 41C36 41 36 41 36 41C36 41 36 41 36 41C36 41 36 41 36 41C36 41 36 41 36 41C36 41 36 41 36 41C36 41 36 41 36 41C36 41 36 41 36 41C36 41 36 41 36 41C36 41 36 41 36 41C36 41 36 41 36 41C36 41 36 41 36 41C36 41 36 41 36 41C36 41 36 41 36 41C36 41 36 41 36 41C36 41 36 41 36 41C36 41 36 41 36 41C36 41 36 41 36 41C36 41 36 41 36 41C36 41 36 41 36 41C36 41 36 41 36 41C36 41 36 41 36 41C36 41 36 41 36 41C36 41 36 41 36 41C36 41 36 41 36 41C36 41 36 41 36 41C36 41 36 41 36 41C36 41 36 41 36 41C36 41 36 41 36 41C36 41 36 41 36 41C36 41 36 41 36 41C36 41 36 41 36 41C36 41 36 41 36 41C36 41 36 41 36 41C36 41 36 41 36 41C36 41 36 41 36 41C36 41 36 41 36 41C36 41 36 41 36 41C36 41 36 41 36 41C36 41 36 41 36 41C36 41 36 41 36 41C36 41 36 41 36 41C36 41 36 41 36 41C36 41 36 41 36 41C36 41 36 41 36 41C36 41 36 41 36 41C36 41 36 41 36 41C36 41 36 41 36 41C36 41 36 41 36 41C36 41 36 41 36 41C36 41 36 41 36 41C36 41 36 41 36 41C36 41 36 41 36 41C36 41 36 41 36 41C36 41 36 41 36 41C36 41 36 41 36 41C36 41 36 41 36 41C36 41 36 41 36 41C36 41 36 41 36 41C36 41 36 41 36 41C36 41 36 41 36 41C36 41 36 41 36 41C36 41 36 41 36 41C36 41 36 41 36 41C36 41 36 41 36 41C36 41 36 41 36 41C36 41 36 41 36 41C36 41 36 41 36 41C36 41 36 41 36 41C36 41 36 41 36 41C36 41 36 41 36 41C36 41 36 41 36 41C36 41 36 41 36 41C36 41 36 41 36 41C36 41 36 41 36 41C36 41 36 41 36 41C36 41 36 41 36 41C36 41 36 41 36 41C36 41 36 41 36 41C36 41 36 41 36 41C36 41 36 41 36 41C36 41 36 41 36 41C36 41 36 41 36 41C36 41 36 41 36 41C36 41 36 41 36 41C36 41 36 41 36 41C36 41 36 41 36 41C36 41 36 41 36 41C36 41 36 41 36 41C36 41 36 41 36 41C36 41 36 41 36 41C36 41 36 41 36 41C36 41 36 41 36 41C36 41 36 41 36 41C36 41 36 41 36 41C36 41 36 41 36 41C36 41 36 41 36 41C36 41 36 41 36 41C36 41 36 41 36 41C36 41 36 41 36 41C36 41 36 41 36 41C36 41 36 41 36 41C36 41 36 41 36 41C36 41 36 41 36 41C36 41 36 41 36 41C36 41 36 41 36 41C36 41 36 41 36 41C36 41 36 41 36 41C36 41 36 41 36 41C36 41 36 41 36 41C36 41 36 41 36 41C36 41 36 41 36 41C36 41 36 41 36 41C36 41 36 41 36 41C36 41 36 41 36 41C36 41 36 41 36 41C36 41 36 41 36 41C36 41 36 41 36 41C36 41 36 41 36 41C36 41 36 41 36 41C36 41 36 41 36 41C36 41 36 41 36 41C36 41 36 41 36 41C36 41 36 41 36 41C36 41 36 41 36 41C36 41 36 41 36 41C36 41 36 41 36 41C36 41 36 41 36 41C36 41 36 41 36 41C36 41 36 41 36 41C36 41 36 41 36 41C36 41 36 41 36 41C36 41 36 41 36 41C36 41 36 41 36 41C36 41 36 41 36 41C36 41 36 41 36 41C36 41 36 41 36 41C36 41 36 41 36 41C36 41 36 41 36 41C36 41 36 41 36 41C36 41 36 41 36 41C36 41 36 41 36 41C36 41 36 41 36 41C36 41 36 41 36 41C36 41 36 41 36 41C36 41 36 41 36 41C36 41 36 41 36 41C36 41 36 41 36 41C36 41 36 41 36 41C36 41 36 41 36 41C36 41 36 41 36 41H34ZM35 40H29V42H35V40Z" fill="white" mask="url(#path-5-inside-2_2098_174079)"/>
<line x1="30.5" y1="38" x2="30.5" y2="27" stroke="white"/>
<line x1="33.5" y1="38" x2="33.5" y2="32" stroke="white"/>
<circle cx="30.5" cy="26.5" r="1" fill="url(#paint1_linear_2098_174079)" stroke="white"/>
<circle cx="33.5" cy="31.5" r="1" fill="url(#paint2_linear_2098_174079)" stroke="white"/>
<mask id="path-11-inside-3_2098_174079" fill="white">
<path fill-rule="evenodd" clip-rule="evenodd" d="M32 64C28.2308 64 25 66.6471 25 70.8824C25 73.1453 25.6767 74.4529 26.3873 75.826C27.1729 77.3441 28 78.9423 28 82H31.9999H32H35.9999C35.9999 78.9423 36.827 77.3441 37.6126 75.826C38.3232 74.4529 38.9999 73.1453 38.9999 70.8824C38.9999 66.6471 35.7692 64 32 64Z"/>
</mask>
<path d="M26.3873 75.826L25.4992 76.2856H25.4992L26.3873 75.826ZM28 82H27V83H28V82ZM35.9999 82V83H36.9999V82H35.9999ZM37.6126 75.826L36.7245 75.3664L37.6126 75.826ZM26 70.8824C26 67.265 28.715 65 32 65V63C27.7466 63 24 66.0291 24 70.8824H26ZM27.2754 75.3664C26.5795 74.0217 26 72.8936 26 70.8824H24C24 73.397 24.7739 74.8841 25.4992 76.2856L27.2754 75.3664ZM29 82C29 78.7047 28.0878 76.9362 27.2754 75.3664L25.4992 76.2856C26.258 77.752 27 79.1798 27 82H29ZM31.9999 81H28V83H31.9999V81ZM31.9999 83H32V81H31.9999V83ZM32 83H35.9999V81H32V83ZM36.9999 82C36.9999 79.1798 37.7419 77.752 38.5008 76.2856L36.7245 75.3664C35.9121 76.9362 34.9999 78.7047 34.9999 82H36.9999ZM38.5008 76.2856C39.2261 74.8841 39.9999 73.397 39.9999 70.8824H37.9999C37.9999 72.8936 37.4204 74.0217 36.7245 75.3664L38.5008 76.2856ZM39.9999 70.8824C39.9999 66.0291 36.2534 63 32 63V65C35.285 65 37.9999 67.265 37.9999 70.8824H39.9999Z" fill="#020216" mask="url(#path-11-inside-3_2098_174079)"/>
<rect x="28.5" y="83.5" width="7" height="2" rx="1" fill="url(#paint3_linear_2098_174079)" stroke="#020216"/>
<mask id="path-14-inside-4_2098_174079" fill="white">
<path fill-rule="evenodd" clip-rule="evenodd" d="M29 84.9999C29 84.9999 29 85 29 85C29 86.6569 30.3431 88 32 88C33.6569 88 35 86.6569 35 85C35 85 35 84.9999 35 84.9999H29Z"/>
</mask>
<path d="M29 84.9999V83.9999H28V84.9999H29ZM35 84.9999H36V83.9999H35V84.9999ZM30 85C30 85 30 85 30 85C30 85 30 84.9999 30 84.9999H28C28 84.9999 28 84.9999 28 84.9999C28 84.9999 28 85 28 85H30ZM32 87C30.8954 87 30 86.1046 30 85H28C28 87.2091 29.7909 89 32 89V87ZM34 85C34 86.1046 33.1046 87 32 87V89C34.2091 89 36 87.2091 36 85H34ZM34 84.9999C34 84.9999 34 84.9999 34 84.9999C34 84.9999 34 84.9999 34 84.9999C34 84.9999 34 84.9999 34 84.9999C34 84.9999 34 84.9999 34 84.9999C34 84.9999 34 84.9999 34 84.9999C34 84.9999 34 84.9999 34 84.9999C34 84.9999 34 84.9999 34 84.9999C34 84.9999 34 84.9999 34 84.9999C34 84.9999 34 84.9999 34 84.9999C34 84.9999 34 84.9999 34 84.9999C34 84.9999 34 84.9999 34 84.9999C34 84.9999 34 84.9999 34 84.9999C34 84.9999 34 84.9999 34 84.9999C34 84.9999 34 84.9999 34 84.9999C34 84.9999 34 84.9999 34 84.9999C34 84.9999 34 84.9999 34 84.9999C34 84.9999 34 84.9999 34 84.9999C34 84.9999 34 84.9999 34 84.9999C34 84.9999 34 84.9999 34 84.9999C34 84.9999 34 84.9999 34 84.9999C34 84.9999 34 84.9999 34 84.9999C34 84.9999 34 84.9999 34 84.9999C34 84.9999 34 84.9999 34 84.9999C34 84.9999 34 84.9999 34 84.9999C34 84.9999 34 84.9999 34 84.9999C34 84.9999 34 84.9999 34 84.9999C34 84.9999 34 84.9999 34 84.9999C34 84.9999 34 84.9999 34 84.9999C34 84.9999 34 84.9999 34 84.9999C34 84.9999 34 84.9999 34 84.9999C34 84.9999 34 84.9999 34 84.9999C34 84.9999 34 84.9999 34 84.9999C34 84.9999 34 84.9999 34 84.9999C34 84.9999 34 84.9999 34 84.9999C34 84.9999 34 84.9999 34 84.9999C34 84.9999 34 84.9999 34 84.9999C34 84.9999 34 84.9999 34 84.9999C34 84.9999 34 84.9999 34 84.9999C34 84.9999 34 84.9999 34 84.9999C34 84.9999 34 84.9999 34 84.9999C34 84.9999 34 84.9999 34 84.9999C34 84.9999 34 84.9999 34 84.9999C34 84.9999 34 84.9999 34 84.9999C34 84.9999 34 84.9999 34 84.9999C34 84.9999 34 84.9999 34 84.9999C34 84.9999 34 84.9999 34 84.9999C34 84.9999 34 84.9999 34 84.9999C34 84.9999 34 84.9999 34 84.9999C34 84.9999 34 84.9999 34 84.9999C34 84.9999 34 84.9999 34 84.9999C34 84.9999 34 84.9999 34 84.9999C34 84.9999 34 84.9999 34 84.9999C34 84.9999 34 84.9999 34 84.9999C34 84.9999 34 84.9999 34 84.9999C34 84.9999 34 84.9999 34 84.9999C34 84.9999 34 84.9999 34 84.9999C34 84.9999 34 84.9999 34 84.9999C34 84.9999 34 84.9999 34 84.9999C34 84.9999 34 84.9999 34 84.9999C34 84.9999 34 84.9999 34 84.9999C34 84.9999 34 84.9999 34 84.9999C34 84.9999 34 84.9999 34 84.9999C34 84.9999 34 84.9999 34 84.9999C34 84.9999 34 84.9999 34 84.9999C34 84.9999 34 84.9999 34 84.9999C34 84.9999 34 84.9999 34 84.9999C34 84.9999 34 84.9999 34 84.9999C34 84.9999 34 84.9999 34 84.9999C34 84.9999 34 84.9999 34 84.9999C34 84.9999 34 84.9999 34 84.9999C34 84.9999 34 84.9999 34 84.9999C34 84.9999 34 84.9999 34 84.9999C34 84.9999 34 84.9999 34 84.9999C34 84.9999 34 84.9999 34 84.9999C34 84.9999 34 84.9999 34 84.9999C34 84.9999 34 84.9999 34 84.9999C34 84.9999 34 84.9999 34 84.9999C34 84.9999 34 84.9999 34 84.9999C34 84.9999 34 84.9999 34 84.9999C34 84.9999 34 84.9999 34 84.9999C34 84.9999 34 84.9999 34 84.9999C34 84.9999 34 84.9999 34 84.9999C34 84.9999 34 84.9999 34 84.9999C34 84.9999 34 84.9999 34 84.9999C34 84.9999 34 84.9999 34 84.9999C34 84.9999 34 84.9999 34 84.9999C34 84.9999 34 84.9999 34 84.9999C34 84.9999 34 84.9999 34 84.9999C34 84.9999 34 84.9999 34 84.9999C34 84.9999 34 84.9999 34 84.9999C34 84.9999 34 84.9999 34 84.9999C34 84.9999 34 84.9999 34 84.9999C34 84.9999 34 84.9999 34 84.9999C34 84.9999 34 84.9999 34 84.9999C34 84.9999 34 84.9999 34 84.9999C34 84.9999 34 84.9999 34 84.9999C34 84.9999 34 84.9999 34 84.9999C34 84.9999 34 84.9999 34 84.9999C34 84.9999 34 84.9999 34 84.9999C34 84.9999 34 84.9999 34 84.9999C34 84.9999 34 84.9999 34 84.9999C34 84.9999 34 84.9999 34 84.9999C34 84.9999 34 84.9999 34 84.9999C34 84.9999 34 84.9999 34 84.9999C34 84.9999 34 84.9999 34 84.9999C34 84.9999 34 84.9999 34 84.9999C34 84.9999 34 84.9999 34 84.9999C34 84.9999 34 84.9999 34 84.9999C34 84.9999 34 84.9999 34 84.9999C34 84.9999 34 84.9999 34 84.9999C34 84.9999 34 84.9999 34 84.9999C34 84.9999 34 84.9999 34 84.9999C34 84.9999 34 84.9999 34 84.9999C34 84.9999 34 84.9999 34 84.9999C34 84.9999 34 84.9999 34 84.9999C34 84.9999 34 84.9999 34 84.9999C34 84.9999 34 84.9999 34 84.9999C34 84.9999 34 84.9999 34 84.9999C34 84.9999 34 84.9999 34 84.9999C34 84.9999 34 84.9999 34 84.9999C34 84.9999 34 84.9999 34 84.9999C34 84.9999 34 84.9999 34 84.9999C34 84.9999 34 84.9999 34 84.9999C34 84.9999 34 84.9999 34 84.9999C34 84.9999 34 84.9999 34 84.9999C34 84.9999 34 84.9999 34 84.9999C34 84.9999 34 84.9999 34 84.9999C34 84.9999 34 84.9999 34 84.9999C34 84.9999 34 84.9999 34 84.9999C34 84.9999 34 84.9999 34 84.9999C34 84.9999 34 84.9999 34 84.9999C34 84.9999 34 84.9999 34 84.9999C34 84.9999 34 84.9999 34 84.9999C34 84.9999 34 84.9999 34 84.9999C34 84.9999 34 84.9999 34 84.9999C34 84.9999 34 84.9999 34 84.9999C34 84.9999 34 84.9999 34 84.9999C34 84.9999 34 84.9999 34 84.9999C34 84.9999 34 84.9999 34 84.9999C34 84.9999 34 84.9999 34 84.9999C34 84.9999 34 84.9999 34 84.9999C34 84.9999 34 84.9999 34 84.9999C34 84.9999 34 84.9999 34 84.9999C34 84.9999 34 84.9999 34 84.9999C34 84.9999 34 84.9999 34 84.9999C34 84.9999 34 84.9999 34 84.9999C34 84.9999 34 84.9999 34 84.9999C34 84.9999 34 84.9999 34 84.9999C34 84.9999 34 84.9999 34 84.9999C34 84.9999 34 84.9999 34 84.9999C34 84.9999 34 84.9999 34 84.9999C34 84.9999 34 84.9999 34 84.9999C34 84.9999 34 84.9999 34 84.9999C34 84.9999 34 84.9999 34 84.9999C34 84.9999 34 84.9999 34 84.9999C34 84.9999 34 84.9999 34 84.9999C34 84.9999 34 84.9999 34 84.9999C34 84.9999 34 84.9999 34 84.9999C34 84.9999 34 84.9999 34 84.9999C34 84.9999 34 84.9999 34 84.9999C34 84.9999 34 84.9999 34 84.9999C34 84.9999 34 84.9999 34 84.9999C34 84.9999 34 84.9999 34 84.9999C34 84.9999 34 84.9999 34 84.9999C34 84.9999 34 84.9999 34 84.9999C34 84.9999 34 84.9999 34 84.9999C34 84.9999 34 84.9999 34 84.9999C34 84.9999 34 84.9999 34 84.9999C34 84.9999 34 84.9999 34 84.9999C34 84.9999 34 84.9999 34 84.9999C34 84.9999 34 84.9999 34 84.9999C34 84.9999 34 84.9999 34 84.9999C34 84.9999 34 84.9999 34 84.9999C34 84.9999 34 84.9999 34 84.9999C34 84.9999 34 84.9999 34 84.9999C34 84.9999 34 84.9999 34 84.9999C34 84.9999 34 84.9999 34 84.9999C34 84.9999 34 84.9999 34 84.9999C34 84.9999 34 84.9999 34 84.9999C34 84.9999 34 84.9999 34 84.9999C34 84.9999 34 84.9999 34 84.9999C34 84.9999 34 84.9999 34 84.9999C34 84.9999 34 84.9999 34 84.9999C34 84.9999 34 84.9999 34 84.9999C34 84.9999 34 84.9999 34 84.9999C34 84.9999 34 84.9999 34 84.9999C34 84.9999 34 84.9999 34 84.9999C34 84.9999 34 84.9999 34 84.9999C34 84.9999 34 84.9999 34 84.9999C34 84.9999 34 84.9999 34 84.9999C34 84.9999 34 84.9999 34 84.9999C34 84.9999 34 84.9999 34 84.9999C34 84.9999 34 84.9999 34 84.9999C34 84.9999 34 84.9999 34 84.9999C34 84.9999 34 84.9999 34 84.9999C34 84.9999 34 84.9999 34 84.9999C34 84.9999 34 84.9999 34 84.9999C34 84.9999 34 84.9999 34 84.9999C34 84.9999 34 84.9999 34 84.9999C34 84.9999 34 84.9999 34 84.9999C34 84.9999 34 84.9999 34 84.9999C34 84.9999 34 84.9999 34 84.9999C34 84.9999 34 84.9999 34 84.9999C34 84.9999 34 84.9999 34 84.9999C34 84.9999 34 84.9999 34 84.9999C34 84.9999 34 84.9999 34 84.9999C34 84.9999 34 84.9999 34 84.9999C34 84.9999 34 84.9999 34 84.9999C34 84.9999 34 84.9999 34 84.9999C34 84.9999 34 84.9999 34 84.9999C34 84.9999 34 84.9999 34 84.9999C34 84.9999 34 84.9999 34 84.9999C34 84.9999 34 84.9999 34 84.9999C34 84.9999 34 84.9999 34 84.9999C34 84.9999 34 84.9999 34 84.9999C34 84.9999 34 84.9999 34 84.9999C34 84.9999 34 84.9999 34 84.9999C34 84.9999 34 84.9999 34 84.9999C34 84.9999 34 84.9999 34 84.9999C34 84.9999 34 84.9999 34 84.9999C34 84.9999 34 84.9999 34 84.9999C34 84.9999 34 84.9999 34 84.9999C34 84.9999 34 84.9999 34 84.9999C34 84.9999 34 84.9999 34 84.9999C34 84.9999 34 84.9999 34 84.9999C34 84.9999 34 84.9999 34 84.9999C34 84.9999 34 84.9999 34 84.9999C34 84.9999 34 84.9999 34 84.9999C34 84.9999 34 84.9999 34 84.9999C34 84.9999 34 84.9999 34 84.9999C34 84.9999 34 84.9999 34 84.9999C34 84.9999 34 84.9999 34 84.9999C34 84.9999 34 84.9999 34 84.9999C34 84.9999 34 84.9999 34 84.9999C34 84.9999 34 84.9999 34 84.9999C34 84.9999 34 84.9999 34 84.9999C34 84.9999 34 84.9999 34 84.9999C34 84.9999 34 84.9999 34 84.9999C34 84.9999 34 84.9999 34 84.9999C34 84.9999 34 84.9999 34 84.9999C34 84.9999 34 84.9999 34 84.9999C34 84.9999 34 84.9999 34 84.9999C34 84.9999 34 84.9999 34 84.9999C34 84.9999 34 84.9999 34 84.9999C34 84.9999 34 84.9999 34 84.9999C34 84.9999 34 84.9999 34 84.9999C34 84.9999 34 84.9999 34 84.9999C34 84.9999 34 84.9999 34 84.9999C34 84.9999 34 84.9999 34 84.9999C34 84.9999 34 84.9999 34 84.9999C34 84.9999 34 84.9999 34 84.9999C34 84.9999 34 84.9999 34 84.9999C34 84.9999 34 84.9999 34 84.9999C34 84.9999 34 84.9999 34 84.9999C34 84.9999 34 84.9999 34 84.9999C34 84.9999 34 84.9999 34 84.9999C34 84.9999 34 84.9999 34 84.9999C34 84.9999 34 84.9999 34 84.9999C34 84.9999 34 84.9999 34 84.9999C34 84.9999 34 84.9999 34 84.9999C34 84.9999 34 84.9999 34 84.9999C34 84.9999 34 84.9999 34 84.9999C34 84.9999 34 84.9999 34 84.9999C34 84.9999 34 84.9999 34 84.9999C34 84.9999 34 84.9999 34 84.9999C34 84.9999 34 84.9999 34 84.9999C34 84.9999 34 84.9999 34 84.9999C34 84.9999 34 84.9999 34 84.9999C34 84.9999 34 84.9999 34 84.9999C34 84.9999 34 84.9999 34 84.9999C34 84.9999 34 84.9999 34 84.9999C34 84.9999 34 84.9999 34 84.9999C34 84.9999 34 84.9999 34 84.9999C34 84.9999 34 84.9999 34 84.9999C34 84.9999 34 84.9999 34 84.9999C34 84.9999 34 84.9999 34 84.9999C34 84.9999 34 84.9999 34 84.9999C34 84.9999 34 84.9999 34 84.9999C34 84.9999 34 84.9999 34 84.9999C34 84.9999 34 84.9999 34 84.9999C34 84.9999 34 84.9999 34 84.9999C34 84.9999 34 84.9999 34 84.9999C34 84.9999 34 84.9999 34 84.9999C34 84.9999 34 84.9999 34 84.9999C34 84.9999 34 84.9999 34 84.9999C34 84.9999 34 84.9999 34 84.9999C34 84.9999 34 84.9999 34 84.9999C34 84.9999 34 84.9999 34 84.9999C34 84.9999 34 84.9999 34 84.9999C34 84.9999 34 84.9999 34 84.9999C34 84.9999 34 84.9999 34 84.9999C34 84.9999 34 84.9999 34 84.9999C34 84.9999 34 84.9999 34 84.9999C34 84.9999 34 84.9999 34 84.9999C34 84.9999 34 84.9999 34 84.9999C34 84.9999 34 84.9999 34 84.9999C34 84.9999 34 84.9999 34 84.9999C34 84.9999 34 84.9999 34 84.9999C34 84.9999 34 84.9999 34 84.9999C34 84.9999 34 84.9999 34 84.9999C34 84.9999 34 84.9999 34 84.9999C34 84.9999 34 84.9999 34 84.9999C34 85 34 85 34 85C34 85 34 85 34 85C34 85 34 85 34 85C34 85 34 85 34 85C34 85 34 85 34 85C34 85 34 85 34 85C34 85 34 85 34 85C34 85 34 85 34 85C34 85 34 85 34 85C34 85 34 85 34 85C34 85 34 85 34 85C34 85 34 85 34 85C34 85 34 85 34 85C34 85 34 85 34 85C34 85 34 85 34 85C34 85 34 85 34 85C34 85 34 85 34 85C34 85 34 85 34 85C34 85 34 85 34 85C34 85 34 85 34 85C34 85 34 85 34 85C34 85 34 85 34 85C34 85 34 85 34 85C34 85 34 85 34 85C34 85 34 85 34 85C34 85 34 85 34 85C34 85 34 85 34 85C34 85 34 85 34 85C34 85 34 85 34 85C34 85 34 85 34 85C34 85 34 85 34 85C34 85 34 85 34 85C34 85 34 85 34 85C34 85 34 85 34 85C34 85 34 85 34 85C34 85 34 85 34 85C34 85 34 85 34 85C34 85 34 85 34 85C34 85 34 85 34 85C34 85 34 85 34 85C34 85 34 85 34 85C34 85 34 85 34 85C34 85 34 85 34 85C34 85 34 85 34 85C34 85 34 85 34 85C34 85 34 85 34 85C34 85 34 85 34 85C34 85 34 85 34 85C34 85 34 85 34 85C34 85 34 85 34 85C34 85 34 85 34 85C34 85 34 85 34 85C34 85 34 85 34 85C34 85 34 85 34 85C34 85 34 85 34 85C34 85 34 85 34 85C34 85 34 85 34 85C34 85 34 85 34 85C34 85 34 85 34 85C34 85 34 85 34 85C34 85 34 85 34 85C34 85 34 85 34 85C34 85 34 85 34 85C34 85 34 85 34 85C34 85 34 85 34 85C34 85 34 85 34 85C34 85 34 85 34 85C34 85 34 85 34 85C34 85 34 85 34 85C34 85 34 85 34 85C34 85 34 85 34 85C34 85 34 85 34 85C34 85 34 85 34 85C34 85 34 85 34 85C34 85 34 85 34 85C34 85 34 85 34 85C34 85 34 85 34 85C34 85 34 85 34 85C34 85 34 85 34 85C34 85 34 85 34 85C34 85 34 85 34 85C34 85 34 85 34 85C34 85 34 85 34 85C34 85 34 85 34 85C34 85 34 85 34 85C34 85 34 85 34 85C34 85 34 85 34 85C34 85 34 85 34 85C34 85 34 85 34 85C34 85 34 85 34 85C34 85 34 85 34 85C34 85 34 85 34 85C34 85 34 85 34 85C34 85 34 85 34 85C34 85 34 85 34 85C34 85 34 85 34 85C34 85 34 85 34 85C34 85 34 85 34 85C34 85 34 85 34 85C34 85 34 85 34 85C34 85 34 85 34 85C34 85 34 85 34 85C34 85 34 85 34 85C34 85 34 85 34 85C34 85 34 85 34 85C34 85 34 85 34 85C34 85 34 85 34 85C34 85 34 85 34 85C34 85 34 85 34 85C34 85 34 85 34 85C34 85 34 85 34 85C34 85 34 85 34 85C34 85 34 85 34 85C34 85 34 85 34 85C34 85 34 85 34 85C34 85 34 85 34 85C34 85 34 85 34 85C34 85 34 85 34 85C34 85 34 85 34 85C34 85 34 85 34 85C34 85 34 85 34 85C34 85 34 85 34 85C34 85 34 85 34 85C34 85 34 85 34 85C34 85 34 85 34 85C34 85 34 85 34 85C34 85 34 85 34 85C34 85 34 85 34 85C34 85 34 85 34 85C34 85 34 85 34 85C34 85 34 85 34 85C34 85 34 85 34 85C34 85 34 85 34 85C34 85 34 85 34 85C34 85 34 85 34 85C34 85 34 85 34 85C34 85 34 85 34 85C34 85 34 85 34 85C34 85 34 85 34 85C34 85 34 85 34 85C34 85 34 85 34 85C34 85 34 85 34 85C34 85 34 85 34 85C34 85 34 85 34 85C34 85 34 85 34 85C34 85 34 85 34 85C34 85 34 85 34 85C34 85 34 85 34 85C34 85 34 85 34 85C34 85 34 85 34 85C34 85 34 85 34 85C34 85 34 85 34 85C34 85 34 85 34 85C34 85 34 85 34 85C34 85 34 85 34 85C34 85 34 85 34 85C34 85 34 85 34 85C34 85 34 85 34 85C34 85 34 85 34 85C34 85 34 85 34 85C34 85 34 85 34 85C34 85 34 85 34 85C34 85 34 85 34 85C34 85 34 85 34 85C34 85 34 85 34 85C34 85 34 85 34 85C34 85 34 85 34 85C34 85 34 85 34 85C34 85 34 85 34 85C34 85 34 85 34 85C34 85 34 85 34 85C34 85 34 85 34 85C34 85 34 85 34 85C34 85 34 85 34 85C34 85 34 85 34 85C34 85 34 85 34 85C34 85 34 85 34 85C34 85 34 85 34 85C34 85 34 85 34 85C34 85 34 85 34 85C34 85 34 85 34 85C34 85 34 85 34 85C34 85 34 85 34 85C34 85 34 85 34 85C34 85 34 85 34 85C34 85 34 85 34 85C34 85 34 85 34 85C34 85 34 85 34 85C34 85 34 85 34 85C34 85 34 85 34 85C34 85 34 85 34 85C34 85 34 85 34 85C34 85 34 85 34 85C34 85 34 85 34 85C34 85 34 85 34 85C34 85 34 85 34 85C34 85 34 85 34 85C34 85 34 85 34 85C34 85 34 85 34 85C34 85 34 85 34 85C34 85 34 85 34 85C34 85 34 85 34 85C34 85 34 85 34 85C34 85 34 85 34 85C34 85 34 85 34 85C34 85 34 85 34 85C34 85 34 85 34 85C34 85 34 85 34 85C34 85 34 85 34 85C34 85 34 85 34 85H36C36 85 36 85 36 85C36 85 36 85 36 85C36 85 36 85 36 85C36 85 36 85 36 85C36 85 36 85 36 85C36 85 36 85 36 85C36 85 36 85 36 85C36 85 36 85 36 85C36 85 36 85 36 85C36 85 36 85 36 85C36 85 36 85 36 85C36 85 36 85 36 85C36 85 36 85 36 85C36 85 36 85 36 85C36 85 36 85 36 85C36 85 36 85 36 85C36 85 36 85 36 85C36 85 36 85 36 85C36 85 36 85 36 85C36 85 36 85 36 85C36 85 36 85 36 85C36 85 36 85 36 85C36 85 36 85 36 85C36 85 36 85 36 85C36 85 36 85 36 85C36 85 36 85 36 85C36 85 36 85 36 85C36 85 36 85 36 85C36 85 36 85 36 85C36 85 36 85 36 85C36 85 36 85 36 85C36 85 36 85 36 85C36 85 36 85 36 85C36 85 36 85 36 85C36 85 36 85 36 85C36 85 36 85 36 85C36 85 36 85 36 85C36 85 36 85 36 85C36 85 36 85 36 85C36 85 36 85 36 85C36 85 36 85 36 85C36 85 36 85 36 85C36 85 36 85 36 85C36 85 36 85 36 85C36 85 36 85 36 85C36 85 36 85 36 85C36 85 36 85 36 85C36 85 36 85 36 85C36 85 36 85 36 85C36 85 36 85 36 85C36 85 36 85 36 85C36 85 36 85 36 85C36 85 36 85 36 85C36 85 36 85 36 85C36 85 36 85 36 85C36 85 36 85 36 85C36 85 36 85 36 85C36 85 36 85 36 85C36 85 36 85 36 85C36 85 36 85 36 85C36 85 36 85 36 85C36 85 36 85 36 85C36 85 36 85 36 85C36 85 36 85 36 85C36 85 36 85 36 85C36 85 36 85 36 85C36 85 36 85 36 85C36 85 36 85 36 85C36 85 36 85 36 85C36 85 36 85 36 85C36 85 36 85 36 85C36 85 36 85 36 85C36 85 36 85 36 85C36 85 36 85 36 85C36 85 36 85 36 85C36 85 36 85 36 85C36 85 36 85 36 85C36 85 36 85 36 85C36 85 36 85 36 85C36 85 36 85 36 85C36 85 36 85 36 85C36 85 36 85 36 85C36 85 36 85 36 85C36 85 36 85 36 85C36 85 36 85 36 85C36 85 36 85 36 85C36 85 36 85 36 85C36 85 36 85 36 85C36 85 36 85 36 85C36 85 36 85 36 85C36 85 36 85 36 85C36 85 36 85 36 85C36 85 36 85 36 85C36 85 36 85 36 85C36 85 36 85 36 85C36 85 36 85 36 85C36 85 36 85 36 85C36 85 36 85 36 85C36 85 36 85 36 85C36 85 36 85 36 85C36 85 36 85 36 85C36 85 36 85 36 85C36 85 36 85 36 85C36 85 36 85 36 85C36 85 36 85 36 85C36 85 36 85 36 85C36 85 36 85 36 85C36 85 36 85 36 85C36 85 36 85 36 85C36 85 36 85 36 85C36 85 36 85 36 85C36 85 36 85 36 85C36 85 36 85 36 85C36 85 36 85 36 85C36 85 36 85 36 85C36 85 36 85 36 85C36 85 36 85 36 85C36 85 36 85 36 85C36 85 36 85 36 85C36 85 36 85 36 85C36 85 36 85 36 85C36 85 36 85 36 85C36 85 36 85 36 85C36 85 36 85 36 85C36 85 36 85 36 85C36 85 36 85 36 85C36 85 36 85 36 85C36 85 36 85 36 85C36 85 36 85 36 85C36 85 36 85 36 85C36 85 36 85 36 85C36 85 36 85 36 85C36 85 36 85 36 85C36 85 36 85 36 85C36 85 36 85 36 85C36 85 36 85 36 85C36 85 36 85 36 85C36 85 36 85 36 85C36 85 36 85 36 85C36 85 36 85 36 85C36 85 36 85 36 85C36 85 36 85 36 85C36 85 36 85 36 85C36 85 36 85 36 85C36 85 36 85 36 85C36 85 36 85 36 85C36 85 36 85 36 85C36 85 36 85 36 85C36 85 36 85 36 85C36 85 36 85 36 85C36 85 36 85 36 85C36 85 36 85 36 85C36 85 36 85 36 85C36 85 36 85 36 85C36 85 36 85 36 85C36 85 36 85 36 85C36 85 36 85 36 85C36 85 36 85 36 85C36 85 36 85 36 85C36 85 36 85 36 85C36 85 36 85 36 85C36 85 36 85 36 85C36 85 36 85 36 85C36 85 36 85 36 85C36 85 36 85 36 85C36 85 36 85 36 85C36 85 36 85 36 85C36 85 36 85 36 85C36 85 36 85 36 85C36 85 36 85 36 85C36 85 36 85 36 85C36 85 36 85 36 85C36 85 36 85 36 85C36 85 36 85 36 85C36 85 36 85 36 85C36 85 36 85 36 85C36 85 36 85 36 85C36 85 36 85 36 85C36 85 36 85 36 85C36 85 36 85 36 85C36 85 36 85 36 85C36 85 36 85 36 85C36 85 36 85 36 85C36 85 36 85 36 85C36 85 36 85 36 85C36 85 36 85 36 85C36 85 36 85 36 85C36 85 36 85 36 85C36 85 36 85 36 85C36 85 36 85 36 85C36 85 36 85 36 85C36 85 36 85 36 85C36 85 36 85 36 85C36 85 36 85 36 85C36 85 36 85 36 85C36 85 36 85 36 85C36 85 36 85 36 85C36 85 36 85 36 85C36 85 36 85 36 85C36 85 36 85 36 85C36 85 36 85 36 85C36 85 36 85 36 85C36 85 36 85 36 85C36 85 36 85 36 85C36 85 36 85 36 85C36 85 36 85 36 85C36 85 36 85 36 85C36 85 36 85 36 85C36 85 36 85 36 85C36 85 36 85 36 84.9999C36 84.9999 36 84.9999 36 84.9999C36 84.9999 36 84.9999 36 84.9999C36 84.9999 36 84.9999 36 84.9999C36 84.9999 36 84.9999 36 84.9999C36 84.9999 36 84.9999 36 84.9999C36 84.9999 36 84.9999 36 84.9999C36 84.9999 36 84.9999 36 84.9999C36 84.9999 36 84.9999 36 84.9999C36 84.9999 36 84.9999 36 84.9999C36 84.9999 36 84.9999 36 84.9999C36 84.9999 36 84.9999 36 84.9999C36 84.9999 36 84.9999 36 84.9999C36 84.9999 36 84.9999 36 84.9999C36 84.9999 36 84.9999 36 84.9999C36 84.9999 36 84.9999 36 84.9999C36 84.9999 36 84.9999 36 84.9999C36 84.9999 36 84.9999 36 84.9999C36 84.9999 36 84.9999 36 84.9999C36 84.9999 36 84.9999 36 84.9999C36 84.9999 36 84.9999 36 84.9999C36 84.9999 36 84.9999 36 84.9999C36 84.9999 36 84.9999 36 84.9999C36 84.9999 36 84.9999 36 84.9999C36 84.9999 36 84.9999 36 84.9999C36 84.9999 36 84.9999 36 84.9999C36 84.9999 36 84.9999 36 84.9999C36 84.9999 36 84.9999 36 84.9999C36 84.9999 36 84.9999 36 84.9999C36 84.9999 36 84.9999 36 84.9999C36 84.9999 36 84.9999 36 84.9999C36 84.9999 36 84.9999 36 84.9999C36 84.9999 36 84.9999 36 84.9999C36 84.9999 36 84.9999 36 84.9999C36 84.9999 36 84.9999 36 84.9999C36 84.9999 36 84.9999 36 84.9999C36 84.9999 36 84.9999 36 84.9999C36 84.9999 36 84.9999 36 84.9999C36 84.9999 36 84.9999 36 84.9999C36 84.9999 36 84.9999 36 84.9999C36 84.9999 36 84.9999 36 84.9999C36 84.9999 36 84.9999 36 84.9999C36 84.9999 36 84.9999 36 84.9999C36 84.9999 36 84.9999 36 84.9999C36 84.9999 36 84.9999 36 84.9999C36 84.9999 36 84.9999 36 84.9999C36 84.9999 36 84.9999 36 84.9999C36 84.9999 36 84.9999 36 84.9999C36 84.9999 36 84.9999 36 84.9999C36 84.9999 36 84.9999 36 84.9999C36 84.9999 36 84.9999 36 84.9999C36 84.9999 36 84.9999 36 84.9999C36 84.9999 36 84.9999 36 84.9999C36 84.9999 36 84.9999 36 84.9999C36 84.9999 36 84.9999 36 84.9999C36 84.9999 36 84.9999 36 84.9999C36 84.9999 36 84.9999 36 84.9999C36 84.9999 36 84.9999 36 84.9999C36 84.9999 36 84.9999 36 84.9999C36 84.9999 36 84.9999 36 84.9999C36 84.9999 36 84.9999 36 84.9999C36 84.9999 36 84.9999 36 84.9999C36 84.9999 36 84.9999 36 84.9999C36 84.9999 36 84.9999 36 84.9999C36 84.9999 36 84.9999 36 84.9999C36 84.9999 36 84.9999 36 84.9999C36 84.9999 36 84.9999 36 84.9999C36 84.9999 36 84.9999 36 84.9999C36 84.9999 36 84.9999 36 84.9999C36 84.9999 36 84.9999 36 84.9999C36 84.9999 36 84.9999 36 84.9999C36 84.9999 36 84.9999 36 84.9999C36 84.9999 36 84.9999 36 84.9999C36 84.9999 36 84.9999 36 84.9999C36 84.9999 36 84.9999 36 84.9999C36 84.9999 36 84.9999 36 84.9999C36 84.9999 36 84.9999 36 84.9999C36 84.9999 36 84.9999 36 84.9999C36 84.9999 36 84.9999 36 84.9999C36 84.9999 36 84.9999 36 84.9999C36 84.9999 36 84.9999 36 84.9999C36 84.9999 36 84.9999 36 84.9999C36 84.9999 36 84.9999 36 84.9999C36 84.9999 36 84.9999 36 84.9999C36 84.9999 36 84.9999 36 84.9999C36 84.9999 36 84.9999 36 84.9999C36 84.9999 36 84.9999 36 84.9999C36 84.9999 36 84.9999 36 84.9999C36 84.9999 36 84.9999 36 84.9999C36 84.9999 36 84.9999 36 84.9999C36 84.9999 36 84.9999 36 84.9999C36 84.9999 36 84.9999 36 84.9999C36 84.9999 36 84.9999 36 84.9999C36 84.9999 36 84.9999 36 84.9999C36 84.9999 36 84.9999 36 84.9999C36 84.9999 36 84.9999 36 84.9999C36 84.9999 36 84.9999 36 84.9999C36 84.9999 36 84.9999 36 84.9999C36 84.9999 36 84.9999 36 84.9999C36 84.9999 36 84.9999 36 84.9999C36 84.9999 36 84.9999 36 84.9999C36 84.9999 36 84.9999 36 84.9999C36 84.9999 36 84.9999 36 84.9999C36 84.9999 36 84.9999 36 84.9999C36 84.9999 36 84.9999 36 84.9999C36 84.9999 36 84.9999 36 84.9999C36 84.9999 36 84.9999 36 84.9999C36 84.9999 36 84.9999 36 84.9999C36 84.9999 36 84.9999 36 84.9999C36 84.9999 36 84.9999 36 84.9999C36 84.9999 36 84.9999 36 84.9999C36 84.9999 36 84.9999 36 84.9999C36 84.9999 36 84.9999 36 84.9999C36 84.9999 36 84.9999 36 84.9999C36 84.9999 36 84.9999 36 84.9999C36 84.9999 36 84.9999 36 84.9999C36 84.9999 36 84.9999 36 84.9999C36 84.9999 36 84.9999 36 84.9999C36 84.9999 36 84.9999 36 84.9999C36 84.9999 36 84.9999 36 84.9999C36 84.9999 36 84.9999 36 84.9999C36 84.9999 36 84.9999 36 84.9999C36 84.9999 36 84.9999 36 84.9999C36 84.9999 36 84.9999 36 84.9999C36 84.9999 36 84.9999 36 84.9999C36 84.9999 36 84.9999 36 84.9999C36 84.9999 36 84.9999 36 84.9999C36 84.9999 36 84.9999 36 84.9999C36 84.9999 36 84.9999 36 84.9999C36 84.9999 36 84.9999 36 84.9999C36 84.9999 36 84.9999 36 84.9999C36 84.9999 36 84.9999 36 84.9999C36 84.9999 36 84.9999 36 84.9999C36 84.9999 36 84.9999 36 84.9999C36 84.9999 36 84.9999 36 84.9999C36 84.9999 36 84.9999 36 84.9999C36 84.9999 36 84.9999 36 84.9999C36 84.9999 36 84.9999 36 84.9999C36 84.9999 36 84.9999 36 84.9999C36 84.9999 36 84.9999 36 84.9999C36 84.9999 36 84.9999 36 84.9999C36 84.9999 36 84.9999 36 84.9999C36 84.9999 36 84.9999 36 84.9999C36 84.9999 36 84.9999 36 84.9999C36 84.9999 36 84.9999 36 84.9999C36 84.9999 36 84.9999 36 84.9999C36 84.9999 36 84.9999 36 84.9999C36 84.9999 36 84.9999 36 84.9999C36 84.9999 36 84.9999 36 84.9999C36 84.9999 36 84.9999 36 84.9999C36 84.9999 36 84.9999 36 84.9999C36 84.9999 36 84.9999 36 84.9999C36 84.9999 36 84.9999 36 84.9999C36 84.9999 36 84.9999 36 84.9999C36 84.9999 36 84.9999 36 84.9999C36 84.9999 36 84.9999 36 84.9999C36 84.9999 36 84.9999 36 84.9999C36 84.9999 36 84.9999 36 84.9999C36 84.9999 36 84.9999 36 84.9999C36 84.9999 36 84.9999 36 84.9999C36 84.9999 36 84.9999 36 84.9999C36 84.9999 36 84.9999 36 84.9999C36 84.9999 36 84.9999 36 84.9999C36 84.9999 36 84.9999 36 84.9999C36 84.9999 36 84.9999 36 84.9999C36 84.9999 36 84.9999 36 84.9999C36 84.9999 36 84.9999 36 84.9999C36 84.9999 36 84.9999 36 84.9999C36 84.9999 36 84.9999 36 84.9999C36 84.9999 36 84.9999 36 84.9999C36 84.9999 36 84.9999 36 84.9999C36 84.9999 36 84.9999 36 84.9999C36 84.9999 36 84.9999 36 84.9999C36 84.9999 36 84.9999 36 84.9999C36 84.9999 36 84.9999 36 84.9999C36 84.9999 36 84.9999 36 84.9999C36 84.9999 36 84.9999 36 84.9999C36 84.9999 36 84.9999 36 84.9999C36 84.9999 36 84.9999 36 84.9999C36 84.9999 36 84.9999 36 84.9999C36 84.9999 36 84.9999 36 84.9999C36 84.9999 36 84.9999 36 84.9999C36 84.9999 36 84.9999 36 84.9999C36 84.9999 36 84.9999 36 84.9999C36 84.9999 36 84.9999 36 84.9999C36 84.9999 36 84.9999 36 84.9999C36 84.9999 36 84.9999 36 84.9999C36 84.9999 36 84.9999 36 84.9999C36 84.9999 36 84.9999 36 84.9999C36 84.9999 36 84.9999 36 84.9999C36 84.9999 36 84.9999 36 84.9999C36 84.9999 36 84.9999 36 84.9999C36 84.9999 36 84.9999 36 84.9999C36 84.9999 36 84.9999 36 84.9999C36 84.9999 36 84.9999 36 84.9999C36 84.9999 36 84.9999 36 84.9999C36 84.9999 36 84.9999 36 84.9999C36 84.9999 36 84.9999 36 84.9999C36 84.9999 36 84.9999 36 84.9999C36 84.9999 36 84.9999 36 84.9999C36 84.9999 36 84.9999 36 84.9999C36 84.9999 36 84.9999 36 84.9999C36 84.9999 36 84.9999 36 84.9999C36 84.9999 36 84.9999 36 84.9999C36 84.9999 36 84.9999 36 84.9999C36 84.9999 36 84.9999 36 84.9999C36 84.9999 36 84.9999 36 84.9999C36 84.9999 36 84.9999 36 84.9999C36 84.9999 36 84.9999 36 84.9999C36 84.9999 36 84.9999 36 84.9999C36 84.9999 36 84.9999 36 84.9999C36 84.9999 36 84.9999 36 84.9999C36 84.9999 36 84.9999 36 84.9999C36 84.9999 36 84.9999 36 84.9999C36 84.9999 36 84.9999 36 84.9999C36 84.9999 36 84.9999 36 84.9999C36 84.9999 36 84.9999 36 84.9999C36 84.9999 36 84.9999 36 84.9999C36 84.9999 36 84.9999 36 84.9999C36 84.9999 36 84.9999 36 84.9999C36 84.9999 36 84.9999 36 84.9999C36 84.9999 36 84.9999 36 84.9999C36 84.9999 36 84.9999 36 84.9999C36 84.9999 36 84.9999 36 84.9999C36 84.9999 36 84.9999 36 84.9999C36 84.9999 36 84.9999 36 84.9999C36 84.9999 36 84.9999 36 84.9999C36 84.9999 36 84.9999 36 84.9999C36 84.9999 36 84.9999 36 84.9999C36 84.9999 36 84.9999 36 84.9999C36 84.9999 36 84.9999 36 84.9999C36 84.9999 36 84.9999 36 84.9999C36 84.9999 36 84.9999 36 84.9999C36 84.9999 36 84.9999 36 84.9999C36 84.9999 36 84.9999 36 84.9999C36 84.9999 36 84.9999 36 84.9999C36 84.9999 36 84.9999 36 84.9999C36 84.9999 36 84.9999 36 84.9999C36 84.9999 36 84.9999 36 84.9999C36 84.9999 36 84.9999 36 84.9999C36 84.9999 36 84.9999 36 84.9999C36 84.9999 36 84.9999 36 84.9999C36 84.9999 36 84.9999 36 84.9999C36 84.9999 36 84.9999 36 84.9999C36 84.9999 36 84.9999 36 84.9999C36 84.9999 36 84.9999 36 84.9999C36 84.9999 36 84.9999 36 84.9999C36 84.9999 36 84.9999 36 84.9999C36 84.9999 36 84.9999 36 84.9999C36 84.9999 36 84.9999 36 84.9999C36 84.9999 36 84.9999 36 84.9999C36 84.9999 36 84.9999 36 84.9999C36 84.9999 36 84.9999 36 84.9999C36 84.9999 36 84.9999 36 84.9999C36 84.9999 36 84.9999 36 84.9999C36 84.9999 36 84.9999 36 84.9999C36 84.9999 36 84.9999 36 84.9999C36 84.9999 36 84.9999 36 84.9999C36 84.9999 36 84.9999 36 84.9999C36 84.9999 36 84.9999 36 84.9999C36 84.9999 36 84.9999 36 84.9999C36 84.9999 36 84.9999 36 84.9999C36 84.9999 36 84.9999 36 84.9999C36 84.9999 36 84.9999 36 84.9999C36 84.9999 36 84.9999 36 84.9999C36 84.9999 36 84.9999 36 84.9999C36 84.9999 36 84.9999 36 84.9999C36 84.9999 36 84.9999 36 84.9999C36 84.9999 36 84.9999 36 84.9999C36 84.9999 36 84.9999 36 84.9999C36 84.9999 36 84.9999 36 84.9999C36 84.9999 36 84.9999 36 84.9999C36 84.9999 36 84.9999 36 84.9999C36 84.9999 36 84.9999 36 84.9999C36 84.9999 36 84.9999 36 84.9999C36 84.9999 36 84.9999 36 84.9999C36 84.9999 36 84.9999 36 84.9999C36 84.9999 36 84.9999 36 84.9999C36 84.9999 36 84.9999 36 84.9999C36 84.9999 36 84.9999 36 84.9999C36 84.9999 36 84.9999 36 84.9999C36 84.9999 36 84.9999 36 84.9999C36 84.9999 36 84.9999 36 84.9999C36 84.9999 36 84.9999 36 84.9999C36 84.9999 36 84.9999 36 84.9999C36 84.9999 36 84.9999 36 84.9999C36 84.9999 36 84.9999 36 84.9999C36 84.9999 36 84.9999 36 84.9999C36 84.9999 36 84.9999 36 84.9999C36 84.9999 36 84.9999 36 84.9999C36 84.9999 36 84.9999 36 84.9999C36 84.9999 36 84.9999 36 84.9999C36 84.9999 36 84.9999 36 84.9999C36 84.9999 36 84.9999 36 84.9999C36 84.9999 36 84.9999 36 84.9999C36 84.9999 36 84.9999 36 84.9999C36 84.9999 36 84.9999 36 84.9999C36 84.9999 36 84.9999 36 84.9999C36 84.9999 36 84.9999 36 84.9999C36 84.9999 36 84.9999 36 84.9999C36 84.9999 36 84.9999 36 84.9999C36 84.9999 36 84.9999 36 84.9999C36 84.9999 36 84.9999 36 84.9999H34ZM35 83.9999H29V85.9999H35V83.9999Z" fill="#020216" mask="url(#path-14-inside-4_2098_174079)"/>
<line x1="30.5" y1="82" x2="30.5" y2="71" stroke="#020216"/>
<line x1="33.5" y1="82" x2="33.5" y2="76" stroke="#020216"/>
<circle cx="30.5" cy="70.5" r="1" fill="url(#paint4_linear_2098_174079)" stroke="#020216"/>
<circle cx="33.5" cy="75.5" r="1" fill="url(#paint5_linear_2098_174079)" stroke="#020216"/>
<rect x="0.5" y="0.5" width="63" height="107" rx="4.5" stroke="#9747FF" stroke-dasharray="10 5"/>
<defs>
<linearGradient id="paint0_linear_2098_174079" x1="28" y1="40.4989" x2="36" y2="40.4989" gradientUnits="userSpaceOnUse">
<stop stop-color="#BF08C0"/>
<stop offset="0.833333" stop-color="#6F19F7"/>
</linearGradient>
<linearGradient id="paint1_linear_2098_174079" x1="29" y1="26.4989" x2="32" y2="26.4989" gradientUnits="userSpaceOnUse">
<stop stop-color="#BF08C0"/>
<stop offset="0.833333" stop-color="#6F19F7"/>
</linearGradient>
<linearGradient id="paint2_linear_2098_174079" x1="32" y1="31.4989" x2="35" y2="31.4989" gradientUnits="userSpaceOnUse">
<stop stop-color="#BF08C0"/>
<stop offset="0.833333" stop-color="#6F19F7"/>
</linearGradient>
<linearGradient id="paint3_linear_2098_174079" x1="32" y1="83" x2="32" y2="86" gradientUnits="userSpaceOnUse">
<stop stop-color="#BF08C0" stop-opacity="0.25"/>
<stop offset="1" stop-color="#B301FC" stop-opacity="0.75"/>
</linearGradient>
<linearGradient id="paint4_linear_2098_174079" x1="30.5" y1="69" x2="30.5" y2="72" gradientUnits="userSpaceOnUse">
<stop stop-color="#BF08C0" stop-opacity="0.25"/>
<stop offset="1" stop-color="#B301FC" stop-opacity="0.75"/>
</linearGradient>
<linearGradient id="paint5_linear_2098_174079" x1="33.5" y1="74" x2="33.5" y2="77" gradientUnits="userSpaceOnUse">
<stop stop-color="#BF08C0" stop-opacity="0.25"/>
<stop offset="1" stop-color="#B301FC" stop-opacity="0.75"/>
</linearGradient>
</defs>
</svg>
