<svg width="64" height="108" viewBox="0 0 64 108" fill="none" xmlns="http://www.w3.org/2000/svg">
<mask id="path-2-inside-1_1298_49069" fill="white">
<path fill-rule="evenodd" clip-rule="evenodd" d="M20 44C20.5 41 21.5 37 22.5 35C22.5176 34.9647 22.5362 34.9276 22.5556 34.8887C23.6381 32.7205 27.4926 25 32 25C36.5074 25 40.3619 32.7205 41.4444 34.8887C41.4638 34.9276 41.4824 34.9647 41.5 35C42.5 37 43.5 41 44 44H32H20Z"/>
</mask>
<path fill-rule="evenodd" clip-rule="evenodd" d="M20 44C20.5 41 21.5 37 22.5 35C22.5176 34.9647 22.5362 34.9276 22.5556 34.8887C23.6381 32.7205 27.4926 25 32 25C36.5074 25 40.3619 32.7205 41.4444 34.8887C41.4638 34.9276 41.4824 34.9647 41.5 35C42.5 37 43.5 41 44 44H32H20Z" fill="url(#paint0_linear_1298_49069)"/>
<path d="M20 44L18.0272 43.6712L17.6391 46H20V44ZM22.5556 34.8887L24.345 35.7821L24.345 35.7821L22.5556 34.8887ZM41.4444 34.8887L39.655 35.7821L39.655 35.7821L41.4444 34.8887ZM41.5 35L43.2889 34.1056L43.2888 34.1055L41.5 35ZM44 44V46H46.3609L45.9728 43.6712L44 44ZM20.7111 34.1056C19.5706 36.3866 18.5333 40.6346 18.0272 43.6712L21.9728 44.3288C22.4667 41.3654 23.4294 37.6134 24.2889 35.8944L20.7111 34.1056ZM20.7662 33.9953C20.7467 34.0344 20.7285 34.0709 20.7111 34.1056L24.2889 35.8944C24.3068 35.8585 24.3256 35.8209 24.345 35.7821L20.7662 33.9953ZM32 23C30.2903 23 28.7904 23.7303 27.5764 24.6391C26.3581 25.5512 25.2904 26.7437 24.3975 27.9259C22.612 30.2901 21.3064 32.9133 20.7662 33.9954L24.345 35.7821C24.8873 34.6958 26.0502 32.3747 27.5895 30.3366C28.359 29.3177 29.1676 28.4446 29.9736 27.8413C30.7838 27.2347 31.456 27 32 27V23ZM32 27C32.544 27 33.2162 27.2347 34.0264 27.8413C34.8324 28.4446 35.641 29.3177 36.4105 30.3366C37.9498 32.3747 39.1127 34.6958 39.655 35.7821L43.2338 33.9954C42.6936 32.9133 41.388 30.2901 39.6025 27.9259C38.7096 26.7437 37.6419 25.5512 36.4236 24.6391C35.2096 23.7303 33.7097 23 32 23V27ZM39.655 35.7821C39.6744 35.8209 39.6932 35.8586 39.7112 35.8945L43.2888 34.1055C43.2715 34.0709 43.2533 34.0344 43.2338 33.9953L39.655 35.7821ZM39.7111 35.8944C40.5706 37.6134 41.5333 41.3654 42.0272 44.3288L45.9728 43.6712C45.4667 40.6346 44.4294 36.3866 43.2889 34.1056L39.7111 35.8944ZM44 42H32V46H44V42ZM20 46H32V42H20V46Z" fill="white" mask="url(#path-2-inside-1_1298_49069)"/>
<path fill-rule="evenodd" clip-rule="evenodd" d="M40 27.7755L39.9768 27.7902L39.1312 28.324C39.4417 28.8159 39.7321 29.3016 40 29.7676V27.7755ZM24 29.7674C24.2679 29.3015 24.5582 28.8159 24.8687 28.324L24.0231 27.7902L24 27.7756V29.7674ZM38.8055 26.0535L39.6156 25.4672C39.1947 24.8857 38.7488 24.314 38.2812 23.7724L37.5243 24.4259L36.7674 25.0794C37.1917 25.5709 37.6023 26.0966 37.9954 26.6398L38.8055 26.0535ZM36.1105 22.9676L36.7805 22.2252C36.2266 21.7254 35.6509 21.2856 35.0574 20.9318L34.5454 21.7908L34.0333 22.6498C34.492 22.9232 34.9628 23.2789 35.4406 23.71L36.1105 22.9676ZM32.8571 21.0947L33.0701 20.1177C32.7173 20.0408 32.3604 20 31.9999 20C31.6395 20 31.2826 20.0408 30.9298 20.1177L31.1428 21.0947L31.3559 22.0718C31.5773 22.0235 31.7914 22 31.9999 22C32.2085 22 32.4226 22.0235 32.644 22.0718L32.8571 21.0947ZM29.4545 21.7908L28.9425 20.9318C28.349 21.2856 27.7733 21.7254 27.2194 22.2252L27.8894 22.9676L28.5593 23.71C29.037 23.2789 29.5079 22.9232 29.9666 22.6498L29.4545 21.7908ZM26.4756 24.4259L25.7187 23.7724C25.2511 24.314 24.8052 24.8857 24.3843 25.4672L25.1944 26.0535L26.0045 26.6398C26.3976 26.0966 26.8082 25.5709 27.2325 25.0794L26.4756 24.4259Z" fill="white"/>
<mask id="path-5-inside-2_1298_49069" fill="white">
<path fill-rule="evenodd" clip-rule="evenodd" d="M20 88C20.5 85 21.5 81 22.5 79C22.5176 78.9647 22.5362 78.9276 22.5556 78.8887C23.6381 76.7205 27.4926 69 32 69C36.5074 69 40.3619 76.7205 41.4444 78.8887C41.4638 78.9276 41.4824 78.9647 41.5 79C42.5 81 43.5 85 44 88H32H20Z"/>
</mask>
<path fill-rule="evenodd" clip-rule="evenodd" d="M20 88C20.5 85 21.5 81 22.5 79C22.5176 78.9647 22.5362 78.9276 22.5556 78.8887C23.6381 76.7205 27.4926 69 32 69C36.5074 69 40.3619 76.7205 41.4444 78.8887C41.4638 78.9276 41.4824 78.9647 41.5 79C42.5 81 43.5 85 44 88H32H20Z" fill="url(#paint1_linear_1298_49069)"/>
<path d="M20 88L18.0272 87.6712L17.6391 90H20V88ZM22.5556 78.8887L24.345 79.7821L24.345 79.7821L22.5556 78.8887ZM41.4444 78.8887L39.655 79.7821L39.655 79.7821L41.4444 78.8887ZM41.5 79L43.2889 78.1056L43.2888 78.1055L41.5 79ZM44 88V90H46.3609L45.9728 87.6712L44 88ZM20.7111 78.1056C19.5706 80.3866 18.5333 84.6346 18.0272 87.6712L21.9728 88.3288C22.4667 85.3654 23.4294 81.6134 24.2889 79.8944L20.7111 78.1056ZM20.7662 77.9953C20.7467 78.0344 20.7285 78.0709 20.7111 78.1056L24.2889 79.8944C24.3068 79.8585 24.3256 79.8209 24.345 79.7821L20.7662 77.9953ZM32 67C30.2903 67 28.7904 67.7303 27.5764 68.6391C26.3581 69.5512 25.2904 70.7437 24.3975 71.9259C22.612 74.2901 21.3064 76.9133 20.7662 77.9954L24.345 79.7821C24.8873 78.6958 26.0502 76.3747 27.5895 74.3366C28.359 73.3177 29.1676 72.4446 29.9736 71.8413C30.7838 71.2347 31.456 71 32 71V67ZM32 71C32.544 71 33.2162 71.2347 34.0264 71.8413C34.8324 72.4446 35.641 73.3177 36.4105 74.3366C37.9498 76.3747 39.1127 78.6958 39.655 79.7821L43.2338 77.9954C42.6936 76.9133 41.388 74.2901 39.6025 71.9259C38.7096 70.7437 37.6419 69.5512 36.4236 68.6391C35.2096 67.7303 33.7097 67 32 67V71ZM39.655 79.7821C39.6744 79.8209 39.6932 79.8586 39.7112 79.8945L43.2888 78.1055C43.2715 78.0709 43.2533 78.0344 43.2338 77.9953L39.655 79.7821ZM39.7111 79.8944C40.5706 81.6134 41.5333 85.3654 42.0272 88.3288L45.9728 87.6712C45.4667 84.6346 44.4294 80.3866 43.2889 78.1056L39.7111 79.8944ZM44 86H32V90H44V86ZM20 90H32V86H20V90Z" fill="#020216" mask="url(#path-5-inside-2_1298_49069)"/>
<path fill-rule="evenodd" clip-rule="evenodd" d="M40 71.7755L39.9768 71.7902L39.1312 72.324C39.4417 72.8159 39.7321 73.3016 40 73.7676V71.7755ZM24 73.7674C24.2679 73.3015 24.5582 72.8159 24.8687 72.324L24.0231 71.7902L24 71.7756V73.7674ZM38.8055 70.0535L39.6156 69.4672C39.1947 68.8857 38.7488 68.314 38.2812 67.7724L37.5243 68.4259L36.7674 69.0794C37.1917 69.5709 37.6023 70.0966 37.9954 70.6398L38.8055 70.0535ZM36.1105 66.9676L36.7805 66.2252C36.2266 65.7254 35.6509 65.2856 35.0574 64.9318L34.5454 65.7908L34.0333 66.6498C34.492 66.9232 34.9628 67.2789 35.4406 67.71L36.1105 66.9676ZM32.8571 65.0947L33.0701 64.1177C32.7173 64.0408 32.3604 64 31.9999 64C31.6395 64 31.2826 64.0408 30.9298 64.1177L31.1428 65.0947L31.3559 66.0718C31.5773 66.0235 31.7914 66 31.9999 66C32.2085 66 32.4226 66.0235 32.644 66.0718L32.8571 65.0947ZM29.4545 65.7908L28.9425 64.9318C28.349 65.2856 27.7733 65.7254 27.2194 66.2252L27.8894 66.9676L28.5593 67.71C29.037 67.2789 29.5079 66.9232 29.9666 66.6498L29.4545 65.7908ZM26.4756 68.4259L25.7187 67.7724C25.2511 68.314 24.8052 68.8857 24.3843 69.4672L25.1944 70.0535L26.0045 70.6398C26.3976 70.0966 26.8082 69.5709 27.2325 69.0794L26.4756 68.4259Z" fill="#020216"/>
<rect x="0.5" y="0.5" width="63" height="107" rx="4.5" stroke="#9747FF" stroke-dasharray="10 5"/>
<defs>
<linearGradient id="paint0_linear_1298_49069" x1="20" y1="34.4928" x2="44" y2="34.4928" gradientUnits="userSpaceOnUse">
<stop stop-color="#BF08C0"/>
<stop offset="0.833333" stop-color="#6F19F7"/>
</linearGradient>
<linearGradient id="paint1_linear_1298_49069" x1="32" y1="69" x2="32" y2="88" gradientUnits="userSpaceOnUse">
<stop stop-color="#BF08C0" stop-opacity="0.25"/>
<stop offset="1" stop-color="#B301FC" stop-opacity="0.75"/>
</linearGradient>
</defs>
</svg>
