<svg width="32" height="32" viewBox="0 0 32 32" fill="none" xmlns="http://www.w3.org/2000/svg">
<path d="M30.5 11.0005L16 0.500488L19 12.0005H26L25.5 14.0005L20.5 17.5005L21.5 20.0005L22.5 25.0005L16 21.0005L7 28.5005L11 32.0005H21H24.5H27.5H32V21.0005V12.0005L30.5 11.0005Z" fill="url(#paint0_linear_662_16802)"/>
<path d="M16 3.23607L18.6412 11.3647L18.8657 12.0557H19.5922H28.1392L21.2246 17.0795L20.6368 17.5066L20.8613 18.1976L23.5024 26.3262L16.5878 21.3024L16 20.8754L15.4122 21.3024L8.49755 26.3262L11.1387 18.1976L11.3632 17.5066L10.7754 17.0795L3.86078 12.0557H12.4078H13.1343L13.3588 11.3647L16 3.23607Z" stroke="#020216" stroke-width="2"/>
<defs>
<linearGradient id="paint0_linear_662_16802" x1="19.5" y1="0.500488" x2="19.5" y2="32.0005" gradientUnits="userSpaceOnUse">
<stop stop-color="#BF08C0" stop-opacity="0.25"/>
<stop offset="1" stop-color="#B301FC" stop-opacity="0.75"/>
</linearGradient>
</defs>
</svg>
