<svg width="24" height="24" viewBox="0 0 24 24" fill="none" xmlns="http://www.w3.org/2000/svg">
<mask id="path-1-inside-1_1571_84344" fill="white">
<path fill-rule="evenodd" clip-rule="evenodd" d="M0 12C2 7.33333 7.5 4 12 4C16.5 4 22 7.33333 24 12C22 16.6667 16.5 20 12 20C7.5 20 2 16.6667 0 12Z"/>
</mask>
<path d="M0 12L-1.83829 11.2122L-2.17594 12L-1.83829 12.7878L0 12ZM24 12L25.8383 12.7878L26.1759 12L25.8383 11.2122L24 12ZM12 2C9.28897 2 6.41712 2.98994 3.97533 4.57129C1.5273 6.15668 -0.650932 8.44166 -1.83829 11.2122L1.83829 12.7878C2.65093 10.8917 4.2227 9.17665 6.14967 7.92871C8.08288 6.67672 10.211 6 12 6V2ZM25.8383 11.2122C24.6509 8.44166 22.4727 6.15668 20.0247 4.57129C17.5829 2.98994 14.711 2 12 2V6C13.789 6 15.9171 6.67672 17.8503 7.92871C19.7773 9.17665 21.3491 10.8917 22.1617 12.7878L25.8383 11.2122ZM12 22C14.711 22 17.5829 21.0101 20.0247 19.4287C22.4727 17.8433 24.6509 15.5583 25.8383 12.7878L22.1617 11.2122C21.3491 13.1083 19.7773 14.8233 17.8503 16.0713C15.9171 17.3233 13.789 18 12 18V22ZM-1.83829 12.7878C-0.650932 15.5583 1.5273 17.8433 3.97533 19.4287C6.41712 21.0101 9.28897 22 12 22V18C10.211 18 8.08288 17.3233 6.14967 16.0713C4.2227 14.8233 2.65093 13.1083 1.83829 11.2122L-1.83829 12.7878Z" fill="white" mask="url(#path-1-inside-1_1571_84344)"/>
<circle cx="12" cy="12" r="3" fill="url(#paint0_linear_1571_84344)" stroke="white" stroke-width="2"/>
<defs>
<linearGradient id="paint0_linear_1571_84344" x1="9" y1="11.9977" x2="15" y2="11.9977" gradientUnits="userSpaceOnUse">
<stop stop-color="#BF08C0"/>
<stop offset="0.833333" stop-color="#6F19F7"/>
</linearGradient>
</defs>
</svg>
