<svg width="64" height="196" viewBox="0 0 64 196" fill="none" xmlns="http://www.w3.org/2000/svg">
<mask id="path-2-inside-1_903_20101" fill="white">
<path fill-rule="evenodd" clip-rule="evenodd" d="M20 32C22 27.3333 27.5 24 32 24C36.5 24 42 27.3333 44 32C42 36.6667 36.5 40 32 40C27.5 40 22 36.6667 20 32Z"/>
</mask>
<path d="M20 32L18.1617 31.2122L17.8241 32L18.1617 32.7878L20 32ZM44 32L45.8383 32.7878L46.1759 32L45.8383 31.2122L44 32ZM32 22C29.289 22 26.4171 22.9899 23.9753 24.5713C21.5273 26.1567 19.3491 28.4417 18.1617 31.2122L21.8383 32.7878C22.6509 30.8917 24.2227 29.1767 26.1497 27.9287C28.0829 26.6767 30.211 26 32 26V22ZM45.8383 31.2122C44.6509 28.4417 42.4727 26.1567 40.0247 24.5713C37.5829 22.9899 34.711 22 32 22V26C33.789 26 35.9171 26.6767 37.8503 27.9287C39.7773 29.1767 41.3491 30.8917 42.1617 32.7878L45.8383 31.2122ZM32 42C34.711 42 37.5829 41.0101 40.0247 39.4287C42.4727 37.8433 44.6509 35.5583 45.8383 32.7878L42.1617 31.2122C41.3491 33.1083 39.7773 34.8233 37.8503 36.0713C35.9171 37.3233 33.789 38 32 38V42ZM18.1617 32.7878C19.3491 35.5583 21.5273 37.8433 23.9753 39.4287C26.4171 41.0101 29.289 42 32 42V38C30.211 38 28.0829 37.3233 26.1497 36.0713C24.2227 34.8233 22.6509 33.1083 21.8383 31.2122L18.1617 32.7878Z" fill="white" mask="url(#path-2-inside-1_903_20101)"/>
<circle cx="32" cy="32" r="3" fill="url(#paint0_linear_903_20101)" stroke="white" stroke-width="2"/>
<mask id="path-5-inside-2_903_20101" fill="white">
<path fill-rule="evenodd" clip-rule="evenodd" d="M20 120C22 115.333 27.5 112 32 112C36.5 112 42 115.333 44 120C42 124.667 36.5 128 32 128C27.5 128 22 124.667 20 120Z"/>
</mask>
<path d="M20 120L18.1617 119.212L17.8241 120L18.1617 120.788L20 120ZM44 120L45.8383 120.788L46.1759 120L45.8383 119.212L44 120ZM32 110C29.289 110 26.4171 110.99 23.9753 112.571C21.5273 114.157 19.3491 116.442 18.1617 119.212L21.8383 120.788C22.6509 118.892 24.2227 117.177 26.1497 115.929C28.0829 114.677 30.211 114 32 114V110ZM45.8383 119.212C44.6509 116.442 42.4727 114.157 40.0247 112.571C37.5829 110.99 34.711 110 32 110V114C33.789 114 35.9171 114.677 37.8503 115.929C39.7773 117.177 41.3491 118.892 42.1617 120.788L45.8383 119.212ZM32 130C34.711 130 37.5829 129.01 40.0247 127.429C42.4727 125.843 44.6509 123.558 45.8383 120.788L42.1617 119.212C41.3491 121.108 39.7773 122.823 37.8503 124.071C35.9171 125.323 33.789 126 32 126V130ZM18.1617 120.788C19.3491 123.558 21.5273 125.843 23.9753 127.429C26.4171 129.01 29.289 130 32 130V126C30.211 126 28.0829 125.323 26.1497 124.071C24.2227 122.823 22.6509 121.108 21.8383 119.212L18.1617 120.788Z" fill="white" mask="url(#path-5-inside-2_903_20101)"/>
<circle cx="32" cy="120" r="3" fill="url(#paint1_linear_903_20101)" stroke="white" stroke-width="2"/>
<line x1="42.2071" y1="109.707" x2="20.9939" y2="130.92" stroke="white" stroke-width="2"/>
<mask id="path-9-inside-3_903_20101" fill="white">
<path fill-rule="evenodd" clip-rule="evenodd" d="M20 164C22 159.333 27.5 156 32 156C36.5 156 42 159.333 44 164C42 168.667 36.5 172 32 172C27.5 172 22 168.667 20 164Z"/>
</mask>
<path d="M20 164L18.1617 163.212L17.8241 164L18.1617 164.788L20 164ZM44 164L45.8383 164.788L46.1759 164L45.8383 163.212L44 164ZM32 154C29.289 154 26.4171 154.99 23.9753 156.571C21.5273 158.157 19.3491 160.442 18.1617 163.212L21.8383 164.788C22.6509 162.892 24.2227 161.177 26.1497 159.929C28.0829 158.677 30.211 158 32 158V154ZM45.8383 163.212C44.6509 160.442 42.4727 158.157 40.0247 156.571C37.5829 154.99 34.711 154 32 154V158C33.789 158 35.9171 158.677 37.8503 159.929C39.7773 161.177 41.3491 162.892 42.1617 164.788L45.8383 163.212ZM32 174C34.711 174 37.5829 173.01 40.0247 171.429C42.4727 169.843 44.6509 167.558 45.8383 164.788L42.1617 163.212C41.3491 165.108 39.7773 166.823 37.8503 168.071C35.9171 169.323 33.789 170 32 170V174ZM18.1617 164.788C19.3491 167.558 21.5273 169.843 23.9753 171.429C26.4171 173.01 29.289 174 32 174V170C30.211 170 28.0829 169.323 26.1497 168.071C24.2227 166.823 22.6509 165.108 21.8383 163.212L18.1617 164.788Z" fill="#020216" mask="url(#path-9-inside-3_903_20101)"/>
<circle cx="32" cy="164" r="3" fill="url(#paint2_linear_903_20101)" stroke="#020216" stroke-width="2"/>
<line x1="42.2071" y1="153.707" x2="20.9939" y2="174.92" stroke="#020216" stroke-width="2"/>
<mask id="path-13-inside-4_903_20101" fill="white">
<path fill-rule="evenodd" clip-rule="evenodd" d="M20 76C22 71.3333 27.5 68 32 68C36.5 68 42 71.3333 44 76C42 80.6667 36.5 84 32 84C27.5 84 22 80.6667 20 76Z"/>
</mask>
<path d="M20 76L18.1617 75.2122L17.8241 76L18.1617 76.7878L20 76ZM44 76L45.8383 76.7878L46.1759 76L45.8383 75.2122L44 76ZM32 66C29.289 66 26.4171 66.9899 23.9753 68.5713C21.5273 70.1567 19.3491 72.4417 18.1617 75.2122L21.8383 76.7878C22.6509 74.8917 24.2227 73.1767 26.1497 71.9287C28.0829 70.6767 30.211 70 32 70V66ZM45.8383 75.2122C44.6509 72.4417 42.4727 70.1567 40.0247 68.5713C37.5829 66.9899 34.711 66 32 66V70C33.789 70 35.9171 70.6767 37.8503 71.9287C39.7773 73.1767 41.3491 74.8917 42.1617 76.7878L45.8383 75.2122ZM32 86C34.711 86 37.5829 85.0101 40.0247 83.4287C42.4727 81.8433 44.6509 79.5583 45.8383 76.7878L42.1617 75.2122C41.3491 77.1083 39.7773 78.8233 37.8503 80.0713C35.9171 81.3233 33.789 82 32 82V86ZM18.1617 76.7878C19.3491 79.5583 21.5273 81.8433 23.9753 83.4287C26.4171 85.0101 29.289 86 32 86V82C30.211 82 28.0829 81.3233 26.1497 80.0713C24.2227 78.8233 22.6509 77.1083 21.8383 75.2122L18.1617 76.7878Z" fill="#020216" mask="url(#path-13-inside-4_903_20101)"/>
<circle cx="32" cy="76" r="3" fill="url(#paint3_linear_903_20101)" stroke="#020216" stroke-width="2"/>
<rect x="0.5" y="0.5" width="63" height="195" rx="4.5" stroke="#9747FF" stroke-dasharray="10 5"/>
<defs>
<linearGradient id="paint0_linear_903_20101" x1="29" y1="31.9977" x2="35" y2="31.9977" gradientUnits="userSpaceOnUse">
<stop stop-color="#BF08C0"/>
<stop offset="0.833333" stop-color="#6F19F7"/>
</linearGradient>
<linearGradient id="paint1_linear_903_20101" x1="29" y1="119.998" x2="35" y2="119.998" gradientUnits="userSpaceOnUse">
<stop stop-color="#BF08C0"/>
<stop offset="0.833333" stop-color="#6F19F7"/>
</linearGradient>
<linearGradient id="paint2_linear_903_20101" x1="32" y1="161" x2="32" y2="167" gradientUnits="userSpaceOnUse">
<stop stop-color="#BF08C0" stop-opacity="0.25"/>
<stop offset="1" stop-color="#B301FC" stop-opacity="0.75"/>
</linearGradient>
<linearGradient id="paint3_linear_903_20101" x1="32" y1="73" x2="32" y2="79" gradientUnits="userSpaceOnUse">
<stop stop-color="#BF08C0" stop-opacity="0.25"/>
<stop offset="1" stop-color="#B301FC" stop-opacity="0.75"/>
</linearGradient>
</defs>
</svg>
