<svg width="64" height="108" viewBox="0 0 64 108" fill="none" xmlns="http://www.w3.org/2000/svg">
<rect x="21" y="21" width="22" height="4" fill="url(#paint0_linear_1960_112906)" stroke="white" stroke-width="2"/>
<rect x="21" y="39" width="22" height="4" stroke="white" stroke-width="2"/>
<rect x="21" y="30" width="22" height="4" stroke="white" stroke-width="2"/>
<mask id="path-5-inside-1_1960_112906" fill="white">
<path fill-rule="evenodd" clip-rule="evenodd" d="M31.8784 39.6592L26.3904 25.3904L40.6592 30.8784L38.2451 33.2924L40.8393 35.8866L36.9502 39.7757L34.356 37.1815L31.8784 39.6592Z"/>
</mask>
<path fill-rule="evenodd" clip-rule="evenodd" d="M31.8784 39.6592L26.3904 25.3904L40.6592 30.8784L38.2451 33.2924L40.8393 35.8866L36.9502 39.7757L34.356 37.1815L31.8784 39.6592Z" fill="url(#paint1_linear_1960_112906)"/>
<path d="M26.3904 25.3904L27.1084 23.5237L22.9083 21.9083L24.5237 26.1083L26.3904 25.3904ZM31.8784 39.6592L30.0117 40.3771L31.1165 43.2495L33.2926 41.0734L31.8784 39.6592ZM40.6592 30.8784L42.0734 32.2926L44.2496 30.1164L41.3772 29.0117L40.6592 30.8784ZM38.2451 33.2924L36.8309 31.8782L35.4167 33.2924L36.8309 34.7067L38.2451 33.2924ZM40.8393 35.8866L42.2535 37.3008L43.6677 35.8866L42.2535 34.4724L40.8393 35.8866ZM36.9502 39.7757L35.536 41.1899L36.9502 42.6041L38.3644 41.1899L36.9502 39.7757ZM34.356 37.1815L35.7703 35.7673L34.356 34.3531L32.9418 35.7673L34.356 37.1815ZM24.5237 26.1083L30.0117 40.3771L33.7451 38.9412L28.2571 24.6724L24.5237 26.1083ZM41.3772 29.0117L27.1084 23.5237L25.6724 27.2571L39.9412 32.7451L41.3772 29.0117ZM39.6593 34.7067L42.0734 32.2926L39.245 29.4642L36.8309 31.8782L39.6593 34.7067ZM36.8309 34.7067L39.4251 37.3008L42.2535 34.4724L39.6593 31.8782L36.8309 34.7067ZM39.4251 34.4724L35.536 38.3615L38.3644 41.1899L42.2535 37.3008L39.4251 34.4724ZM38.3644 38.3615L35.7703 35.7673L32.9418 38.5957L35.536 41.1899L38.3644 38.3615ZM33.2926 41.0734L35.7703 38.5957L32.9418 35.7673L30.4642 38.245L33.2926 41.0734Z" fill="white" mask="url(#path-5-inside-1_1960_112906)"/>
<rect x="21" y="65" width="22" height="4" fill="url(#paint2_linear_1960_112906)" stroke="#020216" stroke-width="2"/>
<rect x="21" y="83" width="22" height="4" stroke="#020216" stroke-width="2"/>
<rect x="21" y="74" width="22" height="4" stroke="#020216" stroke-width="2"/>
<path fill-rule="evenodd" clip-rule="evenodd" d="M31.8784 83.6592L26.3904 69.3904L40.6592 74.8784L38.2451 77.2924L40.8393 79.8866L36.9502 83.7757L34.356 81.1815L31.8784 83.6592Z" fill="white"/>
<mask id="path-11-inside-2_1960_112906" fill="white">
<path fill-rule="evenodd" clip-rule="evenodd" d="M31.8784 83.6592L26.3904 69.3904L40.6592 74.8784L38.2451 77.2924L40.8393 79.8866L36.9502 83.7757L34.356 81.1815L31.8784 83.6592Z"/>
</mask>
<path fill-rule="evenodd" clip-rule="evenodd" d="M31.8784 83.6592L26.3904 69.3904L40.6592 74.8784L38.2451 77.2924L40.8393 79.8866L36.9502 83.7757L34.356 81.1815L31.8784 83.6592Z" fill="url(#paint3_linear_1960_112906)"/>
<path d="M26.3904 69.3904L27.1084 67.5237L22.9083 65.9083L24.5237 70.1083L26.3904 69.3904ZM31.8784 83.6592L30.0117 84.3771L31.1165 87.2495L33.2926 85.0734L31.8784 83.6592ZM40.6592 74.8784L42.0734 76.2926L44.2496 74.1164L41.3772 73.0117L40.6592 74.8784ZM38.2451 77.2924L36.8309 75.8782L35.4167 77.2924L36.8309 78.7067L38.2451 77.2924ZM40.8393 79.8866L42.2535 81.3008L43.6677 79.8866L42.2535 78.4724L40.8393 79.8866ZM36.9502 83.7757L35.536 85.1899L36.9502 86.6041L38.3644 85.1899L36.9502 83.7757ZM34.356 81.1815L35.7703 79.7673L34.356 78.3531L32.9418 79.7673L34.356 81.1815ZM24.5237 70.1083L30.0117 84.3771L33.7451 82.9412L28.2571 68.6724L24.5237 70.1083ZM41.3772 73.0117L27.1084 67.5237L25.6724 71.2571L39.9412 76.7451L41.3772 73.0117ZM39.6593 78.7067L42.0734 76.2926L39.245 73.4642L36.8309 75.8782L39.6593 78.7067ZM36.8309 78.7067L39.4251 81.3008L42.2535 78.4724L39.6593 75.8782L36.8309 78.7067ZM39.4251 78.4724L35.536 82.3615L38.3644 85.1899L42.2535 81.3008L39.4251 78.4724ZM38.3644 82.3615L35.7703 79.7673L32.9418 82.5957L35.536 85.1899L38.3644 82.3615ZM33.2926 85.0734L35.7703 82.5957L32.9418 79.7673L30.4642 82.245L33.2926 85.0734Z" fill="#020216" mask="url(#path-11-inside-2_1960_112906)"/>
<rect x="0.5" y="0.5" width="63" height="107" rx="4.5" stroke="#9747FF" stroke-dasharray="10 5"/>
<defs>
<linearGradient id="paint0_linear_1960_112906" x1="20" y1="22.9977" x2="44" y2="22.9977" gradientUnits="userSpaceOnUse">
<stop stop-color="#BF08C0"/>
<stop offset="0.833333" stop-color="#6F19F7"/>
</linearGradient>
<linearGradient id="paint1_linear_1960_112906" x1="28.2316" y1="36.0123" x2="37.0124" y2="27.2315" gradientUnits="userSpaceOnUse">
<stop stop-color="#BF08C0"/>
<stop offset="0.833333" stop-color="#6F19F7"/>
</linearGradient>
<linearGradient id="paint2_linear_1960_112906" x1="32" y1="64" x2="32" y2="70" gradientUnits="userSpaceOnUse">
<stop stop-color="#BF08C0" stop-opacity="0.25"/>
<stop offset="1" stop-color="#B301FC" stop-opacity="0.75"/>
</linearGradient>
<linearGradient id="paint3_linear_1960_112906" x1="26.3904" y1="69.3904" x2="38.863" y2="81.863" gradientUnits="userSpaceOnUse">
<stop stop-color="#BF08C0" stop-opacity="0.25"/>
<stop offset="1" stop-color="#B301FC" stop-opacity="0.75"/>
</linearGradient>
</defs>
</svg>
