<svg width="64" height="108" viewBox="0 0 64 108" fill="none" xmlns="http://www.w3.org/2000/svg">
<g clip-path="url(#clip0_2134_104295)">
<path d="M33.2377 42.5626H34.1204L34.2299 41.6866L34.5423 39.1876C35.0086 39.0282 35.4576 38.8241 35.8886 38.5758C36.3162 38.3293 36.7174 38.048 37.0914 37.732L39.4772 38.7673L40.309 39.1283L40.7494 38.3356L41.8744 36.3106L42.3024 35.5403L41.592 35.0188L39.4668 33.4588C39.4891 33.3361 39.5096 33.2138 39.528 33.0919C39.5826 32.732 39.6096 32.3679 39.6096 31.9999C39.6096 31.6419 39.5886 31.2876 39.5461 30.9374C39.5296 30.8013 39.5086 30.6651 39.4832 30.5289L41.592 28.981L42.3024 28.4595L41.8744 27.6892L40.7494 25.6642L40.309 24.8715L39.4772 25.2325L37.1271 26.2523C36.7645 25.9159 36.3714 25.6194 35.9481 25.3639C35.5051 25.0966 35.0331 24.8944 34.5353 24.7563L34.2299 22.3132L34.1204 21.4373H33.2377H30.7626H29.8798L29.7703 22.3132L29.4606 24.7911C28.9804 24.9423 28.5209 25.1439 28.0836 25.3959C27.6534 25.6438 27.2542 25.9315 26.8869 26.2583L24.5231 25.2325L23.6912 24.8715L23.2509 25.6642L22.1258 27.6892L21.6979 28.4595L22.4083 28.981L24.5335 30.541C24.5112 30.6637 24.4907 30.786 24.4723 30.9079C24.4177 31.2678 24.3907 31.6319 24.3907 31.9999C24.3907 32.3679 24.4177 32.732 24.4723 33.0919C24.4907 33.2138 24.5112 33.3361 24.5335 33.4588L22.4083 35.0188L21.6979 35.5403L22.1258 36.3106L23.2509 38.3356L23.6912 39.1283L24.5231 38.7673L26.9089 37.732C27.2829 38.048 27.684 38.3293 28.1117 38.5758C28.5426 38.8241 28.9917 39.0282 29.458 39.1876L29.7703 41.6866L29.8798 42.5626H30.7626H33.2377Z" stroke="white" stroke-width="2"/>
<circle cx="32.0001" cy="32.0001" r="2.37505" fill="url(#paint0_linear_2134_104295)" stroke="white" stroke-width="2"/>
</g>
<g clip-path="url(#clip1_2134_104295)">
<path d="M33.2377 86.5626H34.1204L34.2299 85.6866L34.5423 83.1876C35.0086 83.0282 35.4576 82.8241 35.8886 82.5758C36.3162 82.3293 36.7174 82.048 37.0914 81.732L39.4772 82.7673L40.309 83.1283L40.7494 82.3356L41.8744 80.3106L42.3024 79.5403L41.592 79.0188L39.4668 77.4588C39.4891 77.3361 39.5096 77.2138 39.528 77.0919C39.5826 76.732 39.6096 76.3679 39.6096 75.9999C39.6096 75.6419 39.5886 75.2876 39.5461 74.9374C39.5296 74.8013 39.5086 74.6651 39.4832 74.5289L41.592 72.981L42.3024 72.4595L41.8744 71.6892L40.7494 69.6642L40.309 68.8715L39.4772 69.2325L37.1271 70.2523C36.7645 69.9159 36.3714 69.6194 35.9481 69.3639C35.5051 69.0966 35.0331 68.8944 34.5353 68.7563L34.2299 66.3132L34.1204 65.4373H33.2377H30.7626H29.8798L29.7703 66.3132L29.4606 68.7911C28.9804 68.9423 28.5209 69.1439 28.0836 69.3959C27.6534 69.6438 27.2542 69.9315 26.8869 70.2583L24.5231 69.2325L23.6912 68.8715L23.2509 69.6642L22.1258 71.6892L21.6979 72.4595L22.4083 72.981L24.5335 74.541C24.5112 74.6637 24.4907 74.786 24.4723 74.9079C24.4177 75.2678 24.3907 75.6319 24.3907 75.9999C24.3907 76.3679 24.4177 76.732 24.4723 77.0919C24.4907 77.2138 24.5112 77.3361 24.5335 77.4588L22.4083 79.0188L21.6979 79.5403L22.1258 80.3106L23.2509 82.3356L23.6912 83.1283L24.5231 82.7673L26.9089 81.732C27.2829 82.048 27.684 82.3293 28.1117 82.5758C28.5426 82.8241 28.9917 83.0282 29.458 83.1876L29.7703 85.6866L29.8798 86.5626H30.7626H33.2377Z" stroke="#020216" stroke-width="2"/>
<circle cx="32.0001" cy="76.0001" r="2.37505" fill="url(#paint1_linear_2134_104295)" stroke="#020216" stroke-width="2"/>
</g>
<rect x="0.5" y="0.5" width="63" height="107" rx="4.5" stroke="#9747FF" stroke-dasharray="10 5"/>
<defs>
<linearGradient id="paint0_linear_2134_104295" x1="28.625" y1="31.9975" x2="35.3751" y2="31.9975" gradientUnits="userSpaceOnUse">
<stop stop-color="#BF08C0"/>
<stop offset="0.833333" stop-color="#6F19F7"/>
</linearGradient>
<linearGradient id="paint1_linear_2134_104295" x1="32.0001" y1="72.625" x2="32.0001" y2="79.3751" gradientUnits="userSpaceOnUse">
<stop stop-color="#BF08C0" stop-opacity="0.25"/>
<stop offset="1" stop-color="#B301FC" stop-opacity="0.75"/>
</linearGradient>
<clipPath id="clip0_2134_104295">
<rect width="24" height="24" fill="white" transform="translate(20 20)"/>
</clipPath>
<clipPath id="clip1_2134_104295">
<rect width="24" height="24" fill="white" transform="translate(20 64)"/>
</clipPath>
</defs>
</svg>
