<svg width="24" height="24" viewBox="0 0 24 24" fill="none" xmlns="http://www.w3.org/2000/svg">
<path d="M10.5 14C10.5 13.7239 10.2761 13.5 10 13.5L5.5 13.5C5.22386 13.5 5 13.7239 5 14C5 14.2761 5.22386 14.5 5.5 14.5L9.5 14.5L9.5 18.5C9.5 18.7761 9.72386 19 10 19C10.2761 19 10.5 18.7761 10.5 18.5L10.5 14ZM6.35355 18.3536L10.3536 14.3536L9.64645 13.6464L5.64645 17.6464L6.35355 18.3536Z" fill="white"/>
<path d="M13.5 14C13.5 13.7239 13.7239 13.5 14 13.5L18.5 13.5C18.7761 13.5 19 13.7239 19 14C19 14.2761 18.7761 14.5 18.5 14.5L14.5 14.5L14.5 18.5C14.5 18.7761 14.2761 19 14 19C13.7239 19 13.5 18.7761 13.5 18.5L13.5 14ZM17.6464 18.3536L13.6464 14.3536L14.3536 13.6464L18.3536 17.6464L17.6464 18.3536Z" fill="white"/>
<path d="M12.3536 12.5104C12.1583 12.7057 11.8417 12.7057 11.6464 12.5104L8.46447 9.32843C8.2692 9.13317 8.2692 8.81658 8.46447 8.62132C8.65973 8.42606 8.97631 8.42606 9.17157 8.62132L12 11.4497L14.8284 8.62132C15.0237 8.42606 15.3403 8.42606 15.5355 8.62132C15.7308 8.81658 15.7308 9.13317 15.5355 9.32843L12.3536 12.5104ZM12.5 6.5L12.5 12.1569L11.5 12.1569L11.5 6.5L12.5 6.5Z" fill="white"/>
<circle cx="4" cy="20" r="3.5" fill="url(#paint0_linear_662_15821)" stroke="white"/>
<circle cx="20" cy="20" r="3.5" fill="url(#paint1_linear_662_15821)" stroke="white"/>
<circle cx="12" cy="4" r="3.5" fill="url(#paint2_linear_662_15821)" stroke="white"/>
<defs>
<linearGradient id="paint0_linear_662_15821" x1="1.49602e-10" y1="19.997" x2="8" y2="19.997" gradientUnits="userSpaceOnUse">
<stop stop-color="#BF08C0"/>
<stop offset="0.833333" stop-color="#6F19F7"/>
</linearGradient>
<linearGradient id="paint1_linear_662_15821" x1="16" y1="19.997" x2="24" y2="19.997" gradientUnits="userSpaceOnUse">
<stop stop-color="#BF08C0"/>
<stop offset="0.833333" stop-color="#6F19F7"/>
</linearGradient>
<linearGradient id="paint2_linear_662_15821" x1="8" y1="3.99696" x2="16" y2="3.99696" gradientUnits="userSpaceOnUse">
<stop stop-color="#BF08C0"/>
<stop offset="0.833333" stop-color="#6F19F7"/>
</linearGradient>
</defs>
</svg>
