<svg width="64" height="108" viewBox="0 0 64 108" fill="none" xmlns="http://www.w3.org/2000/svg">
<path d="M30.5 34C30.5 33.7239 30.2761 33.5 30 33.5L25.5 33.5C25.2239 33.5 25 33.7239 25 34C25 34.2761 25.2239 34.5 25.5 34.5L29.5 34.5L29.5 38.5C29.5 38.7761 29.7239 39 30 39C30.2761 39 30.5 38.7761 30.5 38.5L30.5 34ZM26.3536 38.3536L30.3536 34.3536L29.6464 33.6464L25.6464 37.6464L26.3536 38.3536Z" fill="white"/>
<path d="M33.5 34C33.5 33.7239 33.7239 33.5 34 33.5L38.5 33.5C38.7761 33.5 39 33.7239 39 34C39 34.2761 38.7761 34.5 38.5 34.5L34.5 34.5L34.5 38.5C34.5 38.7761 34.2761 39 34 39C33.7239 39 33.5 38.7761 33.5 38.5L33.5 34ZM37.6464 38.3536L33.6464 34.3536L34.3536 33.6464L38.3536 37.6464L37.6464 38.3536Z" fill="white"/>
<path d="M32.3536 32.5104C32.1583 32.7057 31.8417 32.7057 31.6464 32.5104L28.4645 29.3284C28.2692 29.1332 28.2692 28.8166 28.4645 28.6213C28.6597 28.4261 28.9763 28.4261 29.1716 28.6213L32 31.4497L34.8284 28.6213C35.0237 28.4261 35.3403 28.4261 35.5355 28.6213C35.7308 28.8166 35.7308 29.1332 35.5355 29.3284L32.3536 32.5104ZM32.5 26.5L32.5 32.1569L31.5 32.1569L31.5 26.5L32.5 26.5Z" fill="white"/>
<circle cx="24" cy="40" r="3.5" fill="url(#paint0_linear_948_20773)" stroke="white"/>
<circle cx="40" cy="40" r="3.5" fill="url(#paint1_linear_948_20773)" stroke="white"/>
<circle cx="32" cy="24" r="3.5" fill="url(#paint2_linear_948_20773)" stroke="white"/>
<path d="M30.5 78C30.5 77.7239 30.2761 77.5 30 77.5L25.5 77.5C25.2239 77.5 25 77.7239 25 78C25 78.2761 25.2239 78.5 25.5 78.5L29.5 78.5L29.5 82.5C29.5 82.7761 29.7239 83 30 83C30.2761 83 30.5 82.7761 30.5 82.5L30.5 78ZM26.8536 81.8536L30.3536 78.3536L29.6464 77.6464L26.1464 81.1464L26.8536 81.8536Z" fill="#020216"/>
<path d="M33.5 78C33.5 77.7239 33.7239 77.5 34 77.5L38.5 77.5C38.7761 77.5 39 77.7239 39 78C39 78.2761 38.7761 78.5 38.5 78.5L34.5 78.5L34.5 82.5C34.5 82.7761 34.2761 83 34 83C33.7239 83 33.5 82.7761 33.5 82.5L33.5 78ZM37.1464 81.8536L33.6464 78.3536L34.3536 77.6464L37.8536 81.1464L37.1464 81.8536Z" fill="#020216"/>
<path d="M31.6464 76.3536C31.8417 76.5488 32.1583 76.5488 32.3536 76.3536L35.5355 73.1716C35.7308 72.9763 35.7308 72.6597 35.5355 72.4645C35.3403 72.2692 35.0237 72.2692 34.8284 72.4645L32 75.2929L29.1716 72.4645C28.9763 72.2692 28.6597 72.2692 28.4645 72.4645C28.2692 72.6597 28.2692 72.9763 28.4645 73.1716L31.6464 76.3536ZM31.5 71L31.5 76L32.5 76L32.5 71L31.5 71Z" fill="#020216"/>
<circle cx="24" cy="84" r="3.5" fill="url(#paint3_linear_948_20773)" stroke="#020216"/>
<circle cx="40" cy="84" r="3.5" fill="url(#paint4_linear_948_20773)" stroke="#020216"/>
<circle cx="32" cy="68" r="3.5" fill="url(#paint5_linear_948_20773)" stroke="#020216"/>
<rect x="0.5" y="0.5" width="63" height="107" rx="4.5" stroke="#9747FF" stroke-dasharray="10 5"/>
<defs>
<linearGradient id="paint0_linear_948_20773" x1="20" y1="39.997" x2="28" y2="39.997" gradientUnits="userSpaceOnUse">
<stop stop-color="#BF08C0"/>
<stop offset="0.833333" stop-color="#6F19F7"/>
</linearGradient>
<linearGradient id="paint1_linear_948_20773" x1="36" y1="39.997" x2="44" y2="39.997" gradientUnits="userSpaceOnUse">
<stop stop-color="#BF08C0"/>
<stop offset="0.833333" stop-color="#6F19F7"/>
</linearGradient>
<linearGradient id="paint2_linear_948_20773" x1="28" y1="23.997" x2="36" y2="23.997" gradientUnits="userSpaceOnUse">
<stop stop-color="#BF08C0"/>
<stop offset="0.833333" stop-color="#6F19F7"/>
</linearGradient>
<linearGradient id="paint3_linear_948_20773" x1="24" y1="80" x2="24" y2="88" gradientUnits="userSpaceOnUse">
<stop stop-color="#BF08C0" stop-opacity="0.25"/>
<stop offset="1" stop-color="#B301FC" stop-opacity="0.75"/>
</linearGradient>
<linearGradient id="paint4_linear_948_20773" x1="40" y1="80" x2="40" y2="88" gradientUnits="userSpaceOnUse">
<stop stop-color="#BF08C0" stop-opacity="0.25"/>
<stop offset="1" stop-color="#B301FC" stop-opacity="0.75"/>
</linearGradient>
<linearGradient id="paint5_linear_948_20773" x1="32" y1="64" x2="32" y2="72" gradientUnits="userSpaceOnUse">
<stop stop-color="#BF08C0" stop-opacity="0.25"/>
<stop offset="1" stop-color="#B301FC" stop-opacity="0.75"/>
</linearGradient>
</defs>
</svg>
