<svg width="64" height="108" viewBox="0 0 64 108" fill="none" xmlns="http://www.w3.org/2000/svg">
<path d="M24 25H40V40C40 41.6569 38.6569 43 37 43H27C25.3431 43 24 41.6569 24 40V25Z" stroke="white" stroke-width="2"/>
<path d="M37 25L27 25L27 22C27 21.4477 27.4477 21 28 21L36 21C36.5523 21 37 21.4477 37 22L37 25Z" fill="url(#paint0_linear_1401_44845)" stroke="white" stroke-width="2"/>
<line x1="20" y1="25" x2="44" y2="25" stroke="white" stroke-width="2"/>
<line x1="29" y1="28" x2="29" y2="40" stroke="white" stroke-width="2"/>
<line x1="35" y1="28" x2="35" y2="40" stroke="white" stroke-width="2"/>
<path d="M24 69H40V84C40 85.6569 38.6569 87 37 87H27C25.3431 87 24 85.6569 24 84V69Z" stroke="#020216" stroke-width="2"/>
<path d="M37 69L27 69L27 66C27 65.4477 27.4477 65 28 65L36 65C36.5523 65 37 65.4477 37 66L37 69Z" fill="url(#paint1_linear_1401_44845)" stroke="#020216" stroke-width="2"/>
<line x1="20" y1="69" x2="44" y2="69" stroke="#020216" stroke-width="2"/>
<line x1="29" y1="72" x2="29" y2="84" stroke="#020216" stroke-width="2"/>
<line x1="35" y1="72" x2="35" y2="84" stroke="#020216" stroke-width="2"/>
<rect x="0.5" y="0.5" width="63" height="107" rx="4.5" stroke="#9747FF" stroke-dasharray="10 5"/>
<defs>
<linearGradient id="paint0_linear_1401_44845" x1="38" y1="23.0023" x2="26" y2="23.0023" gradientUnits="userSpaceOnUse">
<stop stop-color="#BF08C0"/>
<stop offset="0.833333" stop-color="#6F19F7"/>
</linearGradient>
<linearGradient id="paint1_linear_1401_44845" x1="32" y1="70" x2="32" y2="64" gradientUnits="userSpaceOnUse">
<stop stop-color="#BF08C0" stop-opacity="0.25"/>
<stop offset="1" stop-color="#B301FC" stop-opacity="0.75"/>
</linearGradient>
</defs>
</svg>
